STARTFONT 2.1
COMMENT
COMMENT Converted from OpenType font "texgyreadventor-regular.otf" by "otf2bdf 3.0".
COMMENT
FONT -FreeType-TeX Gyre Adventor-Medium-R-Normal--42-420-72-72-P-232-ISO10646-1
SIZE 42 72 72
FONTBOUNDINGBOX 100 72 -34 -21
STARTPROPERTIES 19
FOUNDRY "FreeType"
FAMILY_NAME "TeX Gyre Adventor"
WEIGHT_NAME "Medium"
SLANT "R"
SETWIDTH_NAME "Normal"
ADD_STYLE_NAME ""
PIXEL_SIZE 42
POINT_SIZE 420
RESOLUTION_X 72
RESOLUTION_Y 72
SPACING "P"
AVERAGE_WIDTH 232
CHARSET_REGISTRY "ISO10646"
CHARSET_ENCODING "1"
FONT_ASCENT 31
FONT_DESCENT 8
COPYRIGHT "Copyright 2007-2018 for TeX Gyre extensions by B. Jackowski, J.M. Nowacki, et al. (on behalf of TeX USERS GROUPS). Vietnamese characters were added by Han The Thanh."
_OTF_FONTFILE "texgyreadventor-regular.otf"
_OTF_PSNAME "TeXGyreAdventor-Regular"
ENDPROPERTIES
CHARS 1199
STARTCHAR 0020
ENCODING 32
SWIDTH 285 0
DWIDTH 12 0
BBX 0 0 0 0
BITMAP
ENDCHAR
STARTCHAR 0021
ENCODING 33
SWIDTH 285 0
DWIDTH 12 0
BBX 3 31 5 0
BITMAP
E0
E0
E0
E0
E0
E0
E0
E0
E0
E0
E0
E0
E0
E0
E0
E0
E0
E0
E0
E0
E0
E0
E0
00
00
00
E0
E0
E0
E0
E0
ENDCHAR
STARTCHAR 0022
ENCODING 34
SWIDTH 309 0
DWIDTH 13 0
BBX 7 9 3 22
BITMAP
C6
C6
C6
C6
C6
C6
C6
C6
C6
ENDCHAR
STARTCHAR 0023
ENCODING 35
SWIDTH 547 0
DWIDTH 23 0
BBX 23 31 0 0
BITMAP
00E038
00E030
00E070
00C070
01C070
01C070
01C060
01C0E0
0180E0
7FFFFE
7FFFFE
7FFFFE
0380C0
0381C0
0301C0
0701C0
0701C0
070180
FFFFFC
FFFFFC
FFFFFC
0E0380
0E0300
0E0300
0C0700
0C0700
1C0700
1C0700
1C0600
180E00
180E00
ENDCHAR
STARTCHAR 0024
ENCODING 36
SWIDTH 547 0
DWIDTH 23 0
BBX 17 37 3 -3
BITMAP
01C000
01C000
01C000
01C000
07F800
1FFE00
1E1F00
3C0700
380780
780380
700380
700000
780000
380000
3C0000
1F0000
0FE000
07F800
01FC00
003E00
000F00
000780
000380
000380
000380
E00380
E00380
700780
700700
780F00
3FFE00
1FFC00
07F000
01C000
01C000
01C000
01C000
ENDCHAR
STARTCHAR 0025
ENCODING 37
SWIDTH 785 0
DWIDTH 33 0
BBX 31 33 1 -1
BITMAP
0FC00000
1FE00E00
7FF00E00
70781E00
E03C1C00
E01C1C00
C01C3800
C01C3800
C01C7000
E01C7000
E03CE000
7878E000
7FF1C000
3FE1C000
0F81C000
00038000
00038000
00070000
000707C0
000E1FF0
000E3FF8
001C783C
001CF01C
0038E01C
0038E00E
0038E00E
0070E00E
0070E01C
00E0F01C
00E07838
01C03FF8
01C01FF0
000007C0
ENDCHAR
STARTCHAR 0026
ENCODING 38
SWIDTH 761 0
DWIDTH 32 0
BBX 29 33 2 -1
BITMAP
007C0000
01FF0000
03FF8000
0783C000
0701C000
0E00E000
0E00E000
0E00E000
0F00E000
0701E000
0783C000
03C7C000
03FF01C0
01FE03C0
03F80380
07FC0780
0FBE0700
1E1F0F00
3C0F8E00
7807DE00
7003FC00
7001FC00
F000F800
E0007C00
F0007E00
7000FF00
7000EF80
7801E7C0
3C03C3E0
1E0781F0
1FFF00F8
07FE0070
01F80020
ENDCHAR
STARTCHAR 0027
ENCODING 39
SWIDTH 190 0
DWIDTH 8 0
BBX 2 9 3 22
BITMAP
C0
C0
C0
C0
C0
C0
C0
C0
C0
ENDCHAR
STARTCHAR 0028
ENCODING 40
SWIDTH 357 0
DWIDTH 15 0
BBX 11 39 3 -9
BITMAP
0060
00E0
01E0
03C0
0780
0F00
0E00
1C00
1C00
3800
3800
3800
7000
7000
7000
7000
7000
F000
F000
F000
F000
F000
7000
7000
7000
7000
7800
7800
3800
3C00
1C00
1C00
0E00
0F00
0780
03C0
01E0
00E0
0060
ENDCHAR
STARTCHAR 0029
ENCODING 41
SWIDTH 357 0
DWIDTH 15 0
BBX 10 39 2 -9
BITMAP
C000
E000
F000
7800
3C00
1C00
1E00
0E00
0700
0700
0780
0380
0380
03C0
03C0
01C0
01C0
01C0
01C0
01C0
01C0
01C0
01C0
01C0
03C0
03C0
0380
0380
0780
0700
0700
0E00
1E00
1C00
3C00
7800
F000
E000
C000
ENDCHAR
STARTCHAR 002A
ENCODING 42
SWIDTH 428 0
DWIDTH 18 0
BBX 14 16 2 15
BITMAP
0780
0780
0780
C78C
F3BC
FFFC
7FF8
1FE0
1FE0
7FF8
FFFC
F3BC
C38C
0380
0780
0780
ENDCHAR
STARTCHAR 002B
ENCODING 43
SWIDTH 714 0
DWIDTH 30 0
BBX 24 23 3 -1
BITMAP
001C00
001C00
001C00
001C00
001C00
001C00
001C00
001C00
001C00
001C00
FFFFFF
FFFFFF
FFFFFF
001C00
001C00
001C00
001C00
001C00
001C00
001C00
001C00
001C00
001C00
ENDCHAR
STARTCHAR 002C
ENCODING 44
SWIDTH 285 0
DWIDTH 12 0
BBX 6 8 4 -3
BITMAP
1C
1C
38
38
78
70
70
E0
ENDCHAR
STARTCHAR 002D
ENCODING 45
SWIDTH 333 0
DWIDTH 14 0
BBX 12 3 1 10
BITMAP
FFF0
FFF0
FFF0
ENDCHAR
STARTCHAR 002E
ENCODING 46
SWIDTH 285 0
DWIDTH 12 0
BBX 3 5 4 0
BITMAP
E0
E0
E0
E0
E0
ENDCHAR
STARTCHAR 002F
ENCODING 47
SWIDTH 523 0
DWIDTH 22 0
BBX 14 33 4 -6
BITMAP
001C
003C
0038
0038
0078
0070
0070
00F0
00E0
00E0
01C0
01C0
01C0
0380
0380
0780
0700
0700
0F00
0E00
0E00
1E00
1C00
1C00
3C00
3800
3800
7800
7000
7000
F000
E000
E000
ENDCHAR
STARTCHAR 0030
ENCODING 48
SWIDTH 547 0
DWIDTH 23 0
BBX 21 33 1 -1
BITMAP
01FC00
07FF80
1FFFC0
1E03E0
3C00E0
7800F0
700070
700078
700038
F00038
E00038
E00038
E00038
E00038
E00038
E00038
E00038
E00038
E00038
E00038
E00038
E00038
E00038
F00038
700038
700078
700070
780070
3C00F0
1E03E0
1FFFC0
07FF80
01FE00
ENDCHAR
STARTCHAR 0031
ENCODING 49
SWIDTH 547 0
DWIDTH 23 0
BBX 8 31 7 0
BITMAP
FF
FF
FF
07
07
07
07
07
07
07
07
07
07
07
07
07
07
07
07
07
07
07
07
07
07
07
07
07
07
07
07
ENDCHAR
STARTCHAR 0032
ENCODING 50
SWIDTH 547 0
DWIDTH 23 0
BBX 20 32 1 0
BITMAP
01FC00
07FF00
0FFF80
1E07C0
3C01E0
3800E0
780070
700070
700070
700070
700070
000070
0000F0
0000E0
0001E0
0003C0
000780
000F00
001F00
003E00
007C00
00F000
01E000
03C000
078000
0F0000
1E0000
3C0000
780000
FFFFF0
FFFFF0
FFFFF0
ENDCHAR
STARTCHAR 0033
ENCODING 51
SWIDTH 547 0
DWIDTH 23 0
BBX 20 33 1 -1
BITMAP
01F800
07FE00
0FFF00
0F0780
1E03C0
1C01C0
1C01C0
3C01C0
0001C0
0001C0
0003C0
000380
000F80
00FF00
00FE00
00FF80
0007C0
0001E0
0000E0
0000F0
000070
000070
000070
E00070
700070
700070
7000F0
7800E0
3C01E0
1E07C0
0FFF80
07FF00
01F800
ENDCHAR
STARTCHAR 0034
ENCODING 52
SWIDTH 547 0
DWIDTH 23 0
BBX 21 31 1 0
BITMAP
0003C0
0003C0
0007C0
000FC0
000FC0
001DC0
003DC0
0039C0
0071C0
00F1C0
01E1C0
01C1C0
03C1C0
0781C0
0701C0
0F01C0
1E01C0
1C01C0
3C01C0
7801C0
7001C0
F001C0
FFFFF8
FFFFF8
FFFFF8
0001C0
0001C0
0001C0
0001C0
0001C0
0001C0
ENDCHAR
STARTCHAR 0035
ENCODING 53
SWIDTH 547 0
DWIDTH 23 0
BBX 21 32 1 -1
BITMAP
0FFFE0
0FFFE0
0FFFE0
0E0000
0E0000
0E0000
1C0000
1C0000
1C0000
1C0000
1CFC00
1FFF00
3FFFC0
3F03E0
3C01E0
3800F0
000070
000078
000038
000038
000038
000038
E00038
F00038
700078
700070
3800F0
3C01E0
1F03C0
0FFF80
07FF00
01FC00
ENDCHAR
STARTCHAR 0036
ENCODING 54
SWIDTH 547 0
DWIDTH 23 0
BBX 21 32 1 -1
BITMAP
001E00
003C00
003800
007800
00F000
00E000
01E000
03C000
038000
078000
0F7C00
0FFF80
1FFFC0
1F03E0
3C01E0
7800F0
700070
700078
E00038
E00038
E00038
E00038
E00038
F00038
700078
700070
7800F0
3C01E0
1F03E0
0FFFC0
07FF00
01FC00
ENDCHAR
STARTCHAR 0037
ENCODING 55
SWIDTH 547 0
DWIDTH 23 0
BBX 18 31 3 0
BITMAP
FFFFC0
FFFFC0
FFFFC0
000380
000380
000700
000700
000E00
000E00
001E00
001C00
003C00
003800
003800
007000
007000
00E000
00E000
01E000
01C000
03C000
038000
078000
070000
070000
0E0000
0E0000
1C0000
1C0000
3C0000
380000
ENDCHAR
STARTCHAR 0038
ENCODING 56
SWIDTH 547 0
DWIDTH 23 0
BBX 20 33 2 -1
BITMAP
01F800
07FE00
0FFF00
1E0F80
3C0380
3803C0
3801C0
7801C0
7801C0
3801C0
3803C0
3C0780
1E0F80
0FFF00
07FC00
1FFF00
3E0F80
7803C0
7001E0
F000E0
E000E0
E000E0
E000F0
E000F0
E000E0
E000E0
F000E0
7001E0
7803C0
3E0780
1FFF00
0FFE00
03F800
ENDCHAR
STARTCHAR 0039
ENCODING 57
SWIDTH 547 0
DWIDTH 23 0
BBX 21 32 1 0
BITMAP
01FC00
07FF00
0FFFC0
1E03E0
3C01E0
7800F0
700070
700078
E00038
E00038
E00038
E00038
E00038
F00038
700078
700070
7800F0
3C01E0
1F03E0
0FFFC0
07FFC0
01FF80
000700
000F00
001E00
001C00
003800
007800
007000
00E000
01E000
01C000
ENDCHAR
STARTCHAR 003A
ENCODING 58
SWIDTH 285 0
DWIDTH 12 0
BBX 3 21 4 0
BITMAP
E0
E0
E0
E0
E0
00
00
00
00
00
00
00
00
00
00
00
E0
E0
E0
E0
E0
ENDCHAR
STARTCHAR 003B
ENCODING 59
SWIDTH 285 0
DWIDTH 12 0
BBX 6 24 2 -3
BITMAP
1C
1C
1C
1C
1C
00
00
00
00
00
00
00
00
00
00
00
1C
1C
38
38
70
70
E0
E0
ENDCHAR
STARTCHAR 003C
ENCODING 60
SWIDTH 738 0
DWIDTH 31 0
BBX 24 29 3 -4
BITMAP
000001
000007
00001F
00007F
0000FC
0003F0
000FC0
003F00
00FE00
01F800
07E000
1F8000
7F0000
FC0000
F00000
FC0000
7F0000
1F8000
07E000
01F800
00FE00
003F00
000FC0
0003F0
0001FC
00007F
00001F
000007
000001
ENDCHAR
STARTCHAR 003D
ENCODING 61
SWIDTH 714 0
DWIDTH 30 0
BBX 24 11 3 5
BITMAP
FFFFFF
FFFFFF
FFFFFF
000000
000000
000000
000000
000000
FFFFFF
FFFFFF
FFFFFF
ENDCHAR
STARTCHAR 003E
ENCODING 62
SWIDTH 738 0
DWIDTH 31 0
BBX 24 29 3 -4
BITMAP
C00000
F00000
FC0000
7E0000
1F8000
07E000
03F800
00FE00
003F00
000FC0
0003F0
0001FC
00007E
00001F
000007
00001F
00007F
0001FC
0003F0
000FC0
003F00
00FE00
03F800
07E000
1F8000
7E0000
FC0000
F00000
C00000
ENDCHAR
STARTCHAR 003F
ENCODING 63
SWIDTH 595 0
DWIDTH 25 0
BBX 19 32 3 0
BITMAP
03F800
0FFE00
1FFF00
3C0780
7803C0
7001C0
E001E0
E000E0
E000E0
E000E0
0000E0
0000E0
0001C0
0003C0
000780
000F00
001E00
003C00
003800
007000
007000
00E000
00E000
00E000
000000
000000
000000
00E000
00E000
00E000
00E000
00E000
ENDCHAR
STARTCHAR 0040
ENCODING 64
SWIDTH 857 0
DWIDTH 36 0
BBX 30 33 3 -1
BITMAP
000FF000
007FFE00
00F81F00
03C003C0
070000E0
0E000070
1C000030
1807F018
380FFB18
701E3F0C
60381F0C
60700E0C
E0E00E0C
C0E00E0C
C1C01C0C
C1C01C0C
C1C01C0C
C380380C
C380381C
E3803818
E3807038
6380F070
71C0F0E0
31E1F1C0
38FFFF80
187E3F00
1C000000
0E000060
070001E0
03C003C0
01F81F80
007FFE00
000FF000
ENDCHAR
STARTCHAR 0041
ENCODING 65
SWIDTH 738 0
DWIDTH 31 0
BBX 29 31 1 0
BITMAP
00070000
000F8000
000F8000
001FC000
001DC000
003DE000
0038E000
0038E000
00707000
00707000
00F07800
00E03800
01E03C00
01C01C00
01C01E00
03C01E00
03800E00
07800F00
07FFFF00
0FFFFF80
0FFFFF80
0E0003C0
1E0003C0
1C0001C0
3C0001E0
380000E0
780000F0
70000070
70000078
E0000038
E0000038
ENDCHAR
STARTCHAR 0042
ENCODING 66
SWIDTH 571 0
DWIDTH 24 0
BBX 20 31 3 0
BITMAP
FFF000
FFFE00
FFFF00
E00F80
E003C0
E003C0
E001C0
E001C0
E001C0
E001C0
E001C0
E00380
E00F80
FFFF00
FFFE00
FFFF80
E007C0
E001E0
E000E0
E000F0
E00070
E00070
E00070
E00070
E000F0
E000E0
E001E0
E007C0
FFFF80
FFFF00
FFF800
ENDCHAR
STARTCHAR 0043
ENCODING 67
SWIDTH 809 0
DWIDTH 34 0
BBX 30 33 2 -1
BITMAP
000FF000
007FFE00
01FFFF80
03F00FC0
07C003E0
0F0000F0
1E000078
3C00003C
3800003C
78000000
70000000
70000000
F0000000
E0000000
E0000000
E0000000
E0000000
E0000000
E0000000
E0000000
F0000000
70000000
70000000
78000000
3C00001C
3C00003C
1E000078
0F0000F0
07C003E0
03F00FC0
01FFFF80
007FFE00
000FF000
ENDCHAR
STARTCHAR 0044
ENCODING 68
SWIDTH 738 0
DWIDTH 31 0
BBX 26 31 3 0
BITMAP
FFFC0000
FFFFC000
FFFFE000
E003F800
E0007C00
E0001E00
E0000F00
E0000700
E0000780
E0000380
E00003C0
E00001C0
E00001C0
E00001C0
E00001C0
E00001C0
E00001C0
E00001C0
E00001C0
E00001C0
E00003C0
E0000380
E0000780
E0000780
E0000F00
E0001E00
E0007C00
E001F800
FFFFE000
FFFF8000
FFFC0000
ENDCHAR
STARTCHAR 0045
ENCODING 69
SWIDTH 547 0
DWIDTH 23 0
BBX 17 31 3 0
BITMAP
FFFF80
FFFF80
FFFF80
E00000
E00000
E00000
E00000
E00000
E00000
E00000
E00000
E00000
E00000
E00000
FFFF80
FFFF80
FFFF80
E00000
E00000
E00000
E00000
E00000
E00000
E00000
E00000
E00000
E00000
E00000
FFFF80
FFFF80
FFFF80
ENDCHAR
STARTCHAR 0046
ENCODING 70
SWIDTH 476 0
DWIDTH 20 0
BBX 16 31 3 0
BITMAP
FFFF
FFFF
FFFF
E000
E000
E000
E000
E000
E000
E000
E000
E000
E000
E000
FFFE
FFFE
FFFE
E000
E000
E000
E000
E000
E000
E000
E000
E000
E000
E000
E000
E000
E000
ENDCHAR
STARTCHAR 0047
ENCODING 71
SWIDTH 880 0
DWIDTH 37 0
BBX 33 33 2 -1
BITMAP
000FF80000
007FFF0000
00FFFFC000
03F007E000
07C001F000
0F0000F800
1E00003C00
1C00003C00
3C00001E00
7800000000
7000000000
7000000000
F000000000
E000000000
E000000000
E000000000
E000000000
E000000000
E00FFFFF80
E00FFFFF80
F00FFFFF80
7000000700
7000000700
7800000F00
3C00000E00
3C00001C00
1E00003C00
0F80007800
07C001F000
03F007E000
00FFFF8000
007FFF0000
000FF80000
ENDCHAR
STARTCHAR 0048
ENCODING 72
SWIDTH 690 0
DWIDTH 29 0
BBX 22 31 3 0
BITMAP
E0001C
E0001C
E0001C
E0001C
E0001C
E0001C
E0001C
E0001C
E0001C
E0001C
E0001C
E0001C
E0001C
E0001C
FFFFFC
FFFFFC
FFFFFC
E0001C
E0001C
E0001C
E0001C
E0001C
E0001C
E0001C
E0001C
E0001C
E0001C
E0001C
E0001C
E0001C
E0001C
ENDCHAR
STARTCHAR 0049
ENCODING 73
SWIDTH 214 0
DWIDTH 9 0
BBX 3 31 3 0
BITMAP
E0
E0
E0
E0
E0
E0
E0
E0
E0
E0
E0
E0
E0
E0
E0
E0
E0
E0
E0
E0
E0
E0
E0
E0
E0
E0
E0
E0
E0
E0
E0
ENDCHAR
STARTCHAR 004A
ENCODING 74
SWIDTH 476 0
DWIDTH 20 0
BBX 17 32 0 -1
BITMAP
000380
000380
000380
000380
000380
000380
000380
000380
000380
000380
000380
000380
000380
000380
000380
000380
000380
000380
000380
000380
000380
000380
000380
000380
F00380
700780
700700
780F00
3C1F00
3FFE00
0FFC00
03F000
ENDCHAR
STARTCHAR 004B
ENCODING 75
SWIDTH 595 0
DWIDTH 25 0
BBX 21 31 3 0
BITMAP
E00078
E000F0
E000F0
E001E0
E003C0
E00780
E00F00
E00E00
E01E00
E03C00
E07800
E0F000
E0E000
E1E000
E3C000
E7C000
EFC000
EFE000
FEF000
FC7800
F83800
F03C00
E01E00
E00F00
E00780
E00780
E003C0
E001E0
E000F0
E000F0
E00078
ENDCHAR
STARTCHAR 004C
ENCODING 76
SWIDTH 452 0
DWIDTH 19 0
BBX 16 31 3 0
BITMAP
E000
E000
E000
E000
E000
E000
E000
E000
E000
E000
E000
E000
E000
E000
E000
E000
E000
E000
E000
E000
E000
E000
E000
E000
E000
E000
E000
E000
FFFF
FFFF
FFFF
ENDCHAR
STARTCHAR 004D
ENCODING 77
SWIDTH 928 0
DWIDTH 39 0
BBX 32 31 3 0
BITMAP
F800001F
FC00001F
FC00001F
FE00003F
EE00003F
EE000077
E7000077
E70000F7
E78000E7
E38000E7
E3C001C7
E1C001C7
E1C00387
E0E00387
E0E00787
E0F00707
E0700707
E0780E07
E0380E07
E0381C07
E03C1C07
E01C3C07
E01E3807
E00E3807
E00F7007
E0077007
E007F007
E007E007
E003E007
E003C007
E001C007
ENDCHAR
STARTCHAR 004E
ENCODING 78
SWIDTH 738 0
DWIDTH 31 0
BBX 25 31 3 0
BITMAP
F8000380
F8000380
FC000380
FE000380
EE000380
EF000380
E7800380
E3800380
E1C00380
E1E00380
E0F00380
E0700380
E0780380
E03C0380
E01C0380
E01E0380
E00F0380
E0070380
E0078380
E003C380
E001C380
E001E380
E000F380
E0007380
E0007B80
E0003F80
E0001F80
E0001F80
E0000F80
E0000780
E0000780
ENDCHAR
STARTCHAR 004F
ENCODING 79
SWIDTH 880 0
DWIDTH 37 0
BBX 33 33 2 -1
BITMAP
000FF00000
003FFE0000
00FFFF8000
03F00FC000
07C003F000
0F8000F800
1E00007800
1C00003C00
3C00001E00
7800000E00
7000000F00
7000000700
F000000700
E000000700
E000000780
E000000780
E000000780
E000000780
E000000780
E000000700
F000000700
7000000700
7000000F00
7800000E00
3C00001E00
1C00003C00
1E00007800
0F8000F000
07C001E000
03F00FC000
00FFFF8000
007FFE0000
000FF00000
ENDCHAR
STARTCHAR 0050
ENCODING 80
SWIDTH 595 0
DWIDTH 25 0
BBX 21 31 3 0
BITMAP
FFFC00
FFFF80
FFFFC0
E003E0
E000F0
E00070
E00070
E00078
E00038
E00038
E00038
E00078
E00070
E00070
E000F0
E003E0
FFFFC0
FFFF80
FFF800
E00000
E00000
E00000
E00000
E00000
E00000
E00000
E00000
E00000
E00000
E00000
E00000
ENDCHAR
STARTCHAR 0051
ENCODING 81
SWIDTH 880 0
DWIDTH 37 0
BBX 33 33 2 -1
BITMAP
000FF80000
007FFF0000
00FFFFC000
03F007E000
07C001F000
0F00007800
1E00003C00
3C00001E00
3C00000E00
7800000F00
7000000700
7000000780
F000000380
E000000380
E000000380
E000000380
E000000380
E000000380
E000000380
E3FC000380
FFFFC00780
7FFFF00700
7C03F80700
78007E0F00
3C001F1E00
1E000F9E00
1F0003FC00
0F8001F800
07C001F000
03F807FC00
00FFFFFF80
003FFF1F80
000FF80780
ENDCHAR
STARTCHAR 0052
ENCODING 82
SWIDTH 619 0
DWIDTH 26 0
BBX 21 31 3 0
BITMAP
FFF800
FFFF80
FFFFC0
E007E0
E000F0
E00070
E00078
E00038
E00038
E00038
E00038
E00038
E00038
E00078
E00070
E000F0
E007E0
E1FFC0
E0FF00
E0F000
E07800
E03C00
E01C00
E01E00
E00F00
E00780
E00380
E003C0
E001E0
E000F0
E00070
ENDCHAR
STARTCHAR 0053
ENCODING 83
SWIDTH 500 0
DWIDTH 21 0
BBX 19 33 1 -1
BITMAP
01F800
07FE00
1FFF00
1E0F80
3C0780
3803C0
7001C0
7001C0
7001C0
700000
700000
780000
3C0000
3E0000
1FC000
0FF800
03FE00
003F80
000F80
0003C0
0001C0
0001E0
0000E0
0000E0
E000E0
F000E0
F001E0
7801C0
7803C0
3E0780
1FFF00
0FFE00
03F800
ENDCHAR
STARTCHAR 0054
ENCODING 84
SWIDTH 428 0
DWIDTH 18 0
BBX 18 31 0 0
BITMAP
FFFFC0
FFFFC0
FFFFC0
01E000
01E000
01E000
01E000
01E000
01E000
01E000
01E000
01E000
01E000
01E000
01E000
01E000
01E000
01E000
01E000
01E000
01E000
01E000
01E000
01E000
01E000
01E000
01E000
01E000
01E000
01E000
01E000
ENDCHAR
STARTCHAR 0055
ENCODING 85
SWIDTH 666 0
DWIDTH 28 0
BBX 21 32 3 -1
BITMAP
E00038
E00038
E00038
E00038
E00038
E00038
E00038
E00038
E00038
E00038
E00038
E00038
E00038
E00038
E00038
E00038
E00038
E00038
E00038
E00038
E00038
E00038
F00038
700038
700038
700070
780070
3C00F0
1E03E0
0FFFC0
07FF80
01FC00
ENDCHAR
STARTCHAR 0056
ENCODING 86
SWIDTH 690 0
DWIDTH 29 0
BBX 28 31 1 0
BITMAP
E00000F0
E00000E0
F00000E0
700001E0
780001C0
380003C0
38000380
3C000380
1C000780
1E000700
0E000F00
0E000E00
07000E00
07001C00
07801C00
03803C00
03803800
01C03800
01C07000
01E07000
00E0F000
00E0E000
0070E000
0071C000
0079C000
003B8000
003B8000
001F8000
001F0000
000F0000
000E0000
ENDCHAR
STARTCHAR 0057
ENCODING 87
SWIDTH 952 0
DWIDTH 40 0
BBX 39 31 1 0
BITMAP
E00038000E
E00078001C
E00078001C
F0007C001C
7000FC003C
7000FC0038
7000FC0038
3800EE0038
3801CE0070
3801CE0070
3C01CF0070
1C01C700F0
1C038700E0
1C038700E0
0E038380E0
0E070381C0
0E070381C0
0F070381C0
070701C3C0
070E01C380
070E01C380
038E01E380
039E00E700
039C00E700
03DC00E700
01DC00FF00
01FC007E00
01F8007E00
00F8007E00
00F8003C00
00F0003C00
ENDCHAR
STARTCHAR 0058
ENCODING 88
SWIDTH 619 0
DWIDTH 26 0
BBX 24 31 1 0
BITMAP
F0000E
78001E
38003C
3C0038
1E0078
0E00F0
0F00E0
0781E0
0783C0
03C380
01E780
01EF00
00FE00
007E00
007C00
003C00
007E00
00FE00
00EF00
01E780
03C380
0383C0
0781E0
0F00E0
0E00F0
1E0078
3C0038
38003C
78001E
F0000E
E0000F
ENDCHAR
STARTCHAR 0059
ENCODING 89
SWIDTH 595 0
DWIDTH 25 0
BBX 25 31 0 0
BITMAP
F0000780
70000700
78000E00
38000E00
3C001C00
1C001C00
1E003800
0E007800
0F007000
0700F000
0380E000
0381E000
01C1C000
01C3C000
00E38000
00E78000
00770000
007F0000
003E0000
003E0000
001C0000
001C0000
001C0000
001C0000
001C0000
001C0000
001C0000
001C0000
001C0000
001C0000
001C0000
ENDCHAR
STARTCHAR 005A
ENCODING 90
SWIDTH 476 0
DWIDTH 20 0
BBX 19 31 1 0
BITMAP
FFFFC0
FFFFC0
FFFFC0
0001C0
000380
000780
000700
000F00
000E00
001C00
003C00
003800
007800
007000
00E000
01E000
01C000
03C000
038000
070000
0F0000
0E0000
1E0000
1C0000
380000
780000
700000
F00000
FFFFE0
FFFFE0
FFFFE0
ENDCHAR
STARTCHAR 005B
ENCODING 91
SWIDTH 357 0
DWIDTH 15 0
BBX 10 39 3 -9
BITMAP
FFC0
FFC0
FFC0
F000
F000
F000
F000
F000
F000
F000
F000
F000
F000
F000
F000
F000
F000
F000
F000
F000
F000
F000
F000
F000
F000
F000
F000
F000
F000
F000
F000
F000
F000
F000
F000
F000
FFC0
FFC0
FFC0
ENDCHAR
STARTCHAR 005C
ENCODING 92
SWIDTH 523 0
DWIDTH 22 0
BBX 14 33 4 -6
BITMAP
E000
E000
F000
7000
7000
7800
3800
3800
3C00
1C00
1C00
1E00
0E00
0E00
0F00
0700
0700
0780
0380
0380
03C0
01C0
01C0
00E0
00E0
00F0
0070
0070
0078
0038
0038
003C
001C
ENDCHAR
STARTCHAR 005D
ENCODING 93
SWIDTH 357 0
DWIDTH 15 0
BBX 9 39 2 -9
BITMAP
FF80
FF80
FF80
0380
0380
0380
0380
0380
0380
0380
0380
0380
0380
0380
0380
0380
0380
0380
0380
0380
0380
0380
0380
0380
0380
0380
0380
0380
0380
0380
0380
0380
0380
0380
0380
0380
FF80
FF80
FF80
ENDCHAR
STARTCHAR 005E
ENCODING 94
SWIDTH 595 0
DWIDTH 25 0
BBX 23 23 1 8
BITMAP
003C00
007C00
007E00
00FE00
00EE00
00E700
01C700
01C380
03C380
0383C0
0781C0
0701E0
0700E0
0E00E0
0E00F0
1E0070
1C0078
3C0038
38003C
78001C
70001C
70001E
F0000E
ENDCHAR
STARTCHAR 005F
ENCODING 95
SWIDTH 500 0
DWIDTH 21 0
BBX 21 2 0 -5
BITMAP
FFFFF8
FFFFF8
ENDCHAR
STARTCHAR 0060
ENCODING 96
SWIDTH 380 0
DWIDTH 16 0
BBX 9 7 2 25
BITMAP
4000
F000
F800
3E00
1F80
0780
0100
ENDCHAR
STARTCHAR 0061
ENCODING 97
SWIDTH 690 0
DWIDTH 29 0
BBX 24 25 2 -1
BITMAP
007E00
03FFC7
0FFFE7
1F81F7
3E007F
3C003F
78001F
70000F
F0000F
E00007
E00007
E00007
E00007
E00007
E00007
E00007
F0000F
70000F
78001F
3C003F
3E007F
1F81F7
0FFFE7
03FFC7
00FF00
ENDCHAR
STARTCHAR 0062
ENCODING 98
SWIDTH 690 0
DWIDTH 29 0
BBX 24 32 3 -1
BITMAP
E00000
E00000
E00000
E00000
E00000
E00000
E00000
E0FE00
E3FFC0
E7FFE0
EF01F0
FE0078
F8003C
F0001E
F0000E
E0000E
E0000F
E00007
E00007
E00007
E00007
E00007
E0000F
E0000E
F0000E
F8001E
FC003C
FE0078
EF01F0
E7FFE0
E3FFC0
00FE00
ENDCHAR
STARTCHAR 0063
ENCODING 99
SWIDTH 642 0
DWIDTH 27 0
BBX 24 25 2 -1
BITMAP
007F00
03FFC0
07FFF0
1F81F8
1E007C
3C003C
78001E
70000E
F00000
E00000
E00000
E00000
E00000
E00000
E00000
E00000
F00000
70000F
78001E
3C003C
1E007C
1F80F8
07FFF0
03FFC0
007F00
ENDCHAR
STARTCHAR 0064
ENCODING 100
SWIDTH 690 0
DWIDTH 29 0
BBX 24 32 2 -1
BITMAP
000007
000007
000007
000007
000007
000007
000007
007F07
03FFC7
07FFE7
1F81F7
3E007F
3C003F
78001F
70000F
F0000F
E00007
E00007
E00007
E00007
E00007
E00007
E00007
F0000F
70000F
78001F
3C003F
3E007F
1F81F7
07FFE7
03FFC7
007F00
ENDCHAR
STARTCHAR 0065
ENCODING 101
SWIDTH 642 0
DWIDTH 27 0
BBX 24 25 2 -1
BITMAP
00FE00
03FFC0
07FFE0
1F01F0
1E0078
3C003C
78001C
70001E
F0000E
E0000E
E0000E
FFFFFF
FFFFFF
FFFFFF
E00000
E00000
F00000
70000E
78001C
38003C
3E0078
1F01F0
0FFFE0
03FF80
00FE00
ENDCHAR
STARTCHAR 0066
ENCODING 102
SWIDTH 309 0
DWIDTH 13 0
BBX 12 31 1 0
BITMAP
00F0
03F0
07F0
0F00
0E00
0E00
1C00
1C00
FFF0
FFF0
FFF0
1C00
1C00
1C00
1C00
1C00
1C00
1C00
1C00
1C00
1C00
1C00
1C00
1C00
1C00
1C00
1C00
1C00
1C00
1C00
1C00
ENDCHAR
STARTCHAR 0067
ENCODING 103
SWIDTH 666 0
DWIDTH 28 0
BBX 24 34 2 -10
BITMAP
00FE00
03FF87
0FFFC7
1F01E7
3E0077
38003F
78001F
70001F
F0000F
E0000F
E0000F
E0000F
E00007
E0000F
E0000F
E0000F
F0000F
70001F
78001F
3C003F
3E0077
1F81E7
0FFFEF
03FF8F
00FE0E
70000E
70000E
78001E
3C003C
1E007C
1F81F8
07FFF0
03FFC0
007E00
ENDCHAR
STARTCHAR 0068
ENCODING 104
SWIDTH 619 0
DWIDTH 26 0
BBX 20 31 3 0
BITMAP
E00000
E00000
E00000
E00000
E00000
E00000
E00000
E1FC00
E7FF00
EFFF80
FE07C0
F803E0
F001E0
F000E0
E000F0
E00070
E00070
E00070
E00070
E00070
E00070
E00070
E00070
E00070
E00070
E00070
E00070
E00070
E00070
E00070
E00070
ENDCHAR
STARTCHAR 0069
ENCODING 105
SWIDTH 190 0
DWIDTH 8 0
BBX 3 31 3 0
BITMAP
E0
E0
E0
E0
E0
00
00
00
E0
E0
E0
E0
E0
E0
E0
E0
E0
E0
E0
E0
E0
E0
E0
E0
E0
E0
E0
E0
E0
E0
E0
ENDCHAR
STARTCHAR 006A
ENCODING 106
SWIDTH 214 0
DWIDTH 9 0
BBX 8 39 -2 -8
BITMAP
07
07
07
07
07
00
00
00
07
07
07
07
07
07
07
07
07
07
07
07
07
07
07
07
07
07
07
07
07
07
07
07
07
0E
0E
3E
FC
F8
E0
ENDCHAR
STARTCHAR 006B
ENCODING 107
SWIDTH 500 0
DWIDTH 21 0
BBX 17 31 3 0
BITMAP
E00000
E00000
E00000
E00000
E00000
E00000
E00000
E00000
E00780
E00F00
E00E00
E01E00
E03C00
E07800
E0F000
E0E000
E1E000
E3C000
E78000
E70000
EF8000
FFC000
FDE000
F8F000
F07000
E07800
E03C00
E01E00
E00F00
E00780
E00380
ENDCHAR
STARTCHAR 006C
ENCODING 108
SWIDTH 190 0
DWIDTH 8 0
BBX 3 31 3 0
BITMAP
E0
E0
E0
E0
E0
E0
E0
E0
E0
E0
E0
E0
E0
E0
E0
E0
E0
E0
E0
E0
E0
E0
E0
E0
E0
E0
E0
E0
E0
E0
E0
ENDCHAR
STARTCHAR 006D
ENCODING 109
SWIDTH 928 0
DWIDTH 39 0
BBX 34 24 3 0
BITMAP
03F007F000
EFFC1FFC00
FFFE3FFE00
FC0F780F00
F807F00780
F003E00380
E001E00380
E001E003C0
E001C001C0
E001C001C0
E001C001C0
E001C001C0
E001C001C0
E001C001C0
E001C001C0
E001C001C0
E001C001C0
E001C001C0
E001C001C0
E001C001C0
E001C001C0
E001C001C0
E001C001C0
E001C001C0
ENDCHAR
STARTCHAR 006E
ENCODING 110
SWIDTH 619 0
DWIDTH 26 0
BBX 20 24 3 0
BITMAP
01FC00
E7FF00
EFFF80
FC07C0
F801E0
F001E0
F000E0
E000F0
E00070
E00070
E00070
E00070
E00070
E00070
E00070
E00070
E00070
E00070
E00070
E00070
E00070
E00070
E00070
E00070
ENDCHAR
STARTCHAR 006F
ENCODING 111
SWIDTH 666 0
DWIDTH 28 0
BBX 24 25 2 -1
BITMAP
00FF00
03FFC0
0FFFE0
1F01F0
3E0078
3C003C
78001C
70001E
F0000E
E0000E
E0000F
E00007
E00007
E00007
E0000F
E0000E
F0000E
70000E
78001C
3C003C
3E0078
1F81F0
0FFFE0
03FFC0
00FE00
ENDCHAR
STARTCHAR 0070
ENCODING 112
SWIDTH 690 0
DWIDTH 29 0
BBX 24 32 3 -8
BITMAP
00FE00
E3FFC0
E7FFE0
EF01F0
FE0078
F8003C
F8001E
F0001E
E0000E
E0000F
E00007
E00007
E00007
E00007
E00007
E0000F
E0000E
F0000E
F8001C
F8003C
FE0078
EF01F0
E7FFE0
E3FFC0
E0FE00
E00000
E00000
E00000
E00000
E00000
E00000
E00000
ENDCHAR
STARTCHAR 0071
ENCODING 113
SWIDTH 690 0
DWIDTH 29 0
BBX 24 32 2 -8
BITMAP
007E00
03FFC7
07FFE7
1F81F7
3E007F
3C003F
78001F
70000F
F0000F
E00007
E00007
E00007
E00007
E00007
E00007
E00007
F0000F
70000F
78001F
3C003F
3E007F
1F81F7
0FFFE7
03FFC7
00FE07
000007
000007
000007
000007
000007
000007
000007
ENDCHAR
STARTCHAR 0072
ENCODING 114
SWIDTH 309 0
DWIDTH 13 0
BBX 9 24 3 0
BITMAP
0180
E780
EF80
FE00
F800
F000
F000
E000
E000
E000
E000
E000
E000
E000
E000
E000
E000
E000
E000
E000
E000
E000
E000
E000
ENDCHAR
STARTCHAR 0073
ENCODING 115
SWIDTH 380 0
DWIDTH 16 0
BBX 14 25 1 -1
BITMAP
07C0
1FE0
3FF0
7878
7038
703C
7000
7000
7800
7C00
3F00
1FC0
07F0
01F8
007C
003C
001C
E01C
E01C
E01C
F03C
7878
7FF8
3FF0
0FC0
ENDCHAR
STARTCHAR 0074
ENCODING 116
SWIDTH 333 0
DWIDTH 14 0
BBX 13 31 1 0
BITMAP
0F00
0F00
0F00
0F00
0F00
0F00
0F00
0F00
FFF8
FFF8
FFF8
0F00
0F00
0F00
0F00
0F00
0F00
0F00
0F00
0F00
0F00
0F00
0F00
0F00
0F00
0F00
0F00
0F00
0F00
0F00
0F00
ENDCHAR
STARTCHAR 0075
ENCODING 117
SWIDTH 619 0
DWIDTH 26 0
BBX 20 24 3 -1
BITMAP
E00070
E00070
E00070
E00070
E00070
E00070
E00070
E00070
E00070
E00070
E00070
E00070
E00070
E00070
E00070
E000F0
E000F0
F000F0
7001F0
7803F0
3C0770
3FFF70
0FFE70
03F800
ENDCHAR
STARTCHAR 0076
ENCODING 118
SWIDTH 547 0
DWIDTH 23 0
BBX 22 23 1 0
BITMAP
E0001C
E00038
F00038
700070
700070
3800F0
3800E0
3C00E0
1C01C0
1C01C0
0E03C0
0E0380
070780
070700
078700
038E00
038E00
01DE00
01DC00
01FC00
00F800
00F800
007000
ENDCHAR
STARTCHAR 0077
ENCODING 119
SWIDTH 833 0
DWIDTH 35 0
BBX 34 23 0 0
BITMAP
F0000001C0
70000001C0
70000001C0
3800E00380
3800E00380
3801F00700
1C01F00700
1C01F00700
0E03B80E00
0E03B80E00
0E03380E00
07071C1C00
07071C1C00
07871C3800
038E0E3800
038E0E3800
01CE0E7000
01DC077000
01DC07E000
00FC07E000
00F803E000
00F803C000
007803C000
ENDCHAR
STARTCHAR 0078
ENCODING 120
SWIDTH 476 0
DWIDTH 20 0
BBX 18 23 1 0
BITMAP
E001C0
F003C0
780380
380700
1C0F00
1E1E00
0E1C00
073800
07F800
03F000
01E000
01E000
03F000
03F000
07B800
0F3C00
0E1C00
1E0E00
3C0F00
380700
780380
F003C0
E001C0
ENDCHAR
STARTCHAR 0079
ENCODING 121
SWIDTH 547 0
DWIDTH 23 0
BBX 21 31 1 -8
BITMAP
E00038
E00070
F00070
7000F0
7800E0
3801E0
3801C0
3C01C0
1C0380
1E0380
0E0780
0E0700
0F0700
070E00
078E00
039C00
039C00
03FC00
01F800
01F800
00F000
00F000
00F000
00E000
01E000
01C000
03C000
038000
038000
078000
070000
ENDCHAR
STARTCHAR 007A
ENCODING 122
SWIDTH 428 0
DWIDTH 18 0
BBX 17 23 0 0
BITMAP
7FFF80
7FFF80
7FFF80
000700
000E00
001E00
003C00
003800
007000
00F000
01E000
01C000
03C000
078000
070000
0E0000
1E0000
3C0000
380000
780000
FFFF80
FFFF80
FFFF80
ENDCHAR
STARTCHAR 007B
ENCODING 123
SWIDTH 357 0
DWIDTH 15 0
BBX 12 39 2 -9
BITMAP
0070
01F0
03F0
0780
0F00
0E00
0E00
0E00
0E00
0E00
0E00
0E00
0E00
0E00
0E00
0E00
1E00
3E00
FC00
F800
FC00
3E00
0E00
0E00
0E00
0E00
0E00
0E00
0E00
0E00
0E00
0E00
0E00
0E00
0F00
0780
03F0
01F0
0070
ENDCHAR
STARTCHAR 007C
ENCODING 124
SWIDTH 238 0
DWIDTH 10 0
BBX 3 33 3 -6
BITMAP
E0
E0
E0
E0
E0
E0
E0
E0
E0
E0
E0
E0
E0
E0
E0
E0
E0
E0
E0
E0
E0
E0
E0
E0
E0
E0
E0
E0
E0
E0
E0
E0
E0
ENDCHAR
STARTCHAR 007D
ENCODING 125
SWIDTH 357 0
DWIDTH 15 0
BBX 12 39 2 -9
BITMAP
E000
F800
FC00
3E00
0E00
0E00
0E00
0E00
0E00
0E00
0E00
0E00
0E00
0E00
0E00
0E00
0F00
0780
03F0
01F0
03F0
0780
0F00
0E00
0E00
0E00
0E00
0E00
0E00
0E00
0E00
0E00
0E00
0E00
0E00
1E00
FC00
F800
E000
ENDCHAR
STARTCHAR 007E
ENCODING 126
SWIDTH 595 0
DWIDTH 25 0
BBX 21 7 2 9
BITMAP
0F8010
1FE038
3FF878
78FFF0
F03FE0
6007C0
400000
ENDCHAR
STARTCHAR 00A0
ENCODING 160
SWIDTH 285 0
DWIDTH 12 0
BBX 0 0 0 0
BITMAP
ENDCHAR
STARTCHAR 00A1
ENCODING 161
SWIDTH 285 0
DWIDTH 12 0
BBX 3 31 5 -8
BITMAP
E0
E0
E0
E0
E0
00
00
00
E0
E0
E0
E0
E0
E0
E0
E0
E0
E0
E0
E0
E0
E0
E0
E0
E0
E0
E0
E0
E0
E0
E0
ENDCHAR
STARTCHAR 00A2
ENCODING 162
SWIDTH 547 0
DWIDTH 23 0
BBX 19 28 2 2
BITMAP
007000
007000
007000
007000
01F800
07FE00
1FFF80
3E0FC0
3803C0
7801E0
F000E0
E00000
E00000
E00000
E00000
E00000
E00000
F00000
7801E0
3C03C0
3E07C0
1FFF80
07FE00
01F800
007000
007000
007000
007000
ENDCHAR
STARTCHAR 00A3
ENCODING 163
SWIDTH 547 0
DWIDTH 23 0
BBX 24 32 1 0
BITMAP
007E00
01FFC0
07FFE0
0F81F0
0E0078
1C0038
1C003C
38001C
38001C
380000
380000
380000
3C0000
1C0000
FFFFC0
FFFFC0
FFFFC0
03C000
01C000
01E000
00E00F
007007
007007
007007
007007
00700F
00700E
00F01E
00E07C
7FFFF8
7FFFF0
7FFF80
ENDCHAR
STARTCHAR 00A4
ENCODING 164
SWIDTH 547 0
DWIDTH 23 0
BBX 21 21 1 2
BITMAP
21FC20
77FF70
FFFFF8
7F03F0
3C01E0
7800F0
700078
F00038
E00038
E00038
E00038
E00038
E00038
F00038
700078
7800F0
3C01E0
7F07F0
FFFFF8
77FF30
21FC00
ENDCHAR
STARTCHAR 00A5
ENCODING 165
SWIDTH 547 0
DWIDTH 23 0
BBX 24 31 0 0
BITMAP
E00007
700007
78000E
38000E
3C001C
1C001C
0E0038
0E0038
070070
070070
0380E0
3F81FE
3FC1FE
3FE3FE
00E380
00F700
007700
007E00
3FFFFE
3FFFFE
3FFFFE
001C00
001C00
001C00
001C00
001C00
001C00
001C00
001C00
001C00
001C00
ENDCHAR
STARTCHAR 00A6
ENCODING 166
SWIDTH 595 0
DWIDTH 25 0
BBX 3 36 11 -5
BITMAP
E0
E0
E0
E0
E0
E0
E0
E0
E0
E0
E0
E0
E0
E0
E0
00
00
00
00
00
00
00
E0
E0
E0
E0
E0
E0
E0
E0
E0
E0
E0
E0
E0
E0
ENDCHAR
STARTCHAR 00A7
ENCODING 167
SWIDTH 619 0
DWIDTH 26 0
BBX 18 38 4 -6
BITMAP
03F000
0FFC00
1FFE00
1C0F00
380700
380700
380000
380000
380000
3C0000
1E0000
1F8000
3FE000
71F800
E07E00
E01F00
E00780
E003C0
E001C0
F001C0
F801C0
7E01C0
1F81C0
07F380
01FF00
007E00
001F00
000F00
000780
E00380
700380
700380
700380
380700
3C0F00
1FFE00
0FFC00
03F000
ENDCHAR
STARTCHAR 00A8
ENCODING 168
SWIDTH 380 0
DWIDTH 16 0
BBX 9 5 3 26
BITMAP
E380
E380
E380
E380
E380
ENDCHAR
STARTCHAR 00A9
ENCODING 169
SWIDTH 738 0
DWIDTH 31 0
BBX 30 31 1 -1
BITMAP
001FE000
00FFF800
01C01E00
07000700
0C000180
180000C0
180FE060
303FF830
20F87C30
61E00E10
41C00718
C3800718
C3000008
C700000C
8700000C
8700000C
C700000C
C7000008
C3000008
C3800308
41C00718
61E00E10
60F83C30
303FF820
180FE060
180000C0
0E000180
07000300
01C00E00
00FFF800
001FC000
ENDCHAR
STARTCHAR 00AA
ENCODING 170
SWIDTH 380 0
DWIDTH 16 0
BBX 13 18 1 13
BITMAP
0F98
1FD8
38F8
7038
6038
E018
E018
E018
6038
7038
38F8
1FD8
0F98
0000
0000
0000
FFF8
FFF8
ENDCHAR
STARTCHAR 00AB
ENCODING 171
SWIDTH 428 0
DWIDTH 18 0
BBX 14 17 2 4
BITMAP
0818
0E1C
1C3C
3C38
3870
7870
70E0
E1E0
E1C0
F1E0
70E0
7870
3878
1C38
1C3C
0E1C
0810
ENDCHAR
STARTCHAR 00AC
ENCODING 172
SWIDTH 761 0
DWIDTH 32 0
BBX 25 12 3 0
BITMAP
FFFFFF80
FFFFFF80
FFFFFF80
00000380
00000380
00000380
00000380
00000380
00000380
00000380
00000380
00000380
ENDCHAR
STARTCHAR 00AD
ENCODING 173
SWIDTH 333 0
DWIDTH 14 0
BBX 12 3 1 10
BITMAP
FFF0
FFF0
FFF0
ENDCHAR
STARTCHAR 00AE
ENCODING 174
SWIDTH 738 0
DWIDTH 31 0
BBX 30 30 1 -1
BITMAP
001FE000
00FFF800
03C00E00
07000300
0C000180
180000C0
30FF8060
30FFE030
60E0F030
60E03818
40E01818
C0E01808
C0E01808
C0E0380C
80E0380C
80EFF00C
C0EFE00C
C0E70008
C0E38008
40E1C018
60E0E018
60E0E030
30E07030
10E03860
180000C0
0E000180
07000300
03C00E00
00FFF800
001FC000
ENDCHAR
STARTCHAR 00AF
ENCODING 175
SWIDTH 476 0
DWIDTH 20 0
BBX 14 3 3 27
BITMAP
FFFC
FFFC
FFFC
ENDCHAR
STARTCHAR 00B0
ENCODING 176
SWIDTH 404 0
DWIDTH 17 0
BBX 13 13 2 18
BITMAP
0F80
3FE0
7DF0
7070
E030
E038
C038
E038
E030
7070
7DE0
3FC0
0F80
ENDCHAR
STARTCHAR 00B1
ENCODING 177
SWIDTH 714 0
DWIDTH 30 0
BBX 24 30 3 -8
BITMAP
001C00
001C00
001C00
001C00
001C00
001C00
001C00
001C00
001C00
001C00
FFFFFF
FFFFFF
FFFFFF
001C00
001C00
001C00
001C00
001C00
001C00
001C00
001C00
001C00
001C00
000000
000000
000000
000000
FFFFFF
FFFFFF
FFFFFF
ENDCHAR
STARTCHAR 00B2
ENCODING 178
SWIDTH 333 0
DWIDTH 14 0
BBX 12 19 1 13
BITMAP
1F80
3FC0
79E0
E070
E030
C030
C030
0030
0070
00E0
01C0
0380
0700
1E00
3C00
7800
F000
FFF0
FFF0
ENDCHAR
STARTCHAR 00B3
ENCODING 179
SWIDTH 333 0
DWIDTH 14 0
BBX 12 20 1 12
BITMAP
0F00
3FC0
39E0
70E0
7060
6060
00E0
01E0
0FC0
0FC0
00E0
0070
0030
C030
C030
E070
E070
79E0
3FC0
1F00
ENDCHAR
STARTCHAR 00B4
ENCODING 180
SWIDTH 380 0
DWIDTH 16 0
BBX 9 7 5 25
BITMAP
0100
0780
1F80
3E00
F800
F000
4000
ENDCHAR
STARTCHAR 00B5
ENCODING 181
SWIDTH 619 0
DWIDTH 26 0
BBX 20 30 3 -7
BITMAP
E00070
E00070
E00070
E00070
E00070
E00070
E00070
E00070
E00070
E00070
E00070
E00070
E00070
E000F0
F000F0
F000F0
F001F0
F801F0
FC03F0
FF0F70
EFFF70
E7FC70
E1F870
E00000
E00000
E00000
E00000
E00000
E00000
E00000
ENDCHAR
STARTCHAR 00B6
ENCODING 182
SWIDTH 571 0
DWIDTH 24 0
BBX 19 37 2 -6
BITMAP
07FFE0
1FFFE0
3FFFE0
7FE1E0
FFE1E0
FFE1E0
FFE1E0
FFE1E0
FFE1E0
FFE1E0
FFE1E0
FFE1E0
7FE1E0
3FE1E0
1FE1E0
07E1E0
00E1E0
00E1E0
00E1E0
00E1E0
00E1E0
00E1E0
00E1E0
00E1E0
00E1E0
00E1E0
00E1E0
00E1E0
00E1E0
00E1E0
00E1E0
00E1E0
00E1E0
00E1E0
00E1E0
00E1E0
00E1E0
ENDCHAR
STARTCHAR 00B7
ENCODING 183
SWIDTH 238 0
DWIDTH 10 0
BBX 3 5 3 8
BITMAP
E0
E0
E0
E0
E0
ENDCHAR
STARTCHAR 00B8
ENCODING 184
SWIDTH 333 0
DWIDTH 14 0
BBX 8 10 4 -10
BITMAP
30
60
7C
FE
47
03
03
C7
FE
7C
ENDCHAR
STARTCHAR 00B9
ENCODING 185
SWIDTH 333 0
DWIDTH 14 0
BBX 6 19 4 12
BITMAP
FC
FC
1C
1C
1C
1C
1C
1C
1C
1C
1C
1C
1C
1C
1C
1C
1C
1C
1C
ENDCHAR
STARTCHAR 00BA
ENCODING 186
SWIDTH 380 0
DWIDTH 16 0
BBX 13 18 1 13
BITMAP
0F80
1FE0
3870
7030
6038
E018
E018
E018
6018
7030
3870
1FE0
0F80
0000
0000
0000
FFF8
FFF8
ENDCHAR
STARTCHAR 00BB
ENCODING 187
SWIDTH 428 0
DWIDTH 18 0
BBX 14 17 2 4
BITMAP
4040
E1C0
F0E0
70E0
7870
3878
1C38
1C3C
0E1C
1C3C
3C38
3870
7870
70E0
F1E0
E1C0
0040
ENDCHAR
STARTCHAR 00BC
ENCODING 188
SWIDTH 833 0
DWIDTH 35 0
BBX 30 31 4 0
BITMAP
FC001800
FC003800
1C003000
1C003000
1C006000
1C006000
1C00C000
1C00C000
1C01C000
1C018000
1C038000
1C030000
1C070070
1C0600F0
1C0E00F0
1C0C01F0
1C0C03F0
1C180370
1C180770
00300E70
00301C70
00701C70
00603870
00E07070
00C07070
01C0E070
0180FFFC
0380FFFC
03000070
03000070
06000070
ENDCHAR
STARTCHAR 00BD
ENCODING 189
SWIDTH 833 0
DWIDTH 35 0
BBX 30 31 4 0
BITMAP
FC001800
FC003800
1C003000
1C007000
1C006000
1C00E000
1C00C000
1C01C000
1C018000
1C018000
1C030000
1C030000
1C0607E0
1C061FF0
1C0E3C38
1C0C381C
1C1C301C
1C18300C
1C38700C
0030001C
00700038
00600078
006000F0
00C001E0
00C003C0
01800700
01800E00
03801C00
03003800
07007FFC
06007FFC
ENDCHAR
STARTCHAR 00BE
ENCODING 190
SWIDTH 833 0
DWIDTH 35 0
BBX 33 32 1 0
BITMAP
0F00000000
3FC0018000
39E0018000
70E0038000
7060030000
6060070000
00E0060000
01E00E0000
0FC00C0000
0FC01C0000
00E0180000
0070180000
0030300000
C030300E00
C030601E00
E070603E00
E070C03E00
79E0C07E00
3FC1C0EE00
1F0181CE00
000381CE00
0003038E00
0007070E00
0006070E00
000E0E0E00
000C1C0E00
000C1FFF80
00181FFF80
0018000E00
0030000E00
0030000E00
0070000E00
ENDCHAR
STARTCHAR 00BF
ENCODING 191
SWIDTH 595 0
DWIDTH 25 0
BBX 19 32 3 -9
BITMAP
00E000
00E000
00E000
00E000
00E000
000000
000000
000000
00E000
00E000
01E000
01C000
03C000
038000
078000
1F0000
3E0000
3C0000
780000
F00000
E00000
E000E0
E000E0
E000E0
E000E0
F001E0
7001C0
7803C0
3E0F80
1FFF00
0FFE00
01F000
ENDCHAR
STARTCHAR 00C0
ENCODING 192
SWIDTH 738 0
DWIDTH 31 0
BBX 29 40 1 0
BITMAP
00400000
00700000
00F80000
003E0000
001F8000
00078000
00018000
00000000
00000000
00070000
000F8000
000F8000
001FC000
001DC000
003DE000
0038E000
0038E000
00707000
00707000
00F07800
00E03800
01E03C00
01C01C00
01C01E00
03C01E00
03800E00
07800F00
07FFFF00
0FFFFF80
0FFFFF80
0E0003C0
1E0003C0
1C0001C0
3C0001E0
380000E0
780000F0
70000070
70000078
E0000038
E0000038
ENDCHAR
STARTCHAR 00C1
ENCODING 193
SWIDTH 738 0
DWIDTH 31 0
BBX 29 40 1 0
BITMAP
00001000
00007000
0000F800
0003E000
000FC000
000F0000
000C0000
00000000
00000000
00070000
000F8000
000F8000
001FC000
001DC000
003DE000
0038E000
0038E000
00707000
00707000
00F07800
00E03800
01E03C00
01C01C00
01C01E00
03C01E00
03800E00
07800F00
07FFFF00
0FFFFF80
0FFFFF80
0E0003C0
1E0003C0
1C0001C0
3C0001E0
380000E0
780000F0
70000070
70000078
E0000038
E0000038
ENDCHAR
STARTCHAR 00C2
ENCODING 194
SWIDTH 738 0
DWIDTH 31 0
BBX 29 38 1 0
BITMAP
000F8000
001FC000
003DE000
00787000
00E03C00
00000000
00000000
00070000
000F8000
000F8000
001FC000
001DC000
003DE000
0038E000
0038E000
00707000
00707000
00F07800
00E03800
01E03C00
01C01C00
01C01E00
03C01E00
03800E00
07800F00
07FFFF00
0FFFFF80
0FFFFF80
0E0003C0
1E0003C0
1C0001C0
3C0001E0
380000E0
780000F0
70000070
70000078
E0000038
E0000038
ENDCHAR
STARTCHAR 00C3
ENCODING 195
SWIDTH 738 0
DWIDTH 31 0
BBX 29 38 1 0
BITMAP
003C1000
007F3000
007FF800
0043F000
00004000
00000000
00000000
00070000
000F8000
000F8000
001FC000
001DC000
003DE000
0038E000
0038E000
00707000
00707000
00F07800
00E03800
01E03C00
01C01C00
01C01E00
03C01E00
03800E00
07800F00
07FFFF00
0FFFFF80
0FFFFF80
0E0003C0
1E0003C0
1C0001C0
3C0001E0
380000E0
780000F0
70000070
70000078
E0000038
E0000038
ENDCHAR
STARTCHAR 00C4
ENCODING 196
SWIDTH 738 0
DWIDTH 31 0
BBX 29 38 1 0
BITMAP
0038E000
0038E000
0038E000
0038E000
0038E000
00000000
00000000
00070000
000F8000
000F8000
001FC000
001DC000
003DE000
0038E000
0038E000
00707000
00707000
00F07800
00E03800
01E03C00
01C01C00
01C01E00
03C01E00
03800E00
07800F00
07FFFF00
0FFFFF80
0FFFFF80
0E0003C0
1E0003C0
1C0001C0
3C0001E0
380000E0
780000F0
70000070
70000078
E0000038
E0000038
ENDCHAR
STARTCHAR 00C5
ENCODING 197
SWIDTH 738 0
DWIDTH 31 0
BBX 29 42 1 0
BITMAP
00070000
001FC000
0018C000
00306000
00306000
00306000
0018C000
001FC000
00070000
00000000
00000000
00070000
000F8000
000F8000
001FC000
001DC000
003DE000
0038E000
0038E000
00707000
00707000
00F07800
00E03800
01E03C00
01C01C00
01C01E00
03C01E00
03800E00
07800F00
07FFFF00
0FFFFF80
0FFFFF80
0E0003C0
1E0003C0
1C0001C0
3C0001E0
380000E0
780000F0
70000070
70000078
E0000038
E0000038
ENDCHAR
STARTCHAR 00C6
ENCODING 198
SWIDTH 1000 0
DWIDTH 42 0
BBX 38 31 1 0
BITMAP
000007FFFC
00000FFFFC
00001FFFFC
00001F8000
00003B8000
00007B8000
0000F38000
0000E38000
0001E38000
0003C38000
0003838000
0007838000
000F038000
000E038000
001E03FFFC
003C03FFFC
007803FFFC
0078038000
00FFFF8000
01FFFF8000
01FFFF8000
03C0038000
0780038000
0780038000
0F00038000
1E00038000
1C00038000
3C00038000
780003FFFC
F00003FFFC
F00003FFFC
ENDCHAR
STARTCHAR 00C7
ENCODING 199
SWIDTH 809 0
DWIDTH 34 0
BBX 30 42 2 -10
BITMAP
000FF000
007FFE00
01FFFF80
03F00FC0
07C003E0
0F0000F0
1E000078
3C00003C
3800003C
78000000
70000000
70000000
F0000000
E0000000
E0000000
E0000000
E0000000
E0000000
E0000000
E0000000
F0000000
70000000
78000000
78000000
3C00003C
1E000078
1F0000F8
0F8001F0
07E003E0
03FE7FC0
00FFFF00
003FFC00
00018000
00018000
0003F000
0007F800
00033800
00001800
00001800
00073800
0007F800
0003F000
ENDCHAR
STARTCHAR 00C8
ENCODING 200
SWIDTH 547 0
DWIDTH 23 0
BBX 17 39 3 1
BITMAP
1C0000
3F0000
0F8000
07E000
01F000
006000
000000
000000
FFFF80
FFFF80
FFFF80
E00000
E00000
E00000
E00000
E00000
E00000
E00000
E00000
E00000
E00000
E00000
FFFF80
FFFF80
FFFF80
E00000
E00000
E00000
E00000
E00000
E00000
E00000
E00000
E00000
E00000
E00000
FFFF80
FFFF80
FFFF80
ENDCHAR
STARTCHAR 00C9
ENCODING 201
SWIDTH 547 0
DWIDTH 23 0
BBX 17 40 3 0
BITMAP
000400
001C00
003E00
00FC00
03F000
03C000
038000
000000
000000
FFFF80
FFFF80
FFFF80
E00000
E00000
E00000
E00000
E00000
E00000
E00000
E00000
E00000
E00000
E00000
FFFF80
FFFF80
FFFF80
E00000
E00000
E00000
E00000
E00000
E00000
E00000
E00000
E00000
E00000
E00000
FFFF80
FFFF80
FFFF80
ENDCHAR
STARTCHAR 00CA
ENCODING 202
SWIDTH 547 0
DWIDTH 23 0
BBX 17 38 3 0
BITMAP
03E000
07F000
0F3800
1E1E00
3C0F00
000000
000000
FFFF80
FFFF80
FFFF80
E00000
E00000
E00000
E00000
E00000
E00000
E00000
E00000
E00000
E00000
E00000
FFFF80
FFFF80
FFFF80
E00000
E00000
E00000
E00000
E00000
E00000
E00000
E00000
E00000
E00000
E00000
FFFF80
FFFF80
FFFF80
ENDCHAR
STARTCHAR 00CB
ENCODING 203
SWIDTH 547 0
DWIDTH 23 0
BBX 17 38 3 0
BITMAP
0E3800
0E3800
0E3800
0E3800
0E3800
000000
000000
FFFF80
FFFF80
FFFF80
E00000
E00000
E00000
E00000
E00000
E00000
E00000
E00000
E00000
E00000
E00000
FFFF80
FFFF80
FFFF80
E00000
E00000
E00000
E00000
E00000
E00000
E00000
E00000
E00000
E00000
E00000
FFFF80
FFFF80
FFFF80
ENDCHAR
STARTCHAR 00CC
ENCODING 204
SWIDTH 214 0
DWIDTH 9 0
BBX 9 40 -2 0
BITMAP
4000
7000
F800
3E00
1F80
0780
0180
0000
0000
0700
0700
0700
0700
0700
0700
0700
0700
0700
0700
0700
0700
0700
0700
0700
0700
0700
0700
0700
0700
0700
0700
0700
0700
0700
0700
0700
0700
0700
0700
0700
ENDCHAR
STARTCHAR 00CD
ENCODING 205
SWIDTH 214 0
DWIDTH 9 0
BBX 9 40 2 0
BITMAP
0100
0380
0F80
3F00
7C00
F000
6000
0000
0000
7000
7000
7000
7000
7000
7000
7000
7000
7000
7000
7000
7000
7000
7000
7000
7000
7000
7000
7000
7000
7000
7000
7000
7000
7000
7000
7000
7000
7000
7000
7000
ENDCHAR
STARTCHAR 00CE
ENCODING 206
SWIDTH 214 0
DWIDTH 9 0
BBX 14 38 -2 0
BITMAP
0F80
1FC0
3CE0
7878
F03C
0000
0000
0700
0700
0700
0700
0700
0700
0700
0700
0700
0700
0700
0700
0700
0700
0700
0700
0700
0700
0700
0700
0700
0700
0700
0700
0700
0700
0700
0700
0700
0700
0700
ENDCHAR
STARTCHAR 00CF
ENCODING 207
SWIDTH 214 0
DWIDTH 9 0
BBX 9 38 0 0
BITMAP
E380
E380
E380
E380
E380
0000
0000
1C00
1C00
1C00
1C00
1C00
1C00
1C00
1C00
1C00
1C00
1C00
1C00
1C00
1C00
1C00
1C00
1C00
1C00
1C00
1C00
1C00
1C00
1C00
1C00
1C00
1C00
1C00
1C00
1C00
1C00
1C00
ENDCHAR
STARTCHAR 00D0
ENCODING 208
SWIDTH 785 0
DWIDTH 33 0
BBX 30 31 1 0
BITMAP
0FFFC000
0FFFF800
0FFFFE00
0E003F80
0E0007C0
0E0003E0
0E0000F0
0E0000F0
0E000078
0E000038
0E00003C
0E00001C
0E00001C
0E00001C
FFFF001C
FFFF001C
FFFF001C
0E00001C
0E00001C
0E00001C
0E00003C
0E000038
0E000078
0E000078
0E0000F0
0E0001E0
0E0007C0
0E001F80
0FFFFE00
0FFFF800
0FFFC000
ENDCHAR
STARTCHAR 00D1
ENCODING 209
SWIDTH 738 0
DWIDTH 31 0
BBX 25 38 3 0
BITMAP
00F04000
01FCC000
01FFE000
010FC000
00010000
00000000
00000000
F8000380
F8000380
FC000380
FE000380
EE000380
EF000380
E7800380
E3800380
E1C00380
E1E00380
E0F00380
E0700380
E0780380
E03C0380
E01C0380
E01E0380
E00F0380
E0070380
E0078380
E003C380
E001C380
E001E380
E000F380
E0007380
E0007B80
E0003F80
E0001F80
E0001F80
E0000F80
E0000780
E0000780
ENDCHAR
STARTCHAR 00D2
ENCODING 210
SWIDTH 880 0
DWIDTH 37 0
BBX 33 41 2 -1
BITMAP
0018000000
003C000000
003F000000
000FC00000
0003E00000
0001E00000
0000400000
0000000000
000FF00000
003FFE0000
00FFFF8000
03F00FC000
07C003F000
0F8000F800
1E00007800
1C00003C00
3C00001E00
7800000E00
7000000F00
7000000700
F000000700
E000000700
E000000780
E000000780
E000000780
E000000780
E000000780
E000000700
F000000700
7000000700
7000000F00
7800000E00
3C00001E00
1C00003C00
1E00007800
0F8000F000
07C001E000
03F00FC000
00FFFF8000
007FFE0000
000FF00000
ENDCHAR
STARTCHAR 00D3
ENCODING 211
SWIDTH 880 0
DWIDTH 37 0
BBX 33 41 2 -1
BITMAP
00000C0000
00003C0000
00007C0000
0001F00000
0007E00000
0003800000
0002000000
0000000000
000FF00000
003FFE0000
00FFFF8000
03F00FC000
07C003F000
0F8000F800
1E00007800
1C00003C00
3C00001E00
7800000E00
7000000F00
7000000700
F000000700
E000000700
E000000780
E000000780
E000000780
E000000780
E000000780
E000000700
F000000700
7000000700
7000000F00
7800000E00
3C00001E00
1C00003C00
1E00007800
0F8000F000
07C001E000
03F00FC000
00FFFF8000
007FFE0000
000FF00000
ENDCHAR
STARTCHAR 00D4
ENCODING 212
SWIDTH 880 0
DWIDTH 37 0
BBX 33 40 2 -1
BITMAP
0001C00000
0007E00000
000F700000
001E3C0000
003C1E0000
0040000000
0000000000
000FF00000
003FFE0000
00FFFF8000
03F00FC000
07C003F000
0F8000F800
1E00007800
1C00003C00
3C00001E00
7800000E00
7000000F00
7000000700
F000000700
E000000700
E000000780
E000000780
E000000780
E000000780
E000000780
E000000700
F000000700
7000000700
7000000F00
7800000E00
3C00001E00
1C00003C00
1E00007800
0F8000F000
07C001E000
03F00FC000
00FFFF8000
007FFE0000
000FF00000
ENDCHAR
STARTCHAR 00D5
ENCODING 213
SWIDTH 880 0
DWIDTH 37 0
BBX 33 40 2 -1
BITMAP
0004000000
001F8C0000
003FFC0000
0019FC0000
0010780000
0000000000
0000000000
000FF00000
003FFE0000
00FFFF8000
03F00FC000
07C003F000
0F8000F800
1E00007800
1C00003C00
3C00001E00
7800000E00
7000000F00
7000000700
F000000700
E000000700
E000000780
E000000780
E000000780
E000000780
E000000780
E000000700
F000000700
7000000700
7000000F00
7800000E00
3C00001E00
1C00003C00
1E00007800
0F8000F000
07C001E000
03F00FC000
00FFFF8000
007FFE0000
000FF00000
ENDCHAR
STARTCHAR 00D6
ENCODING 214
SWIDTH 880 0
DWIDTH 37 0
BBX 33 40 2 -1
BITMAP
000E380000
000E380000
000E380000
000E380000
000E380000
0000000000
0000000000
000FF00000
003FFE0000
00FFFF8000
03F00FC000
07C003F000
0F8000F800
1E00007800
1C00003C00
3C00001E00
7800000E00
7000000F00
7000000700
F000000700
E000000700
E000000780
E000000780
E000000780
E000000780
E000000780
E000000700
F000000700
7000000700
7000000F00
7800000E00
3C00001E00
1C00003C00
1E00007800
0F8000F000
07C001E000
03F00FC000
00FFFF8000
007FFE0000
000FF00000
ENDCHAR
STARTCHAR 00D7
ENCODING 215
SWIDTH 619 0
DWIDTH 26 0
BBX 18 19 4 1
BITMAP
400000
E00180
F003C0
780780
3C0F00
1E1E00
0F3C00
07F800
03F000
01E000
03F000
07F800
0F3C00
1E1E00
3C0F00
780780
F003C0
E00180
400000
ENDCHAR
STARTCHAR 00D8
ENCODING 216
SWIDTH 857 0
DWIDTH 36 0
BBX 33 39 2 -4
BITMAP
0000000800
0000000C00
0000001C00
000FF03C00
007FFE7800
01FFFFF000
03F00FE000
07C001F000
0F0003F800
1E0003F800
3C0007BC00
38000F1E00
78000E0E00
70001C0F00
70003C0700
F000780700
E000700700
E000F00780
E001E00780
E003C00780
E003800780
E007800780
E00F000700
F00E000700
701C000700
703C000F00
7878000E00
3870001E00
3CF0003C00
1FE0007800
0FC000F800
07C001F000
07F00FC000
0FFFFF8000
0E7FFE0000
1C0FF00000
3C00000000
3800000000
1000000000
ENDCHAR
STARTCHAR 00D9
ENCODING 217
SWIDTH 666 0
DWIDTH 28 0
BBX 21 40 3 0
BITMAP
070000
0FC000
03E000
01F800
007C00
001800
000000
000000
E00038
E00038
E00038
E00038
E00038
E00038
E00038
E00038
E00038
E00038
E00038
E00038
E00038
E00038
E00038
E00038
E00038
E00038
E00038
E00038
E00038
E00038
F00038
700038
700038
700070
780070
3C00F0
1E03E0
0FFFC0
07FF80
01FC00
ENDCHAR
STARTCHAR 00DA
ENCODING 218
SWIDTH 666 0
DWIDTH 28 0
BBX 21 41 3 -1
BITMAP
000100
000300
000F80
003F00
007C00
00F000
00E000
000000
000000
E00038
E00038
E00038
E00038
E00038
E00038
E00038
E00038
E00038
E00038
E00038
E00038
E00038
E00038
E00038
E00038
E00038
E00038
E00038
E00038
E00038
E00038
F00038
700038
700038
700070
780070
3C00F0
1E03E0
0FFFC0
07FF80
01FC00
ENDCHAR
STARTCHAR 00DB
ENCODING 219
SWIDTH 666 0
DWIDTH 28 0
BBX 21 39 3 -1
BITMAP
00F800
01FC00
03CF00
078780
0F03C0
000000
000000
E00038
E00038
E00038
E00038
E00038
E00038
E00038
E00038
E00038
E00038
E00038
E00038
E00038
E00038
E00038
E00038
E00038
E00038
E00038
E00038
E00038
E00038
F00038
700038
700038
700070
780070
3C00F0
1E03E0
0FFFC0
07FF80
01FC00
ENDCHAR
STARTCHAR 00DC
ENCODING 220
SWIDTH 666 0
DWIDTH 28 0
BBX 21 39 3 -1
BITMAP
038E00
038E00
038E00
038E00
038E00
000000
000000
E00038
E00038
E00038
E00038
E00038
E00038
E00038
E00038
E00038
E00038
E00038
E00038
E00038
E00038
E00038
E00038
E00038
E00038
E00038
E00038
E00038
E00038
F00038
700038
700038
700070
780070
3C00F0
1E03E0
0FFFC0
07FF80
01FC00
ENDCHAR
STARTCHAR 00DD
ENCODING 221
SWIDTH 595 0
DWIDTH 25 0
BBX 25 39 0 1
BITMAP
0001C000
0003E000
000F8000
003F0000
007C0000
00300000
00000000
00000000
F0000780
70000700
78000E00
38000E00
3C001C00
1C001C00
1E003800
0E007800
0F007000
0700F000
0380E000
0381E000
01C1C000
01C3C000
00E38000
00E78000
00770000
007F0000
003E0000
003E0000
001C0000
001C0000
001C0000
001C0000
001C0000
001C0000
001C0000
001C0000
001C0000
001C0000
001C0000
ENDCHAR
STARTCHAR 00DE
ENCODING 222
SWIDTH 595 0
DWIDTH 25 0
BBX 21 31 3 0
BITMAP
E00000
E00000
E00000
E00000
E00000
FFF800
FFFF00
FFFFC0
E003E0
E000F0
E00070
E00070
E00078
E00038
E00038
E00038
E00078
E00070
E00070
E000F0
E003E0
FFFFC0
FFFF80
FFFC00
E00000
E00000
E00000
E00000
E00000
E00000
E00000
ENDCHAR
STARTCHAR 00DF
ENCODING 223
SWIDTH 547 0
DWIDTH 23 0
BBX 20 33 2 -1
BITMAP
03F000
0FFC00
1FFE00
3C0F00
380780
780380
7003C0
7001C0
7001C0
7001C0
7001C0
F003C0
F00380
F00780
F01F00
F1FE00
F1FF00
F1FF80
F007C0
F001E0
F000E0
F000F0
F00070
F00070
FC0070
FC0070
FC00F0
FE00E0
FF01E0
F783C0
F7FF80
F3FF00
00FC00
ENDCHAR
STARTCHAR 00E0
ENCODING 224
SWIDTH 690 0
DWIDTH 29 0
BBX 24 33 2 0
BITMAP
038000
03C000
01F000
00FC00
003E00
000C00
000400
000000
007E00
03FFC7
0FFFE7
1F81F7
3E007F
3C003F
78001F
70000F
F0000F
E00007
E00007
E00007
E00007
E00007
E00007
E00007
F0000F
70000F
78001F
3C003F
3E007F
1F81F7
0FFFE7
03FFC7
00FF00
ENDCHAR
STARTCHAR 00E1
ENCODING 225
SWIDTH 690 0
DWIDTH 29 0
BBX 24 33 2 0
BITMAP
000180
0007C0
000F80
003E00
007C00
007000
000000
000000
007E00
03FFC7
0FFFE7
1F81F7
3E007F
3C003F
78001F
70000F
F0000F
E00007
E00007
E00007
E00007
E00007
E00007
E00007
F0000F
70000F
78001F
3C003F
3E007F
1F81F7
0FFFE7
03FFC7
00FF00
ENDCHAR
STARTCHAR 00E2
ENCODING 226
SWIDTH 690 0
DWIDTH 29 0
BBX 24 32 2 -1
BITMAP
003C00
00FE00
01E700
03C3C0
0781E0
000000
000000
007E00
03FFC7
0FFFE7
1F81F7
3E007F
3C003F
78001F
70000F
F0000F
E00007
E00007
E00007
E00007
E00007
E00007
E00007
F0000F
70000F
78001F
3C003F
3E007F
1F81F7
0FFFE7
03FFC7
00FF00
ENDCHAR
STARTCHAR 00E3
ENCODING 227
SWIDTH 690 0
DWIDTH 29 0
BBX 24 32 2 -1
BITMAP
01E080
03F980
03FFC0
010F80
000000
000000
000000
007E00
03FFC7
0FFFE7
1F81F7
3E007F
3C003F
78001F
70000F
F0000F
E00007
E00007
E00007
E00007
E00007
E00007
E00007
F0000F
70000F
78001F
3C003F
3E007F
1F81F7
0FFFE7
03FFC7
00FF00
ENDCHAR
STARTCHAR 00E4
ENCODING 228
SWIDTH 690 0
DWIDTH 29 0
BBX 24 32 2 -1
BITMAP
01C700
01C700
01C700
01C700
01C700
000000
000000
007E00
03FFC7
0FFFE7
1F81F7
3E007F
3C003F
78001F
70000F
F0000F
E00007
E00007
E00007
E00007
E00007
E00007
E00007
F0000F
70000F
78001F
3C003F
3E007F
1F81F7
0FFFE7
03FFC7
00FF00
ENDCHAR
STARTCHAR 00E5
ENCODING 229
SWIDTH 690 0
DWIDTH 29 0
BBX 24 35 2 -1
BITMAP
003C00
007E00
00C700
00C300
00C300
00C300
007E00
003C00
000000
000000
007E00
03FFC7
0FFFE7
1F81F7
3E007F
3C003F
78001F
70000F
F0000F
E00007
E00007
E00007
E00007
E00007
E00007
E00007
F0000F
70000F
78001F
3C003F
3E007F
1F81F7
0FFFE7
03FFC7
00FF00
ENDCHAR
STARTCHAR 00E6
ENCODING 230
SWIDTH 1166 0
DWIDTH 49 0
BBX 45 25 2 -1
BITMAP
00FF0003F800
03FFC71FFE00
07FFE73FFF80
1F81F77C0FC0
1E007FF003C0
3C003FE001E0
78001FC000F0
70000F800070
F0000F800070
E00007800038
E00007000038
E00007FFFFF8
E00007FFFFF8
E00007FFFFF8
E00007000000
E00007000000
F0000F800000
70000F800070
78001FC000F0
3C003FE000E0
3E007FF003C0
1F81F77C07C0
0FFFE73FFF00
03FFC70FFE00
00FE0003F800
ENDCHAR
STARTCHAR 00E7
ENCODING 231
SWIDTH 642 0
DWIDTH 27 0
BBX 23 34 2 -10
BITMAP
007F00
03FFC0
07FFF0
1F81F8
3E007C
3C003C
78001E
70000E
F00000
E00000
E00000
E00000
E00000
E00000
E00000
F00000
700000
78000E
78001E
3C003C
1F00F8
0FF7F0
07FFE0
01FF80
001C00
001800
003F00
003F80
001380
0001C0
0001C0
007380
003F80
001F00
ENDCHAR
STARTCHAR 00E8
ENCODING 232
SWIDTH 642 0
DWIDTH 27 0
BBX 24 33 2 0
BITMAP
038000
07C000
03F000
00FC00
003E00
000C00
000000
000000
00FE00
03FFC0
07FFE0
1F01F0
1E0078
3C003C
78001C
70001E
F0000E
E0000E
E0000E
FFFFFF
FFFFFF
FFFFFF
E00000
E00000
F00000
70000E
78001C
38003C
3E0078
1F01F0
0FFFE0
03FF80
00FE00
ENDCHAR
STARTCHAR 00E9
ENCODING 233
SWIDTH 642 0
DWIDTH 27 0
BBX 24 34 2 -1
BITMAP
000080
000180
0007C0
001F80
003E00
007800
007000
000000
000000
00FE00
03FFC0
07FFE0
1F01F0
1E0078
3C003C
78001C
70001E
F0000E
E0000E
E0000E
FFFFFF
FFFFFF
FFFFFF
E00000
E00000
F00000
70000E
78001C
38003C
3E0078
1F01F0
0FFFE0
03FF80
00FE00
ENDCHAR
STARTCHAR 00EA
ENCODING 234
SWIDTH 642 0
DWIDTH 27 0
BBX 24 32 2 -1
BITMAP
007C00
00FE00
01EF00
03C380
0781E0
000000
000000
00FE00
03FFC0
07FFE0
1F01F0
1E0078
3C003C
78001C
70001E
F0000E
E0000E
E0000E
FFFFFF
FFFFFF
FFFFFF
E00000
E00000
F00000
70000E
78001C
38003C
3E0078
1F01F0
0FFFE0
03FF80
00FE00
ENDCHAR
STARTCHAR 00EB
ENCODING 235
SWIDTH 642 0
DWIDTH 27 0
BBX 24 32 2 -1
BITMAP
01C700
01C700
01C700
01C700
01C700
000000
000000
00FE00
03FFC0
07FFE0
1F01F0
1E0078
3C003C
78001C
70001E
F0000E
E0000E
E0000E
FFFFFF
FFFFFF
FFFFFF
E00000
E00000
F00000
70000E
78001C
38003C
3E0078
1F01F0
0FFFE0
03FF80
00FE00
ENDCHAR
STARTCHAR 00EC
ENCODING 236
SWIDTH 190 0
DWIDTH 8 0
BBX 9 32 -2 0
BITMAP
4000
F000
FC00
3E00
1F80
0780
0100
0000
0000
0700
0700
0700
0700
0700
0700
0700
0700
0700
0700
0700
0700
0700
0700
0700
0700
0700
0700
0700
0700
0700
0700
0700
ENDCHAR
STARTCHAR 00ED
ENCODING 237
SWIDTH 190 0
DWIDTH 8 0
BBX 9 32 1 0
BITMAP
0180
0380
0F80
3F00
FC00
7000
6000
0000
0000
3800
3800
3800
3800
3800
3800
3800
3800
3800
3800
3800
3800
3800
3800
3800
3800
3800
3800
3800
3800
3800
3800
3800
ENDCHAR
STARTCHAR 00EE
ENCODING 238
SWIDTH 190 0
DWIDTH 8 0
BBX 14 31 -3 0
BITMAP
0780
0FC0
1FE0
3C70
783C
8000
0000
0000
0380
0380
0380
0380
0380
0380
0380
0380
0380
0380
0380
0380
0380
0380
0380
0380
0380
0380
0380
0380
0380
0380
0380
ENDCHAR
STARTCHAR 00EF
ENCODING 239
SWIDTH 190 0
DWIDTH 8 0
BBX 9 31 0 0
BITMAP
E380
E380
E380
E380
E380
0000
0000
0000
1C00
1C00
1C00
1C00
1C00
1C00
1C00
1C00
1C00
1C00
1C00
1C00
1C00
1C00
1C00
1C00
1C00
1C00
1C00
1C00
1C00
1C00
1C00
ENDCHAR
STARTCHAR 00F0
ENCODING 240
SWIDTH 666 0
DWIDTH 28 0
BBX 24 32 2 0
BITMAP
01E180
00FFC0
007E00
01FC00
01EF00
010780
0003C0
00FFE0
03FFF0
0FFFF0
1F01F8
3E007C
38003C
78001E
70001E
F0000E
E0000F
E0000F
E00007
E00007
E00007
E0000F
E0000E
F0000E
70000E
78001C
3C003C
3E0078
1F81F0
0FFFE0
03FFC0
00FE00
ENDCHAR
STARTCHAR 00F1
ENCODING 241
SWIDTH 619 0
DWIDTH 26 0
BBX 20 31 3 0
BITMAP
078200
0FE600
0FFF00
0C7E00
080800
000000
000000
01FC00
E7FF00
EFFF80
FC07C0
F801E0
F001E0
F000E0
E000F0
E00070
E00070
E00070
E00070
E00070
E00070
E00070
E00070
E00070
E00070
E00070
E00070
E00070
E00070
E00070
E00070
ENDCHAR
STARTCHAR 00F2
ENCODING 242
SWIDTH 666 0
DWIDTH 28 0
BBX 24 33 2 0
BITMAP
038000
03C000
01F000
00FC00
003E00
000C00
000400
000000
00FF00
03FFC0
0FFFE0
1F01F0
3E0078
3C003C
78001C
70001E
F0000E
E0000E
E0000F
E00007
E00007
E00007
E0000F
E0000E
F0000E
70000E
78001C
3C003C
3E0078
1F81F0
0FFFE0
03FFC0
00FE00
ENDCHAR
STARTCHAR 00F3
ENCODING 243
SWIDTH 666 0
DWIDTH 28 0
BBX 24 34 2 -1
BITMAP
000080
000180
0007C0
000F80
003E00
007C00
007000
000000
000000
00FF00
03FFC0
0FFFE0
1F01F0
3E0078
3C003C
78001C
70001E
F0000E
E0000E
E0000F
E00007
E00007
E00007
E0000F
E0000E
F0000E
70000E
78001C
3C003C
3E0078
1F81F0
0FFFE0
03FFC0
00FE00
ENDCHAR
STARTCHAR 00F4
ENCODING 244
SWIDTH 666 0
DWIDTH 28 0
BBX 24 32 2 -1
BITMAP
003C00
00FE00
01E700
03C3C0
0781E0
000000
000000
00FF00
03FFC0
0FFFE0
1F01F0
3E0078
3C003C
78001C
70001E
F0000E
E0000E
E0000F
E00007
E00007
E00007
E0000F
E0000E
F0000E
70000E
78001C
3C003C
3E0078
1F81F0
0FFFE0
03FFC0
00FE00
ENDCHAR
STARTCHAR 00F5
ENCODING 245
SWIDTH 666 0
DWIDTH 28 0
BBX 24 32 2 -1
BITMAP
01E080
03F980
03FFC0
031F80
000200
000000
000000
00FF00
03FFC0
0FFFE0
1F01F0
3E0078
3C003C
78001C
70001E
F0000E
E0000E
E0000F
E00007
E00007
E00007
E0000F
E0000E
F0000E
70000E
78001C
3C003C
3E0078
1F81F0
0FFFE0
03FFC0
00FE00
ENDCHAR
STARTCHAR 00F6
ENCODING 246
SWIDTH 666 0
DWIDTH 28 0
BBX 24 32 2 -1
BITMAP
01C700
01C700
01C700
01C700
01C700
000000
000000
00FF00
03FFC0
0FFFE0
1F01F0
3E0078
3C003C
78001C
70001E
F0000E
E0000E
E0000F
E00007
E00007
E00007
E0000F
E0000E
F0000E
70000E
78001C
3C003C
3E0078
1F81F0
0FFFE0
03FFC0
00FE00
ENDCHAR
STARTCHAR 00F7
ENCODING 247
SWIDTH 714 0
DWIDTH 30 0
BBX 24 23 3 -1
BITMAP
001C00
001C00
001C00
001C00
001C00
000000
000000
000000
000000
000000
FFFFFF
FFFFFF
FFFFFF
000000
000000
000000
000000
000000
001C00
001C00
001C00
001C00
001C00
ENDCHAR
STARTCHAR 00F8
ENCODING 248
SWIDTH 642 0
DWIDTH 27 0
BBX 24 27 2 -2
BITMAP
000008
007E1C
03FFFC
07FFF8
1F81F0
1E00F8
3C01FC
7803DC
70038E
F0070E
E00F0E
E01E0F
E01C0F
E03807
E0780F
E0F00F
E0E00E
F1E00E
73C01E
7B801C
3F003C
3F0078
1F01F0
1FFFE0
3BFFC0
78FE00
300000
ENDCHAR
STARTCHAR 00F9
ENCODING 249
SWIDTH 619 0
DWIDTH 26 0
BBX 20 33 3 -1
BITMAP
0C0000
0F0000
0F8000
07E000
01F800
007000
001000
000000
000000
E00070
E00070
E00070
E00070
E00070
E00070
E00070
E00070
E00070
E00070
E00070
E00070
E00070
E00070
E00070
E000F0
E000F0
F000F0
7001F0
7803F0
3C0770
3FFF70
0FFE70
03F800
ENDCHAR
STARTCHAR 00FA
ENCODING 250
SWIDTH 619 0
DWIDTH 26 0
BBX 20 33 3 -1
BITMAP
000200
000F00
003F00
007C00
01F000
01E000
008000
000000
000000
E00070
E00070
E00070
E00070
E00070
E00070
E00070
E00070
E00070
E00070
E00070
E00070
E00070
E00070
E00070
E000F0
E000F0
F000F0
7001F0
7803F0
3C0770
3FFF70
0FFE70
03F800
ENDCHAR
STARTCHAR 00FB
ENCODING 251
SWIDTH 619 0
DWIDTH 26 0
BBX 20 32 3 -1
BITMAP
00F000
01F800
03FC00
079E00
1E0F00
000080
000000
000000
E00070
E00070
E00070
E00070
E00070
E00070
E00070
E00070
E00070
E00070
E00070
E00070
E00070
E00070
E00070
E000F0
E000F0
F000F0
7001F0
7803F0
3C0770
3FFF70
0FFE70
03F800
ENDCHAR
STARTCHAR 00FC
ENCODING 252
SWIDTH 619 0
DWIDTH 26 0
BBX 20 32 3 -1
BITMAP
071C00
071C00
071C00
071C00
071C00
000000
000000
000000
E00070
E00070
E00070
E00070
E00070
E00070
E00070
E00070
E00070
E00070
E00070
E00070
E00070
E00070
E00070
E000F0
E000F0
F000F0
7001F0
7803F0
3C0770
3FFF70
0FFE70
03F800
ENDCHAR
STARTCHAR 00FD
ENCODING 253
SWIDTH 547 0
DWIDTH 23 0
BBX 21 40 1 -8
BITMAP
000300
000F00
001F00
007E00
01F800
00E000
008000
000000
000000
E00038
E00070
F00070
7000F0
7800E0
3801E0
3801C0
3C01C0
1C0380
1E0380
0E0780
0E0700
0F0700
070E00
078E00
039C00
039C00
03FC00
01F800
01F800
00F000
00F000
00F000
00E000
01E000
01C000
03C000
038000
038000
078000
070000
ENDCHAR
STARTCHAR 00FE
ENCODING 254
SWIDTH 690 0
DWIDTH 29 0
BBX 24 39 3 -8
BITMAP
E00000
E00000
E00000
E00000
E00000
E00000
E00000
E0FE00
E3FFC0
E7FFE0
EF01F0
FC0078
F8003C
F0001E
F0001E
E0000E
E0000F
E00007
E00007
E00007
E00007
E00007
E0000F
E0000E
F0000E
F8001C
F8003C
FE0078
EF01F0
E7FFE0
E3FFC0
E0FE00
E00000
E00000
E00000
E00000
E00000
E00000
E00000
ENDCHAR
STARTCHAR 00FF
ENCODING 255
SWIDTH 547 0
DWIDTH 23 0
BBX 21 39 1 -8
BITMAP
038E00
038E00
038E00
038E00
038E00
000000
000000
000000
E00038
E00070
F00070
7000F0
7800E0
3801E0
3801C0
3C01C0
1C0380
1E0380
0E0780
0E0700
0F0700
070E00
078E00
039C00
039C00
03FC00
01F800
01F800
00F000
00F000
00F000
00E000
01E000
01C000
03C000
038000
038000
078000
070000
ENDCHAR
STARTCHAR 0100
ENCODING 256
SWIDTH 738 0
DWIDTH 31 0
BBX 29 37 1 0
BITMAP
01FFFC00
01FFFC00
01FFFC00
00000000
00000000
00000000
00070000
000F8000
000F8000
001FC000
001DC000
003DE000
0038E000
0038E000
00707000
00707000
00F07800
00E03800
01E03C00
01C01C00
01C01E00
03C01E00
03800E00
07800F00
07FFFF00
0FFFFF80
0FFFFF80
0E0003C0
1E0003C0
1C0001C0
3C0001E0
380000E0
780000F0
70000070
70000078
E0000038
E0000038
ENDCHAR
STARTCHAR 0101
ENCODING 257
SWIDTH 690 0
DWIDTH 29 0
BBX 24 31 2 -1
BITMAP
07FFE0
07FFE0
07FFE0
000000
000000
000000
007E00
03FFC7
0FFFE7
1F81F7
3E007F
3C003F
78001F
70000F
F0000F
E00007
E00007
E00007
E00007
E00007
E00007
E00007
F0000F
70000F
78001F
3C003F
3E007F
1F81F7
0FFFE7
03FFC7
00FF00
ENDCHAR
STARTCHAR 0102
ENCODING 258
SWIDTH 738 0
DWIDTH 31 0
BBX 29 38 1 0
BITMAP
00E03800
00703800
007DF000
003FE000
001FC000
00000000
00000000
00070000
000F8000
000F8000
001FC000
001DC000
003DE000
0038E000
0038E000
00707000
00707000
00F07800
00E03800
01E03C00
01C01C00
01C01E00
03C01E00
03800E00
07800F00
07FFFF00
0FFFFF80
0FFFFF80
0E0003C0
1E0003C0
1C0001C0
3C0001E0
380000E0
780000F0
70000070
70000078
E0000038
E0000038
ENDCHAR
STARTCHAR 0103
ENCODING 259
SWIDTH 690 0
DWIDTH 29 0
BBX 24 32 2 -1
BITMAP
0301C0
0381C0
03E780
01FF80
007E00
000000
000000
007E00
03FFC7
0FFFE7
1F81F7
3E007F
3C003F
78001F
70000F
F0000F
E00007
E00007
E00007
E00007
E00007
E00007
E00007
F0000F
70000F
78001F
3C003F
3E007F
1F81F7
0FFFE7
03FFC7
00FF00
ENDCHAR
STARTCHAR 0104
ENCODING 260
SWIDTH 738 0
DWIDTH 31 0
BBX 30 41 1 -10
BITMAP
00070000
000F8000
000F8000
001FC000
001DC000
003DE000
0038E000
0038E000
00707000
00707000
00F07800
00E03800
01E03C00
01C01C00
01C01E00
03C01E00
03800E00
07800F00
07FFFF00
0FFFFF80
0FFFFF80
0E0003C0
1E0003C0
1C0001C0
3C0001E0
380000E0
780000F0
70000070
70000078
E0000038
E0000038
00000038
00000070
000000E0
000001C0
000001C0
000001C0
000001E0
000000FC
000000FC
0000003C
ENDCHAR
STARTCHAR 0105
ENCODING 261
SWIDTH 690 0
DWIDTH 29 0
BBX 25 35 2 -11
BITMAP
007E0000
03FFC700
0FFFE700
1F81F700
3E007F00
3C003F00
78001F00
70000F00
F0000F00
E0000700
E0000700
E0000700
E0000700
E0000700
E0000700
E0000700
F0000F00
70000F00
78001F00
3C003F00
3E007F00
1F81F700
0FFFE700
03FFC700
00FF0700
00000E00
00001C00
00003800
00003800
00007800
00007800
00003800
00003F80
00001F80
00000F80
ENDCHAR
STARTCHAR 0106
ENCODING 262
SWIDTH 809 0
DWIDTH 34 0
BBX 30 41 2 -1
BITMAP
00000800
00003C00
0000FC00
0001F000
0007C000
00078000
00020000
00000000
000FF000
007FFE00
01FFFF80
03F00FC0
07C003E0
0F0000F0
1E000078
3C00003C
3800003C
78000000
70000000
70000000
F0000000
E0000000
E0000000
E0000000
E0000000
E0000000
E0000000
E0000000
F0000000
70000000
70000000
78000000
3C00001C
3C00003C
1E000078
0F0000F0
07C003E0
03F00FC0
01FFFF80
007FFE00
000FF000
ENDCHAR
STARTCHAR 0107
ENCODING 263
SWIDTH 642 0
DWIDTH 27 0
BBX 24 33 2 0
BITMAP
0001C0
0007C0
000F80
003F00
007C00
003000
000000
000000
007F00
03FFC0
07FFF0
1F81F8
1E007C
3C003C
78001E
70000E
F00000
E00000
E00000
E00000
E00000
E00000
E00000
E00000
F00000
70000F
78001E
3C003C
1E007C
1F80F8
07FFF0
03FFC0
007F00
ENDCHAR
STARTCHAR 0108
ENCODING 264
SWIDTH 809 0
DWIDTH 34 0
BBX 30 40 2 -1
BITMAP
0003C000
0007E000
000FF000
001E7800
00381C00
00400200
00000000
000FF000
007FFE00
01FFFF80
03F00FC0
07C003E0
0F0000F0
1E000078
3C00003C
3800003C
78000000
70000000
70000000
F0000000
E0000000
E0000000
E0000000
E0000000
E0000000
E0000000
E0000000
F0000000
70000000
70000000
78000000
3C00001C
3C00003C
1E000078
0F0000F0
07C003E0
03F00FC0
01FFFF80
007FFE00
000FF000
ENDCHAR
STARTCHAR 0109
ENCODING 265
SWIDTH 642 0
DWIDTH 27 0
BBX 24 32 2 -1
BITMAP
003C00
007F00
00E780
03C3C0
0781E0
000000
000000
007F00
03FFC0
07FFF0
1F81F8
1E007C
3C003C
78001E
70000E
F00000
E00000
E00000
E00000
E00000
E00000
E00000
E00000
F00000
70000F
78001E
3C003C
1E007C
1F80F8
07FFF0
03FFC0
007F00
ENDCHAR
STARTCHAR 010A
ENCODING 266
SWIDTH 809 0
DWIDTH 34 0
BBX 30 40 2 -1
BITMAP
00038000
00038000
00038000
00038000
00038000
00000000
00000000
000FF000
007FFE00
01FFFF80
03F00FC0
07C003E0
0F0000F0
1E000078
3C00003C
3800003C
78000000
70000000
70000000
F0000000
E0000000
E0000000
E0000000
E0000000
E0000000
E0000000
E0000000
F0000000
70000000
70000000
78000000
3C00001C
3C00003C
1E000078
0F0000F0
07C003E0
03F00FC0
01FFFF80
007FFE00
000FF000
ENDCHAR
STARTCHAR 010B
ENCODING 267
SWIDTH 642 0
DWIDTH 27 0
BBX 24 32 2 -1
BITMAP
001C00
001C00
001C00
001C00
001C00
000000
000000
007F00
03FFC0
07FFF0
1F81F8
1E007C
3C003C
78001E
70000E
F00000
E00000
E00000
E00000
E00000
E00000
E00000
E00000
F00000
70000F
78001E
3C003C
1E007C
1F80F8
07FFF0
03FFC0
007F00
ENDCHAR
STARTCHAR 010C
ENCODING 268
SWIDTH 809 0
DWIDTH 34 0
BBX 30 40 2 -1
BITMAP
00781E00
003C3C00
001E7800
000FF000
0007C000
00000000
00000000
000FF000
007FFE00
01FFFF80
03F00FC0
07C003E0
0F0000F0
1E000078
3C00003C
3800003C
78000000
70000000
70000000
F0000000
E0000000
E0000000
E0000000
E0000000
E0000000
E0000000
E0000000
F0000000
70000000
70000000
78000000
3C00001C
3C00003C
1E000078
0F0000F0
07C003E0
03F00FC0
01FFFF80
007FFE00
000FF000
ENDCHAR
STARTCHAR 010D
ENCODING 269
SWIDTH 642 0
DWIDTH 27 0
BBX 24 32 2 -1
BITMAP
0781E0
01C380
00FF00
007E00
003C00
000000
000000
007F00
03FFC0
07FFF0
1F81F8
1E007C
3C003C
78001E
70000E
F00000
E00000
E00000
E00000
E00000
E00000
E00000
E00000
F00000
70000F
78001E
3C003C
1E007C
1F80F8
07FFF0
03FFC0
007F00
ENDCHAR
STARTCHAR 010E
ENCODING 270
SWIDTH 738 0
DWIDTH 31 0
BBX 26 38 3 0
BITMAP
1E0F0000
0F1E0000
07BC0000
03F00000
00E00000
00000000
00000000
FFFC0000
FFFFC000
FFFFE000
E003F800
E0007C00
E0001E00
E0000F00
E0000700
E0000780
E0000380
E00003C0
E00001C0
E00001C0
E00001C0
E00001C0
E00001C0
E00001C0
E00001C0
E00001C0
E00001C0
E00003C0
E0000380
E0000780
E0000780
E0000F00
E0001E00
E0007C00
E001F800
FFFFE000
FFFF8000
FFFC0000
ENDCHAR
STARTCHAR 010F
ENCODING 271
SWIDTH 690 0
DWIDTH 29 0
BBX 32 32 2 -1
BITMAP
00000707
0000070E
0000070E
0000070E
0000071E
0000071C
0000071C
007F0700
03FFC700
07FFE700
1F81F700
3E007F00
3C003F00
78001F00
70000F00
F0000F00
E0000700
E0000700
E0000700
E0000700
E0000700
E0000700
E0000700
F0000F00
70000F00
78001F00
3C003F00
3E007F00
1F81F700
07FFE700
03FFC700
007F0000
ENDCHAR
STARTCHAR 0110
ENCODING 272
SWIDTH 785 0
DWIDTH 33 0
BBX 30 31 1 0
BITMAP
0FFFC000
0FFFF800
0FFFFE00
0E003F80
0E0007C0
0E0003E0
0E0000F0
0E0000F0
0E000078
0E000038
0E00003C
0E00001C
0E00001C
0E00001C
FFFF001C
FFFF001C
FFFF001C
0E00001C
0E00001C
0E00001C
0E00003C
0E000038
0E000078
0E000078
0E0000F0
0E0001E0
0E0007C0
0E001F80
0FFFFE00
0FFFF800
0FFFC000
ENDCHAR
STARTCHAR 0111
ENCODING 273
SWIDTH 690 0
DWIDTH 29 0
BBX 27 32 2 -1
BITMAP
00000700
00000700
00000700
0001FFE0
0001FFE0
0001FFE0
00000700
007F0700
03FFC700
07FFE700
1F81F700
3E007F00
3C003F00
78001F00
70000F00
F0000F00
E0000700
E0000700
E0000700
E0000700
E0000700
E0000700
E0000700
F0000F00
70000F00
78001F00
3C003F00
3E007F00
1F81F700
07FFE700
03FFC700
007F0000
ENDCHAR
STARTCHAR 0112
ENCODING 274
SWIDTH 547 0
DWIDTH 23 0
BBX 17 37 3 0
BITMAP
3FFF00
3FFF00
3FFF00
000000
000000
000000
FFFF80
FFFF80
FFFF80
E00000
E00000
E00000
E00000
E00000
E00000
E00000
E00000
E00000
E00000
E00000
FFFF80
FFFF80
FFFF80
E00000
E00000
E00000
E00000
E00000
E00000
E00000
E00000
E00000
E00000
E00000
FFFF80
FFFF80
FFFF80
ENDCHAR
STARTCHAR 0113
ENCODING 275
SWIDTH 642 0
DWIDTH 27 0
BBX 24 31 2 -1
BITMAP
07FFE0
07FFE0
07FFE0
000000
000000
000000
00FE00
03FFC0
07FFE0
1F01F0
1E0078
3C003C
78001C
70001E
F0000E
E0000E
E0000E
FFFFFF
FFFFFF
FFFFFF
E00000
E00000
F00000
70000E
78001C
38003C
3E0078
1F01F0
0FFFE0
03FF80
00FE00
ENDCHAR
STARTCHAR 0114
ENCODING 276
SWIDTH 547 0
DWIDTH 23 0
BBX 17 38 3 0
BITMAP
380E00
1C0E00
1F3C00
0FF800
03F000
000000
000000
FFFF80
FFFF80
FFFF80
E00000
E00000
E00000
E00000
E00000
E00000
E00000
E00000
E00000
E00000
E00000
FFFF80
FFFF80
FFFF80
E00000
E00000
E00000
E00000
E00000
E00000
E00000
E00000
E00000
E00000
E00000
FFFF80
FFFF80
FFFF80
ENDCHAR
STARTCHAR 0115
ENCODING 277
SWIDTH 642 0
DWIDTH 27 0
BBX 24 32 2 -1
BITMAP
0701C0
0381C0
03E780
01FF00
007E00
000000
000000
00FE00
03FFC0
07FFE0
1F01F0
1E0078
3C003C
78001C
70001E
F0000E
E0000E
E0000E
FFFFFF
FFFFFF
FFFFFF
E00000
E00000
F00000
70000E
78001C
38003C
3E0078
1F01F0
0FFFE0
03FF80
00FE00
ENDCHAR
STARTCHAR 0116
ENCODING 278
SWIDTH 547 0
DWIDTH 23 0
BBX 17 38 3 0
BITMAP
01C000
01C000
01C000
01C000
01C000
000000
000000
FFFF80
FFFF80
FFFF80
E00000
E00000
E00000
E00000
E00000
E00000
E00000
E00000
E00000
E00000
E00000
FFFF80
FFFF80
FFFF80
E00000
E00000
E00000
E00000
E00000
E00000
E00000
E00000
E00000
E00000
E00000
FFFF80
FFFF80
FFFF80
ENDCHAR
STARTCHAR 0117
ENCODING 279
SWIDTH 642 0
DWIDTH 27 0
BBX 24 32 2 -1
BITMAP
003800
003800
003800
003800
003800
000000
000000
00FE00
03FFC0
07FFE0
1F01F0
1E0078
3C003C
78001C
70001E
F0000E
E0000E
E0000E
FFFFFF
FFFFFF
FFFFFF
E00000
E00000
F00000
70000E
78001C
38003C
3E0078
1F01F0
0FFFE0
03FF80
00FE00
ENDCHAR
STARTCHAR 0118
ENCODING 280
SWIDTH 547 0
DWIDTH 23 0
BBX 18 41 3 -10
BITMAP
FFFF80
FFFF80
FFFF80
E00000
E00000
E00000
E00000
E00000
E00000
E00000
E00000
E00000
E00000
E00000
FFFF80
FFFF80
FFFF80
E00000
E00000
E00000
E00000
E00000
E00000
E00000
E00000
E00000
E00000
E00000
FFFF80
FFFF80
FFFF80
000700
000E00
001C00
001C00
001C00
001C00
001C00
001FC0
000FC0
0007C0
ENDCHAR
STARTCHAR 0119
ENCODING 281
SWIDTH 642 0
DWIDTH 27 0
BBX 24 35 2 -11
BITMAP
00FE00
03FFC0
07FFE0
1F01F0
1E0078
3C003C
78001C
70001E
F0000E
E0000E
E0000E
FFFFFF
FFFFFF
FFFFFF
E00000
E00000
F00000
70000E
78001C
38003C
3E0078
1F01F0
0FFFE0
03FF80
00FF00
000E00
001C00
003800
003800
007800
007800
003800
003F80
001F80
000F80
ENDCHAR
STARTCHAR 011A
ENCODING 282
SWIDTH 547 0
DWIDTH 23 0
BBX 17 38 3 0
BITMAP
3C1F00
1E3C00
0F7800
03F000
01C000
000000
000000
FFFF80
FFFF80
FFFF80
E00000
E00000
E00000
E00000
E00000
E00000
E00000
E00000
E00000
E00000
E00000
FFFF80
FFFF80
FFFF80
E00000
E00000
E00000
E00000
E00000
E00000
E00000
E00000
E00000
E00000
E00000
FFFF80
FFFF80
FFFF80
ENDCHAR
STARTCHAR 011B
ENCODING 283
SWIDTH 642 0
DWIDTH 27 0
BBX 24 32 2 -1
BITMAP
0783E0
03C780
01EF00
007E00
003C00
000000
000000
00FE00
03FFC0
07FFE0
1F01F0
1E0078
3C003C
78001C
70001E
F0000E
E0000E
E0000E
FFFFFF
FFFFFF
FFFFFF
E00000
E00000
F00000
70000E
78001C
38003C
3E0078
1F01F0
0FFFE0
03FF80
00FE00
ENDCHAR
STARTCHAR 011C
ENCODING 284
SWIDTH 880 0
DWIDTH 37 0
BBX 33 40 2 -1
BITMAP
0001C00000
0007E00000
000F700000
001E3C0000
003C1E0000
0040000000
0000000000
000FF80000
007FFF0000
00FFFFC000
03F007E000
07C001F000
0F0000F800
1E00003C00
1C00003C00
3C00001E00
7800000000
7000000000
7000000000
F000000000
E000000000
E000000000
E000000000
E000000000
E000000000
E00FFFFF80
E00FFFFF80
F00FFFFF80
7000000700
7000000700
7800000F00
3C00000E00
3C00001C00
1E00003C00
0F80007800
07C001F000
03F007E000
00FFFF8000
007FFF0000
000FF80000
ENDCHAR
STARTCHAR 011D
ENCODING 285
SWIDTH 666 0
DWIDTH 28 0
BBX 24 41 2 -10
BITMAP
007C00
00FE00
01EF00
03C780
0781C0
000000
000000
00FE00
03FF87
0FFFC7
1F01E7
3E0077
38003F
78001F
70001F
F0000F
E0000F
E0000F
E0000F
E00007
E0000F
E0000F
E0000F
F0000F
70001F
78001F
3C003F
3E0077
1F81E7
0FFFEF
03FF8F
00FE0E
70000E
70000E
78001E
3C003C
1E007C
1F81F8
07FFF0
03FFC0
007E00
ENDCHAR
STARTCHAR 011E
ENCODING 286
SWIDTH 880 0
DWIDTH 37 0
BBX 33 40 2 -1
BITMAP
00380E0000
00380C0000
001C1C0000
001FF80000
000FF00000
0000000000
0000000000
000FF80000
007FFF0000
00FFFFC000
03F007E000
07C001F000
0F0000F800
1E00003C00
1C00003C00
3C00001E00
7800000000
7000000000
7000000000
F000000000
E000000000
E000000000
E000000000
E000000000
E000000000
E00FFFFF80
E00FFFFF80
F00FFFFF80
7000000700
7000000700
7800000F00
3C00000E00
3C00001C00
1E00003C00
0F80007800
07C001F000
03F007E000
00FFFF8000
007FFF0000
000FF80000
ENDCHAR
STARTCHAR 011F
ENCODING 287
SWIDTH 666 0
DWIDTH 28 0
BBX 24 41 2 -10
BITMAP
0701C0
038180
03EF80
01FF00
00FC00
000000
000000
00FE00
03FF87
0FFFC7
1F01E7
3E0077
38003F
78001F
70001F
F0000F
E0000F
E0000F
E0000F
E00007
E0000F
E0000F
E0000F
F0000F
70001F
78001F
3C003F
3E0077
1F81E7
0FFFEF
03FF8F
00FE0E
70000E
70000E
78001E
3C003C
1E007C
1F81F8
07FFF0
03FFC0
007E00
ENDCHAR
STARTCHAR 0120
ENCODING 288
SWIDTH 880 0
DWIDTH 37 0
BBX 33 40 2 -1
BITMAP
0001C00000
0001C00000
0001C00000
0001C00000
0001C00000
0000000000
0000000000
000FF80000
007FFF0000
00FFFFC000
03F007E000
07C001F000
0F0000F800
1E00003C00
1C00003C00
3C00001E00
7800000000
7000000000
7000000000
F000000000
E000000000
E000000000
E000000000
E000000000
E000000000
E00FFFFF80
E00FFFFF80
F00FFFFF80
7000000700
7000000700
7800000F00
3C00000E00
3C00001C00
1E00003C00
0F80007800
07C001F000
03F007E000
00FFFF8000
007FFF0000
000FF80000
ENDCHAR
STARTCHAR 0121
ENCODING 289
SWIDTH 666 0
DWIDTH 28 0
BBX 24 41 2 -10
BITMAP
003800
003800
003800
003800
003800
000000
000000
00FE00
03FF87
0FFFC7
1F01E7
3E0077
38003F
78001F
70001F
F0000F
E0000F
E0000F
E0000F
E00007
E0000F
E0000F
E0000F
F0000F
70001F
78001F
3C003F
3E0077
1F81E7
0FFFEF
03FF8F
00FE0E
70000E
70000E
78001E
3C003C
1E007C
1F81F8
07FFF0
03FFC0
007E00
ENDCHAR
STARTCHAR 0122
ENCODING 290
SWIDTH 880 0
DWIDTH 37 0
BBX 33 42 2 -10
BITMAP
000FF80000
007FFF0000
00FFFFC000
03F007E000
07C001F000
0F0000F800
1E00003C00
1C00003C00
3C00001E00
7800000000
7000000000
7000000000
F000000000
E000000000
E000000000
E000000000
E000000000
E000000000
E00FFFFF80
E00FFFFF80
F00FFFFF80
7000000700
7000000700
7800000F00
3C00000E00
3C00001C00
1E00003C00
0F80007800
07C001F000
03F007E000
00FFFF8000
007FFF0000
000FF80000
0000000000
0000000000
0001C00000
0001C00000
0003C00000
0003800000
0003800000
0003800000
0007000000
ENDCHAR
STARTCHAR 0123
ENCODING 291
SWIDTH 666 0
DWIDTH 28 0
BBX 24 44 2 -10
BITMAP
001C00
001C00
003C00
003800
003800
003800
007000
007000
000000
000000
00FE00
03FF87
0FFFC7
1F01E7
3E0077
38003F
78001F
70001F
F0000F
E0000F
E0000F
E0000F
E00007
E0000F
E0000F
E0000F
F0000F
70001F
78001F
3C003F
3E0077
1F81E7
0FFFEF
03FF8F
00FE0E
70000E
70000E
78001E
3C003C
1E007C
1F81F8
07FFF0
03FFC0
007E00
ENDCHAR
STARTCHAR 0124
ENCODING 292
SWIDTH 690 0
DWIDTH 29 0
BBX 22 38 3 0
BITMAP
007C00
00FE00
01EF00
038780
0F01C0
000000
000000
E0001C
E0001C
E0001C
E0001C
E0001C
E0001C
E0001C
E0001C
E0001C
E0001C
E0001C
E0001C
E0001C
E0001C
FFFFFC
FFFFFC
FFFFFC
E0001C
E0001C
E0001C
E0001C
E0001C
E0001C
E0001C
E0001C
E0001C
E0001C
E0001C
E0001C
E0001C
E0001C
ENDCHAR
STARTCHAR 0125
ENCODING 293
SWIDTH 619 0
DWIDTH 26 0
BBX 20 38 3 0
BITMAP
01F000
03F800
079E00
0F0F00
1E0780
000000
000000
E00000
E00000
E00000
E00000
E00000
E00000
E00000
E1FC00
E7FF00
EFFF80
FE07C0
F803E0
F001E0
F000E0
E000F0
E00070
E00070
E00070
E00070
E00070
E00070
E00070
E00070
E00070
E00070
E00070
E00070
E00070
E00070
E00070
E00070
ENDCHAR
STARTCHAR 0126
ENCODING 294
SWIDTH 690 0
DWIDTH 29 0
BBX 27 31 1 0
BITMAP
38000700
38000700
38000700
38000700
FFFFFFE0
FFFFFFE0
FFFFFFE0
38000700
38000700
38000700
38000700
38000700
38000700
38000700
3FFFFF00
3FFFFF00
3FFFFF00
38000700
38000700
38000700
38000700
38000700
38000700
38000700
38000700
38000700
38000700
38000700
38000700
38000700
38000700
ENDCHAR
STARTCHAR 0127
ENCODING 295
SWIDTH 619 0
DWIDTH 26 0
BBX 23 31 0 0
BITMAP
1C0000
1C0000
FFC000
FFC000
FFC000
1C0000
1C0000
1C3F80
1CFFE0
1DFFF0
1FC0F8
1F007C
1E003C
1E001C
1C001E
1C000E
1C000E
1C000E
1C000E
1C000E
1C000E
1C000E
1C000E
1C000E
1C000E
1C000E
1C000E
1C000E
1C000E
1C000E
1C000E
ENDCHAR
STARTCHAR 0128
ENCODING 296
SWIDTH 214 0
DWIDTH 9 0
BBX 12 38 -1 0
BITMAP
7820
FE60
FFF0
C7E0
0080
0000
0000
0E00
0E00
0E00
0E00
0E00
0E00
0E00
0E00
0E00
0E00
0E00
0E00
0E00
0E00
0E00
0E00
0E00
0E00
0E00
0E00
0E00
0E00
0E00
0E00
0E00
0E00
0E00
0E00
0E00
0E00
0E00
ENDCHAR
STARTCHAR 0129
ENCODING 297
SWIDTH 190 0
DWIDTH 8 0
BBX 12 30 -2 1
BITMAP
7C30
FFF0
67F0
41E0
0000
0000
0000
0700
0700
0700
0700
0700
0700
0700
0700
0700
0700
0700
0700
0700
0700
0700
0700
0700
0700
0700
0700
0700
0700
0700
ENDCHAR
STARTCHAR 012A
ENCODING 298
SWIDTH 214 0
DWIDTH 9 0
BBX 14 37 -2 0
BITMAP
FFFC
FFFC
FFFC
0000
0000
0000
0700
0700
0700
0700
0700
0700
0700
0700
0700
0700
0700
0700
0700
0700
0700
0700
0700
0700
0700
0700
0700
0700
0700
0700
0700
0700
0700
0700
0700
0700
0700
ENDCHAR
STARTCHAR 012B
ENCODING 299
SWIDTH 190 0
DWIDTH 8 0
BBX 14 30 -3 0
BITMAP
FFFC
FFFC
FFFC
0000
0000
0000
0000
0380
0380
0380
0380
0380
0380
0380
0380
0380
0380
0380
0380
0380
0380
0380
0380
0380
0380
0380
0380
0380
0380
0380
ENDCHAR
STARTCHAR 012C
ENCODING 300
SWIDTH 214 0
DWIDTH 9 0
BBX 13 38 -2 0
BITMAP
E038
7038
7CF0
3FE0
0FC0
0000
0000
0700
0700
0700
0700
0700
0700
0700
0700
0700
0700
0700
0700
0700
0700
0700
0700
0700
0700
0700
0700
0700
0700
0700
0700
0700
0700
0700
0700
0700
0700
0700
ENDCHAR
STARTCHAR 012D
ENCODING 301
SWIDTH 190 0
DWIDTH 8 0
BBX 13 31 -2 0
BITMAP
C038
E030
F0F0
7FE0
3FC0
0000
0000
0000
0700
0700
0700
0700
0700
0700
0700
0700
0700
0700
0700
0700
0700
0700
0700
0700
0700
0700
0700
0700
0700
0700
0700
ENDCHAR
STARTCHAR 012E
ENCODING 302
SWIDTH 214 0
DWIDTH 9 0
BBX 7 41 0 -10
BITMAP
1C
1C
1C
1C
1C
1C
1C
1C
1C
1C
1C
1C
1C
1C
1C
1C
1C
1C
1C
1C
1C
1C
1C
1C
1C
1C
1C
1C
1C
1C
1C
38
70
E0
E0
E0
E0
F0
FE
7E
3E
ENDCHAR
STARTCHAR 012F
ENCODING 303
SWIDTH 190 0
DWIDTH 8 0
BBX 7 41 -1 -10
BITMAP
0E
0E
0E
0E
0E
00
00
00
0E
0E
0E
0E
0E
0E
0E
0E
0E
0E
0E
0E
0E
0E
0E
0E
0E
0E
0E
0E
0E
0E
0E
1C
38
70
E0
E0
E0
F0
7E
3E
1E
ENDCHAR
STARTCHAR 0130
ENCODING 304
SWIDTH 214 0
DWIDTH 9 0
BBX 3 38 3 0
BITMAP
E0
E0
E0
E0
E0
00
00
E0
E0
E0
E0
E0
E0
E0
E0
E0
E0
E0
E0
E0
E0
E0
E0
E0
E0
E0
E0
E0
E0
E0
E0
E0
E0
E0
E0
E0
E0
E0
ENDCHAR
STARTCHAR 0131
ENCODING 305
SWIDTH 190 0
DWIDTH 8 0
BBX 3 23 3 0
BITMAP
E0
E0
E0
E0
E0
E0
E0
E0
E0
E0
E0
E0
E0
E0
E0
E0
E0
E0
E0
E0
E0
E0
E0
ENDCHAR
STARTCHAR 0132
ENCODING 306
SWIDTH 666 0
DWIDTH 28 0
BBX 22 32 3 -1
BITMAP
E0001C
E0001C
E0001C
E0001C
E0001C
E0001C
E0001C
E0001C
E0001C
E0001C
E0001C
E0001C
E0001C
E0001C
E0001C
E0001C
E0001C
E0001C
E0001C
E0001C
E0001C
E0001C
E0001C
E0001C
E3801C
E3801C
E3C01C
E1C038
E1F078
E0FFF0
E07FE0
001F80
ENDCHAR
STARTCHAR 0133
ENCODING 307
SWIDTH 404 0
DWIDTH 17 0
BBX 11 39 3 -8
BITMAP
E0E0
E0E0
E0E0
E0E0
E0E0
0000
0000
0000
E0E0
E0E0
E0E0
E0E0
E0E0
E0E0
E0E0
E0E0
E0E0
E0E0
E0E0
E0E0
E0E0
E0E0
E0E0
E0E0
E0E0
E0E0
E0E0
E0E0
E0E0
E0E0
E0E0
00E0
00E0
00E0
01E0
03C0
1F80
1F00
1C00
ENDCHAR
STARTCHAR 0134
ENCODING 308
SWIDTH 476 0
DWIDTH 20 0
BBX 22 39 0 -1
BITMAP
0007C0
000FE0
001EF0
003C38
00701C
000000
000000
000380
000380
000380
000380
000380
000380
000380
000380
000380
000380
000380
000380
000380
000380
000380
000380
000380
000380
000380
000380
000380
000380
000380
000380
F00380
700780
700700
780F00
3C1F00
3FFE00
0FFC00
03F000
ENDCHAR
STARTCHAR 0135
ENCODING 309
SWIDTH 214 0
DWIDTH 9 0
BBX 14 39 -3 -8
BITMAP
0380
0FC0
1EE0
3C78
783C
8000
0000
0000
0380
0380
0380
0380
0380
0380
0380
0380
0380
0380
0380
0380
0380
0380
0380
0380
0380
0380
0380
0380
0380
0380
0380
0380
0380
0700
0700
1F00
7E00
7C00
7000
ENDCHAR
STARTCHAR 0136
ENCODING 310
SWIDTH 595 0
DWIDTH 25 0
BBX 21 40 3 -9
BITMAP
E00078
E000F0
E000F0
E001E0
E003C0
E00780
E00F00
E00E00
E01E00
E03C00
E07800
E0F000
E0E000
E1E000
E3C000
E7C000
EFC000
EFE000
FEF000
FC7800
F83800
F03C00
E01E00
E00F00
E00780
E00780
E003C0
E001E0
E000F0
E000F0
E00078
000000
000000
007000
007000
007000
00F000
00E000
00E000
00E000
ENDCHAR
STARTCHAR 0137
ENCODING 311
SWIDTH 500 0
DWIDTH 21 0
BBX 17 40 3 -9
BITMAP
E00000
E00000
E00000
E00000
E00000
E00000
E00000
E00000
E00780
E00F00
E00E00
E01E00
E03C00
E07800
E0F000
E0E000
E1E000
E3C000
E78000
E70000
EF8000
FFC000
FDE000
F8F000
F07000
E07800
E03C00
E01E00
E00F00
E00780
E00380
000000
000000
01C000
01C000
01C000
038000
038000
038000
038000
ENDCHAR
STARTCHAR 0139
ENCODING 313
SWIDTH 452 0
DWIDTH 19 0
BBX 17 40 2 0
BITMAP
010000
038000
0F8000
3F0000
7C0000
F00000
600000
000000
000000
700000
700000
700000
700000
700000
700000
700000
700000
700000
700000
700000
700000
700000
700000
700000
700000
700000
700000
700000
700000
700000
700000
700000
700000
700000
700000
700000
700000
7FFF80
7FFF80
7FFF80
ENDCHAR
STARTCHAR 013A
ENCODING 314
SWIDTH 190 0
DWIDTH 8 0
BBX 10 39 1 1
BITMAP
0380
07C0
1F00
7E00
F800
6000
0000
0000
3800
3800
3800
3800
3800
3800
3800
3800
3800
3800
3800
3800
3800
3800
3800
3800
3800
3800
3800
3800
3800
3800
3800
3800
3800
3800
3800
3800
3800
3800
3800
ENDCHAR
STARTCHAR 013B
ENCODING 315
SWIDTH 452 0
DWIDTH 19 0
BBX 16 40 3 -9
BITMAP
E000
E000
E000
E000
E000
E000
E000
E000
E000
E000
E000
E000
E000
E000
E000
E000
E000
E000
E000
E000
E000
E000
E000
E000
E000
E000
E000
E000
FFFF
FFFF
FFFF
0000
0000
01C0
01C0
03C0
0380
0380
0380
0700
ENDCHAR
STARTCHAR 013C
ENCODING 316
SWIDTH 190 0
DWIDTH 8 0
BBX 5 40 1 -9
BITMAP
38
38
38
38
38
38
38
38
38
38
38
38
38
38
38
38
38
38
38
38
38
38
38
38
38
38
38
38
38
38
38
00
00
38
38
78
70
70
70
E0
ENDCHAR
STARTCHAR 013D
ENCODING 317
SWIDTH 452 0
DWIDTH 19 0
BBX 16 31 3 0
BITMAP
E0E0
E0E0
E1C0
E1C0
E1C0
E3C0
E380
E000
E000
E000
E000
E000
E000
E000
E000
E000
E000
E000
E000
E000
E000
E000
E000
E000
E000
E000
E000
E000
FFFF
FFFF
FFFF
ENDCHAR
STARTCHAR 013E
ENCODING 318
SWIDTH 190 0
DWIDTH 8 0
BBX 10 31 3 0
BITMAP
E1C0
E1C0
E1C0
E3C0
E380
E380
E380
E000
E000
E000
E000
E000
E000
E000
E000
E000
E000
E000
E000
E000
E000
E000
E000
E000
E000
E000
E000
E000
E000
E000
E000
ENDCHAR
STARTCHAR 013F
ENCODING 319
SWIDTH 452 0
DWIDTH 19 0
BBX 16 31 3 0
BITMAP
E000
E000
E000
E000
E000
E000
E000
E000
E000
E000
E000
E000
E038
E038
E038
E038
E038
E000
E000
E000
E000
E000
E000
E000
E000
E000
E000
E000
FFFF
FFFF
FFFF
ENDCHAR
STARTCHAR 0140
ENCODING 320
SWIDTH 285 0
DWIDTH 12 0
BBX 9 31 3 0
BITMAP
E000
E000
E000
E000
E000
E000
E000
E000
E000
E000
E000
E000
E780
E780
E780
E780
E780
E000
E000
E000
E000
E000
E000
E000
E000
E000
E000
E000
E000
E000
E000
ENDCHAR
STARTCHAR 0141
ENCODING 321
SWIDTH 523 0
DWIDTH 22 0
BBX 20 31 1 0
BITMAP
0E0000
0E0000
0E0000
0E0000
0E0000
0E0000
0E0000
0E0000
0E0C00
0E1C00
0E3C00
0E7800
0FF000
0FE000
0F8000
1F0000
3E0000
7E0000
FE0000
EE0000
8E0000
0E0000
0E0000
0E0000
0E0000
0E0000
0E0000
0E0000
0FFFF0
0FFFF0
0FFFF0
ENDCHAR
STARTCHAR 0142
ENCODING 322
SWIDTH 309 0
DWIDTH 13 0
BBX 9 31 2 0
BITMAP
1C00
1C00
1C00
1C00
1C00
1C00
1C00
1C00
1C00
1C00
1C80
1D80
1F80
1F00
7E00
FC00
FC00
9C00
1C00
1C00
1C00
1C00
1C00
1C00
1C00
1C00
1C00
1C00
1C00
1C00
1C00
ENDCHAR
STARTCHAR 0143
ENCODING 323
SWIDTH 738 0
DWIDTH 31 0
BBX 25 40 3 0
BITMAP
00004000
0001C000
0003E000
000F8000
003F0000
003C0000
00300000
00000000
00000000
F8000380
F8000380
FC000380
FE000380
EE000380
EF000380
E7800380
E3800380
E1C00380
E1E00380
E0F00380
E0700380
E0780380
E03C0380
E01C0380
E01E0380
E00F0380
E0070380
E0078380
E003C380
E001C380
E001E380
E000F380
E0007380
E0007B80
E0003F80
E0001F80
E0001F80
E0000F80
E0000780
E0000780
ENDCHAR
STARTCHAR 0144
ENCODING 324
SWIDTH 619 0
DWIDTH 26 0
BBX 20 32 3 0
BITMAP
000200
000F00
003F00
007C00
01F000
01E000
008000
000000
01FC00
E7FF00
EFFF80
FC07C0
F801E0
F001E0
F000E0
E000F0
E00070
E00070
E00070
E00070
E00070
E00070
E00070
E00070
E00070
E00070
E00070
E00070
E00070
E00070
E00070
E00070
ENDCHAR
STARTCHAR 0145
ENCODING 325
SWIDTH 738 0
DWIDTH 31 0
BBX 25 40 3 -9
BITMAP
F8000380
F8000380
FC000380
FE000380
EE000380
EF000380
E7800380
E3800380
E1C00380
E1E00380
E0F00380
E0700380
E0780380
E03C0380
E01C0380
E01E0380
E00F0380
E0070380
E0078380
E003C380
E001C380
E001E380
E000F380
E0007380
E0007B80
E0003F80
E0001F80
E0001F80
E0000F80
E0000780
E0000780
00000000
00000000
001C0000
001C0000
001C0000
001C0000
00380000
00380000
00380000
ENDCHAR
STARTCHAR 0146
ENCODING 326
SWIDTH 619 0
DWIDTH 26 0
BBX 20 33 3 -9
BITMAP
01FC00
E7FF00
EFFF80
FC07C0
F801E0
F001E0
F000E0
E000F0
E00070
E00070
E00070
E00070
E00070
E00070
E00070
E00070
E00070
E00070
E00070
E00070
E00070
E00070
E00070
E00070
000000
000000
007000
00E000
00E000
00E000
00E000
01C000
01C000
ENDCHAR
STARTCHAR 0147
ENCODING 327
SWIDTH 738 0
DWIDTH 31 0
BBX 25 38 3 0
BITMAP
03C1E000
01E3C000
00F78000
003E0000
001C0000
00000000
00000000
F8000380
F8000380
FC000380
FE000380
EE000380
EF000380
E7800380
E3800380
E1C00380
E1E00380
E0F00380
E0700380
E0780380
E03C0380
E01C0380
E01E0380
E00F0380
E0070380
E0078380
E003C380
E001C380
E001E380
E000F380
E0007380
E0007B80
E0003F80
E0001F80
E0001F80
E0000F80
E0000780
E0000780
ENDCHAR
STARTCHAR 0148
ENCODING 328
SWIDTH 619 0
DWIDTH 26 0
BBX 20 31 3 0
BITMAP
1C0780
0F0F00
079E00
03F800
01F000
000000
000000
01FC00
E7FF00
EFFF80
FC07C0
F801E0
F001E0
F000E0
E000F0
E00070
E00070
E00070
E00070
E00070
E00070
E00070
E00070
E00070
E00070
E00070
E00070
E00070
E00070
E00070
E00070
ENDCHAR
STARTCHAR 014A
ENCODING 330
SWIDTH 738 0
DWIDTH 31 0
BBX 25 42 3 -11
BITMAP
F8000380
F8000380
FC000380
FE000380
EE000380
EF000380
E7800380
E3800380
E1C00380
E1E00380
E0F00380
E0700380
E0780380
E03C0380
E01C0380
E01E0380
E00F0380
E0070380
E0078380
E003C380
E001C380
E001E380
E000F380
E0007380
E0007B80
E0003F80
E0001F80
E0001F80
E0000F80
E0000780
E0000780
00000380
00000380
00000380
00E00780
00700700
00700700
00780F00
003C1E00
003FFE00
000FF800
0003E000
ENDCHAR
STARTCHAR 014B
ENCODING 331
SWIDTH 619 0
DWIDTH 26 0
BBX 20 32 3 -8
BITMAP
01FC00
E7FF00
EFFF80
FC07C0
F801E0
F001E0
F000E0
E000F0
E00070
E00070
E00070
E00070
E00070
E00070
E00070
E00070
E00070
E00070
E00070
E00070
E00070
E00070
E00070
E00070
000070
000070
0000F0
0000E0
0001E0
000FC0
000F80
000E00
ENDCHAR
STARTCHAR 014C
ENCODING 332
SWIDTH 880 0
DWIDTH 37 0
BBX 33 39 2 -1
BITMAP
007FFE0000
007FFE0000
007FFE0000
0000000000
0000000000
0000000000
000FF00000
003FFE0000
00FFFF8000
03F00FC000
07C003F000
0F8000F800
1E00007800
1C00003C00
3C00001E00
7800000E00
7000000F00
7000000700
F000000700
E000000700
E000000780
E000000780
E000000780
E000000780
E000000780
E000000700
F000000700
7000000700
7000000F00
7800000E00
3C00001E00
1C00003C00
1E00007800
0F8000F000
07C001E000
03F00FC000
00FFFF8000
007FFE0000
000FF00000
ENDCHAR
STARTCHAR 014D
ENCODING 333
SWIDTH 666 0
DWIDTH 28 0
BBX 24 31 2 -1
BITMAP
07FFE0
07FFE0
07FFE0
000000
000000
000000
00FF00
03FFC0
0FFFE0
1F01F0
3E0078
3C003C
78001C
70001E
F0000E
E0000E
E0000F
E00007
E00007
E00007
E0000F
E0000E
F0000E
70000E
78001C
3C003C
3E0078
1F81F0
0FFFE0
03FFC0
00FE00
ENDCHAR
STARTCHAR 014E
ENCODING 334
SWIDTH 880 0
DWIDTH 37 0
BBX 33 40 2 -1
BITMAP
00380E0000
00380C0000
001C1C0000
001FF80000
000FF00000
0000000000
0000000000
000FF00000
003FFE0000
00FFFF8000
03F00FC000
07C003F000
0F8000F800
1E00007800
1C00003C00
3C00001E00
7800000E00
7000000F00
7000000700
F000000700
E000000700
E000000780
E000000780
E000000780
E000000780
E000000780
E000000700
F000000700
7000000700
7000000F00
7800000E00
3C00001E00
1C00003C00
1E00007800
0F8000F000
07C001E000
03F00FC000
00FFFF8000
007FFE0000
000FF00000
ENDCHAR
STARTCHAR 014F
ENCODING 335
SWIDTH 666 0
DWIDTH 28 0
BBX 24 32 2 -1
BITMAP
0301C0
0381C0
03E780
01FF00
007E00
000000
000000
00FF00
03FFC0
0FFFE0
1F01F0
3E0078
3C003C
78001C
70001E
F0000E
E0000E
E0000F
E00007
E00007
E00007
E0000F
E0000E
F0000E
70000E
78001C
3C003C
3E0078
1F81F0
0FFFE0
03FFC0
00FE00
ENDCHAR
STARTCHAR 0150
ENCODING 336
SWIDTH 880 0
DWIDTH 37 0
BBX 33 41 2 -1
BITMAP
0000406000
0000E0E000
0003E3E000
0007878000
001F0F0000
001C1E0000
0008080000
0000000000
000FF00000
003FFE0000
00FFFF8000
03F00FC000
07C003F000
0F8000F800
1E00007800
1C00003C00
3C00001E00
7800000E00
7000000F00
7000000700
F000000700
E000000700
E000000780
E000000780
E000000780
E000000780
E000000780
E000000700
F000000700
7000000700
7000000F00
7800000E00
3C00001E00
1C00003C00
1E00007800
0F8000F000
07C001E000
03F00FC000
00FFFF8000
007FFE0000
000FF00000
ENDCHAR
STARTCHAR 0151
ENCODING 337
SWIDTH 666 0
DWIDTH 28 0
BBX 24 33 2 -1
BITMAP
000C04
001E1E
003C3C
00F878
01E1F0
01C1C0
010080
000000
00FF00
03FFC0
0FFFE0
1F01F0
3E0078
3C003C
78001C
70001E
F0000E
E0000E
E0000F
E00007
E00007
E00007
E0000F
E0000E
F0000E
70000E
78001C
3C003C
3E0078
1F81F0
0FFFE0
03FFC0
00FE00
ENDCHAR
STARTCHAR 0152
ENCODING 338
SWIDTH 1190 0
DWIDTH 50 0
BBX 46 33 2 -1
BITMAP
000FF8000000
007FFE07FFFC
01FFFF87FFFC
03F00FC7FFFC
07C001E70000
0F0000F70000
1E00007F0000
3C00003F0000
3800001F0000
7800000F0000
7000000F0000
7000000F0000
F00000070000
E00000070000
E00000070000
E0000007FFF8
E0000007FFF8
E0000007FFF8
E00000070000
E00000070000
F00000070000
700000070000
7000000F0000
7800000F0000
3800001F0000
3C00003F0000
1E00003F0000
0F0000F70000
07C001F70000
03F007E7FFFC
01FFFF87FFFC
007FFF07FFFC
000FF8000000
ENDCHAR
STARTCHAR 0153
ENCODING 339
SWIDTH 1142 0
DWIDTH 48 0
BBX 44 25 2 -1
BITMAP
00FE0007F000
03FFC03FFC00
0FFFE07FFF00
1F01F0F80F80
3E0079E007C0
3C0039C003C0
78001F8001E0
70001F8000E0
F0000F0000F0
E0000F000070
E0000F000070
E0000FFFFFF0
E00007FFFFF0
E00007FFFFF0
E0000F000000
E0000F000000
F0000F000000
70001F8000E0
78001F8000E0
3C003BC001C0
3E0079E003C0
1F81F0F80F80
0FFFE07FFF00
03FFC01FFC00
00FE0007F000
ENDCHAR
STARTCHAR 0154
ENCODING 340
SWIDTH 619 0
DWIDTH 26 0
BBX 21 40 3 0
BITMAP
000200
000600
001F00
007E00
00F800
01E000
01C000
000000
000000
FFF800
FFFF80
FFFFC0
E007E0
E000F0
E00070
E00078
E00038
E00038
E00038
E00038
E00038
E00038
E00078
E00070
E000F0
E007E0
E1FFC0
E0FF00
E0F000
E07800
E03C00
E01C00
E01E00
E00F00
E00780
E00380
E003C0
E001E0
E000F0
E00070
ENDCHAR
STARTCHAR 0155
ENCODING 341
SWIDTH 309 0
DWIDTH 13 0
BBX 9 32 3 0
BITMAP
0100
0780
1F80
3E00
F800
F000
4000
0000
0180
E780
EF80
FE00
F800
F000
F000
E000
E000
E000
E000
E000
E000
E000
E000
E000
E000
E000
E000
E000
E000
E000
E000
E000
ENDCHAR
STARTCHAR 0156
ENCODING 342
SWIDTH 619 0
DWIDTH 26 0
BBX 21 40 3 -9
BITMAP
FFF800
FFFF80
FFFFC0
E007E0
E000F0
E00070
E00078
E00038
E00038
E00038
E00038
E00038
E00038
E00078
E00070
E000F0
E007E0
E1FFC0
E0FF00
E0F000
E07800
E03C00
E01C00
E01E00
E00F00
E00780
E00380
E003C0
E001E0
E000F0
E00070
000000
000000
007000
00E000
00E000
00E000
01E000
01C000
01C000
ENDCHAR
STARTCHAR 0157
ENCODING 343
SWIDTH 309 0
DWIDTH 13 0
BBX 11 33 1 -9
BITMAP
0060
39E0
3BE0
3F80
3E00
3C00
3C00
3800
3800
3800
3800
3800
3800
3800
3800
3800
3800
3800
3800
3800
3800
3800
3800
3800
0000
0000
3800
3800
7800
7000
7000
7000
E000
ENDCHAR
STARTCHAR 0158
ENCODING 344
SWIDTH 619 0
DWIDTH 26 0
BBX 21 38 3 0
BITMAP
1E0F80
0F1E00
03BC00
01F800
00F000
000000
000000
FFF800
FFFF80
FFFFC0
E007E0
E000F0
E00070
E00078
E00038
E00038
E00038
E00038
E00038
E00038
E00078
E00070
E000F0
E007E0
E1FFC0
E0FF00
E0F000
E07800
E03C00
E01C00
E01E00
E00F00
E00780
E00380
E003C0
E001E0
E000F0
E00070
ENDCHAR
STARTCHAR 0159
ENCODING 345
SWIDTH 309 0
DWIDTH 13 0
BBX 14 31 -1 0
BITMAP
E03C
7878
3CF0
1FC0
0F80
0700
0000
0018
0E78
0EF8
0FE0
0F80
0F00
0F00
0E00
0E00
0E00
0E00
0E00
0E00
0E00
0E00
0E00
0E00
0E00
0E00
0E00
0E00
0E00
0E00
0E00
ENDCHAR
STARTCHAR 015A
ENCODING 346
SWIDTH 500 0
DWIDTH 21 0
BBX 19 41 1 -1
BITMAP
000600
000E00
003E00
00FC00
01F000
01C000
018000
000000
01F800
07FE00
1FFF00
1E0F80
3C0780
3803C0
7001C0
7001C0
7001C0
700000
700000
780000
3C0000
3E0000
1FC000
0FF800
03FE00
003F80
000F80
0003C0
0001C0
0001E0
0000E0
0000E0
E000E0
F000E0
F001E0
7801C0
7803C0
3E0780
1FFF00
0FFE00
03F800
ENDCHAR
STARTCHAR 015B
ENCODING 347
SWIDTH 380 0
DWIDTH 16 0
BBX 14 33 1 0
BITMAP
0038
00F8
01F0
07E0
0F80
0600
0000
0000
07C0
1FE0
3FF0
7878
7038
703C
7000
7000
7800
7C00
3F00
1FC0
07F0
01F8
007C
003C
001C
E01C
E01C
E01C
F03C
7878
7FF8
3FF0
0FC0
ENDCHAR
STARTCHAR 015C
ENCODING 348
SWIDTH 500 0
DWIDTH 21 0
BBX 19 40 1 -1
BITMAP
00E000
01F800
07BC00
0F1E00
1E0F00
000000
000000
01F800
07FE00
1FFF00
1E0F80
3C0780
3803C0
7001C0
7001C0
7001C0
700000
700000
780000
3C0000
3E0000
1FC000
0FF800
03FE00
003F80
000F80
0003C0
0001C0
0001E0
0000E0
0000E0
E000E0
F000E0
F001E0
7801C0
7803C0
3E0780
1FFF00
0FFE00
03F800
ENDCHAR
STARTCHAR 015D
ENCODING 349
SWIDTH 380 0
DWIDTH 16 0
BBX 14 32 1 -1
BITMAP
0780
0FE0
1CF0
7878
F03C
0000
0000
07C0
1FE0
3FF0
7878
7038
703C
7000
7000
7800
7C00
3F00
1FC0
07F0
01F8
007C
003C
001C
E01C
E01C
E01C
F03C
7878
7FF8
3FF0
0FC0
ENDCHAR
STARTCHAR 015E
ENCODING 350
SWIDTH 500 0
DWIDTH 21 0
BBX 19 42 1 -10
BITMAP
01F800
0FFE00
1FFF00
3E0F80
3803C0
7803C0
7001C0
7001C0
700000
700000
780000
380000
3E0000
1FC000
0FF800
03FE00
007F00
000F80
0003C0
0001C0
0001E0
0000E0
0000E0
E000E0
F000E0
F001E0
7001C0
7803C0
3C0780
3FFF80
0FFE00
07FC00
006000
00C000
01F800
01FC00
008E00
000E00
000E00
038C00
01FC00
00F800
ENDCHAR
STARTCHAR 015F
ENCODING 351
SWIDTH 380 0
DWIDTH 16 0
BBX 14 34 1 -10
BITMAP
07C0
1FF0
3FF0
7878
7038
703C
7000
7000
7800
7C00
3F80
1FE0
07F0
00F8
003C
001C
001C
E01C
E01C
E01C
F03C
7FF8
3FF0
1FE0
0300
0300
07E0
07F0
0670
0030
0030
0E70
07F0
03E0
ENDCHAR
STARTCHAR 0160
ENCODING 352
SWIDTH 500 0
DWIDTH 21 0
BBX 19 40 1 -1
BITMAP
3C0780
0E0E00
07BC00
03F800
01F000
000000
000000
01F800
07FE00
1FFF00
1E0F80
3C0780
3803C0
7001C0
7001C0
7001C0
700000
700000
780000
3C0000
3E0000
1FC000
0FF800
03FE00
003F80
000F80
0003C0
0001C0
0001E0
0000E0
0000E0
E000E0
F000E0
F001E0
7801C0
7803C0
3E0780
1FFF00
0FFE00
03F800
ENDCHAR
STARTCHAR 0161
ENCODING 353
SWIDTH 380 0
DWIDTH 16 0
BBX 14 32 1 -1
BITMAP
F03C
3870
1FE0
0FC0
0780
0000
0000
07C0
1FE0
3FF0
7878
7038
703C
7000
7000
7800
7C00
3F00
1FC0
07F0
01F8
007C
003C
001C
E01C
E01C
E01C
F03C
7878
7FF8
3FF0
0FC0
ENDCHAR
STARTCHAR 0162
ENCODING 354
SWIDTH 428 0
DWIDTH 18 0
BBX 18 41 0 -10
BITMAP
FFFFC0
FFFFC0
FFFFC0
01E000
01E000
01E000
01E000
01E000
01E000
01E000
01E000
01E000
01E000
01E000
01E000
01E000
01E000
01E000
01E000
01E000
01E000
01E000
01E000
01E000
01E000
01E000
01E000
01E000
01E000
01E000
01E000
01C000
018000
03F000
03F800
011800
001C00
001C00
071800
03F800
01F000
ENDCHAR
STARTCHAR 0163
ENCODING 355
SWIDTH 333 0
DWIDTH 14 0
BBX 13 41 1 -10
BITMAP
0F00
0F00
0F00
0F00
0F00
0F00
0F00
0F00
FFF8
FFF8
FFF8
0F00
0F00
0F00
0F00
0F00
0F00
0F00
0F00
0F00
0F00
0F00
0F00
0F00
0F00
0F00
0F00
0F00
0F00
0F00
0F00
0600
0C00
1F80
1FC0
08E0
00E0
00E0
38C0
1FC0
0F80
ENDCHAR
STARTCHAR 0164
ENCODING 356
SWIDTH 428 0
DWIDTH 18 0
BBX 18 38 0 0
BITMAP
3C1F00
0E3C00
07F800
03F000
01E000
000000
000000
FFFFC0
FFFFC0
FFFFC0
01E000
01E000
01E000
01E000
01E000
01E000
01E000
01E000
01E000
01E000
01E000
01E000
01E000
01E000
01E000
01E000
01E000
01E000
01E000
01E000
01E000
01E000
01E000
01E000
01E000
01E000
01E000
01E000
ENDCHAR
STARTCHAR 0165
ENCODING 357
SWIDTH 333 0
DWIDTH 14 0
BBX 14 32 1 0
BITMAP
001C
0F1C
0F38
0F38
0F38
0F38
0F70
0F70
0F00
FFF8
FFF8
FFF8
0F00
0F00
0F00
0F00
0F00
0F00
0F00
0F00
0F00
0F00
0F00
0F00
0F00
0F00
0F00
0F00
0F00
0F00
0F00
0F00
ENDCHAR
STARTCHAR 0168
ENCODING 360
SWIDTH 666 0
DWIDTH 28 0
BBX 21 39 3 -1
BITMAP
03C100
07F300
07FF80
063F00
000400
000000
000000
E00038
E00038
E00038
E00038
E00038
E00038
E00038
E00038
E00038
E00038
E00038
E00038
E00038
E00038
E00038
E00038
E00038
E00038
E00038
E00038
E00038
E00038
F00038
700038
700038
700070
780070
3C00F0
1E03E0
0FFFC0
07FF80
01FC00
ENDCHAR
STARTCHAR 0169
ENCODING 361
SWIDTH 619 0
DWIDTH 26 0
BBX 20 32 3 -1
BITMAP
020000
07C200
0FFF00
0C7E00
081C00
000000
000000
000000
E00070
E00070
E00070
E00070
E00070
E00070
E00070
E00070
E00070
E00070
E00070
E00070
E00070
E00070
E00070
E000F0
E000F0
F000F0
7001F0
7803F0
3C0770
3FFF70
0FFE70
03F800
ENDCHAR
STARTCHAR 016A
ENCODING 362
SWIDTH 666 0
DWIDTH 28 0
BBX 21 38 3 -1
BITMAP
0FFFC0
0FFFC0
0FFFC0
000000
000000
000000
E00038
E00038
E00038
E00038
E00038
E00038
E00038
E00038
E00038
E00038
E00038
E00038
E00038
E00038
E00038
E00038
E00038
E00038
E00038
E00038
E00038
E00038
F00038
700038
700038
700070
780070
3C00F0
1E03E0
0FFFC0
07FF80
01FC00
ENDCHAR
STARTCHAR 016B
ENCODING 363
SWIDTH 619 0
DWIDTH 26 0
BBX 20 31 3 -1
BITMAP
1FFF80
1FFF80
1FFF80
000000
000000
000000
000000
E00070
E00070
E00070
E00070
E00070
E00070
E00070
E00070
E00070
E00070
E00070
E00070
E00070
E00070
E00070
E000F0
E000F0
F000F0
7001F0
7803F0
3C0770
3FFF70
0FFE70
03F800
ENDCHAR
STARTCHAR 016C
ENCODING 364
SWIDTH 666 0
DWIDTH 28 0
BBX 21 39 3 -1
BITMAP
060380
070380
07CF00
03FE00
00FC00
000000
000000
E00038
E00038
E00038
E00038
E00038
E00038
E00038
E00038
E00038
E00038
E00038
E00038
E00038
E00038
E00038
E00038
E00038
E00038
E00038
E00038
E00038
E00038
F00038
700038
700038
700070
780070
3C00F0
1E03E0
0FFFC0
07FF80
01FC00
ENDCHAR
STARTCHAR 016D
ENCODING 365
SWIDTH 619 0
DWIDTH 26 0
BBX 20 32 3 -1
BITMAP
1C0700
0C0700
0E0E00
07FE00
03FC00
000000
000000
000000
E00070
E00070
E00070
E00070
E00070
E00070
E00070
E00070
E00070
E00070
E00070
E00070
E00070
E00070
E00070
E000F0
E000F0
F000F0
7001F0
7803F0
3C0770
3FFF70
0FFE70
03F800
ENDCHAR
STARTCHAR 016E
ENCODING 366
SWIDTH 666 0
DWIDTH 28 0
BBX 21 43 3 -1
BITMAP
007800
00FC00
018E00
018600
010600
018600
018E00
00FC00
007800
000000
000000
E00038
E00038
E00038
E00038
E00038
E00038
E00038
E00038
E00038
E00038
E00038
E00038
E00038
E00038
E00038
E00038
E00038
E00038
E00038
E00038
E00038
E00038
F00038
700038
700038
700070
780070
3C00F0
1E03E0
0FFFC0
07FF80
01FC00
ENDCHAR
STARTCHAR 016F
ENCODING 367
SWIDTH 619 0
DWIDTH 26 0
BBX 20 35 3 -1
BITMAP
00F000
01F800
031C00
030C00
020C00
030C00
031C00
01F800
00F000
000000
000000
E00070
E00070
E00070
E00070
E00070
E00070
E00070
E00070
E00070
E00070
E00070
E00070
E00070
E00070
E00070
E000F0
E000F0
F000F0
7001F0
7803F0
3C0770
3FFF70
0FFE70
03F800
ENDCHAR
STARTCHAR 0170
ENCODING 368
SWIDTH 666 0
DWIDTH 28 0
BBX 22 41 3 -1
BITMAP
000808
00181C
007C3C
00F0F8
01E1E0
0787C0
030300
000000
000000
E00038
E00038
E00038
E00038
E00038
E00038
E00038
E00038
E00038
E00038
E00038
E00038
E00038
E00038
E00038
E00038
E00038
E00038
E00038
E00038
E00038
E00038
F00038
700038
700038
700070
780070
3C00F0
1E03E0
0FFFC0
07FF80
01FC00
ENDCHAR
STARTCHAR 0171
ENCODING 369
SWIDTH 619 0
DWIDTH 26 0
BBX 21 33 3 -1
BITMAP
001010
003038
00F878
01E1F0
03C3C0
0F0F80
060600
000000
000000
E00070
E00070
E00070
E00070
E00070
E00070
E00070
E00070
E00070
E00070
E00070
E00070
E00070
E00070
E00070
E000F0
E000F0
F000F0
7001F0
7803F0
3C0770
3FFF70
0FFE70
03F800
ENDCHAR
STARTCHAR 0172
ENCODING 370
SWIDTH 666 0
DWIDTH 28 0
BBX 21 42 3 -11
BITMAP
E00038
E00038
E00038
E00038
E00038
E00038
E00038
E00038
E00038
E00038
E00038
E00038
E00038
E00038
E00038
E00038
E00038
E00038
E00038
E00038
E00038
E00038
F00038
700038
700038
700070
780070
3C00F0
1E03E0
0FFFC0
07FF80
01FE00
001C00
003800
007000
007000
00F000
00F000
007000
007F00
003F00
001F00
ENDCHAR
STARTCHAR 0173
ENCODING 371
SWIDTH 619 0
DWIDTH 26 0
BBX 20 34 3 -11
BITMAP
E00070
E00070
E00070
E00070
E00070
E00070
E00070
E00070
E00070
E00070
E00070
E00070
E00070
E00070
E00070
E000F0
E000F0
F000F0
7001F0
7803F0
3C0770
3FFF70
0FFE70
03F870
0000C0
0001C0
000380
000780
000700
000780
000380
0003F0
0001F0
0000F0
ENDCHAR
STARTCHAR 0174
ENCODING 372
SWIDTH 952 0
DWIDTH 40 0
BBX 39 38 1 0
BITMAP
00007C0000
0000FE0000
0003CF0000
0007878000
000F03C000
0000000000
0000000000
E00038000E
E00078001C
E00078001C
F0007C001C
7000FC003C
7000FC0038
7000FC0038
3800EE0038
3801CE0070
3801CE0070
3C01CF0070
1C01C700F0
1C038700E0
1C038700E0
0E038380E0
0E070381C0
0E070381C0
0F070381C0
070701C3C0
070E01C380
070E01C380
038E01E380
039E00E700
039C00E700
03DC00E700
01DC00FF00
01FC007E00
01F8007E00
00F8007E00
00F8003C00
00F0003C00
ENDCHAR
STARTCHAR 0175
ENCODING 373
SWIDTH 833 0
DWIDTH 35 0
BBX 34 31 0 0
BITMAP
0000E00000
0001F00000
0007BC0000
000F1E0000
001E0F0000
0000000000
0000000000
0000000000
F0000001C0
70000001C0
70000001C0
3800E00380
3800E00380
3801F00700
1C01F00700
1C01F00700
0E03B80E00
0E03B80E00
0E03380E00
07071C1C00
07071C1C00
07871C3800
038E0E3800
038E0E3800
01CE0E7000
01DC077000
01DC07E000
00FC07E000
00F803E000
00F803C000
007803C000
ENDCHAR
STARTCHAR 0176
ENCODING 374
SWIDTH 595 0
DWIDTH 25 0
BBX 25 38 0 0
BITMAP
003E0000
007F0000
00F78000
01C3C000
0780E000
00000000
00000000
F0000780
70000700
78000E00
38000E00
3C001C00
1C001C00
1E003800
0E007800
0F007000
0700F000
0380E000
0381E000
01C1C000
01C3C000
00E38000
00E78000
00770000
007F0000
003E0000
003E0000
001C0000
001C0000
001C0000
001C0000
001C0000
001C0000
001C0000
001C0000
001C0000
001C0000
001C0000
ENDCHAR
STARTCHAR 0177
ENCODING 375
SWIDTH 547 0
DWIDTH 23 0
BBX 21 39 1 -8
BITMAP
007000
01F800
03DC00
078E00
0F0780
100000
000000
000000
E00038
E00070
F00070
7000F0
7800E0
3801E0
3801C0
3C01C0
1C0380
1E0380
0E0780
0E0700
0F0700
070E00
078E00
039C00
039C00
03FC00
01F800
01F800
00F000
00F000
00F000
00E000
01E000
01C000
03C000
038000
038000
078000
070000
ENDCHAR
STARTCHAR 0178
ENCODING 376
SWIDTH 595 0
DWIDTH 25 0
BBX 25 38 0 0
BITMAP
00E38000
00E38000
00E38000
00E38000
00E38000
00000000
00000000
F0000780
70000700
78000E00
38000E00
3C001C00
1C001C00
1E003800
0E007800
0F007000
0700F000
0380E000
0381E000
01C1C000
01C3C000
00E38000
00E78000
00770000
007F0000
003E0000
003E0000
001C0000
001C0000
001C0000
001C0000
001C0000
001C0000
001C0000
001C0000
001C0000
001C0000
001C0000
ENDCHAR
STARTCHAR 0179
ENCODING 377
SWIDTH 476 0
DWIDTH 20 0
BBX 19 39 1 1
BITMAP
000E00
003F00
007C00
01F800
03E000
018000
000000
000000
FFFFC0
FFFFC0
FFFFC0
0001C0
000380
000780
000700
000F00
000E00
001C00
003C00
003800
007800
007000
00E000
01E000
01C000
03C000
038000
070000
0F0000
0E0000
1E0000
1C0000
380000
780000
700000
F00000
FFFFE0
FFFFE0
FFFFE0
ENDCHAR
STARTCHAR 017A
ENCODING 378
SWIDTH 428 0
DWIDTH 18 0
BBX 17 32 0 0
BITMAP
000C00
001E00
007E00
00F800
03E000
03C000
010000
000000
000000
7FFF80
7FFF80
7FFF80
000700
000E00
001E00
003C00
003800
007000
00F000
01E000
01C000
03C000
078000
070000
0E0000
1E0000
3C0000
380000
780000
FFFF80
FFFF80
FFFF80
ENDCHAR
STARTCHAR 017B
ENCODING 379
SWIDTH 476 0
DWIDTH 20 0
BBX 19 38 1 0
BITMAP
00E000
00E000
00E000
00E000
00E000
000000
000000
FFFFC0
FFFFC0
FFFFC0
0001C0
000380
000780
000700
000F00
000E00
001C00
003C00
003800
007800
007000
00E000
01E000
01C000
03C000
038000
070000
0F0000
0E0000
1E0000
1C0000
380000
780000
700000
F00000
FFFFE0
FFFFE0
FFFFE0
ENDCHAR
STARTCHAR 017C
ENCODING 380
SWIDTH 428 0
DWIDTH 18 0
BBX 17 31 0 0
BITMAP
01C000
01C000
01C000
01C000
01C000
000000
000000
000000
7FFF80
7FFF80
7FFF80
000700
000E00
001E00
003C00
003800
007000
00F000
01E000
01C000
03C000
078000
070000
0E0000
1E0000
3C0000
380000
780000
FFFF80
FFFF80
FFFF80
ENDCHAR
STARTCHAR 017D
ENCODING 381
SWIDTH 476 0
DWIDTH 20 0
BBX 19 38 1 0
BITMAP
3E0F00
0F1E00
07F800
03F000
01E000
000000
000000
FFFFC0
FFFFC0
FFFFC0
0001C0
000380
000780
000700
000F00
000E00
001C00
003C00
003800
007800
007000
00E000
01E000
01C000
03C000
038000
070000
0F0000
0E0000
1E0000
1C0000
380000
780000
700000
F00000
FFFFE0
FFFFE0
FFFFE0
ENDCHAR
STARTCHAR 017E
ENCODING 382
SWIDTH 428 0
DWIDTH 18 0
BBX 17 31 0 0
BITMAP
380F00
1E1E00
0F3C00
07F000
03E000
000000
000000
000000
7FFF80
7FFF80
7FFF80
000700
000E00
001E00
003C00
003800
007000
00F000
01E000
01C000
03C000
078000
070000
0E0000
1E0000
3C0000
380000
780000
FFFF80
FFFF80
FFFF80
ENDCHAR
STARTCHAR 017F
ENCODING 383
SWIDTH 309 0
DWIDTH 13 0
BBX 12 31 1 0
BITMAP
00F0
03F0
07F0
0F00
0E00
0E00
1C00
1C00
FC00
FC00
FC00
1C00
1C00
1C00
1C00
1C00
1C00
1C00
1C00
1C00
1C00
1C00
1C00
1C00
1C00
1C00
1C00
1C00
1C00
1C00
1C00
ENDCHAR
STARTCHAR 018E
ENCODING 398
SWIDTH 547 0
DWIDTH 23 0
BBX 17 31 3 0
BITMAP
FFFF80
FFFF80
FFFF80
000380
000380
000380
000380
000380
000380
000380
000380
000380
000380
000380
7FFF80
7FFF80
7FFF80
000380
000380
000380
000380
000380
000380
000380
000380
000380
000380
000380
FFFF80
FFFF80
FFFF80
ENDCHAR
STARTCHAR 0192
ENCODING 402
SWIDTH 547 0
DWIDTH 23 0
BBX 22 41 1 -7
BITMAP
00003C
0000FC
0001FC
0001C0
000380
000380
000700
000700
000700
00FFF0
00FFF0
01FFF0
000E00
000E00
000E00
001C00
001C00
001C00
001C00
001C00
001800
003800
003800
003800
003800
003800
007000
007000
007000
007000
007000
006000
00E000
00E000
00E000
01C000
03C000
078000
FF8000
FE0000
F80000
ENDCHAR
STARTCHAR 01A0
ENCODING 416
SWIDTH 880 0
DWIDTH 37 0
BBX 33 33 2 -1
BITMAP
000FF00000
003FFE0380
00FFFF8300
03F00FC700
07C003E700
0F8000FE00
1E00007E00
1C00003C00
3C00001C00
7800000E00
7000000E00
7000000700
F000000700
E000000700
E000000780
E000000780
E000000780
E000000780
E000000780
E000000700
F000000700
7000000700
7000000F00
7800000E00
3C00001E00
3C00003C00
1E00007800
0F8000F000
07C001F000
03F00FC000
01FFFF8000
007FFE0000
000FF00000
ENDCHAR
STARTCHAR 01A1
ENCODING 417
SWIDTH 666 0
DWIDTH 28 0
BBX 25 25 2 -1
BITMAP
00FE0000
03FFC180
0FFFE180
1F01F380
3E007B80
3C003F00
78001F00
70001E00
F0000E00
E0000E00
E0000F00
E0000700
E0000700
E0000700
E0000F00
E0000F00
F0000E00
70000E00
78001E00
3C003C00
3E007800
1F81F000
0FFFE000
03FFC000
00FE0000
ENDCHAR
STARTCHAR 01AF
ENCODING 431
SWIDTH 714 0
DWIDTH 30 0
BBX 26 32 3 -1
BITMAP
E00039C0
E00039C0
E00039C0
E0003B80
E0003F80
E0003F00
E0003E00
E0003C00
E0003800
E0003800
E0003800
E0003800
E0003800
E0003800
E0003800
E0003800
E0003800
E0003800
E0003800
E0003800
E0003800
E0003800
F0003800
F0003800
70003800
70007800
78007000
3C00F000
1F03E000
0FFFC000
07FF0000
01FC0000
ENDCHAR
STARTCHAR 01B0
ENCODING 432
SWIDTH 666 0
DWIDTH 28 0
BBX 25 24 3 -1
BITMAP
E0007380
E0007380
E0007700
E0007700
E0007F00
E0007E00
E0007C00
E0007000
E0007000
E0007000
E0007000
E0007000
E0007000
E0007000
E0007000
E000F000
E000F000
F000F000
7001F000
7803F000
3E077000
3FFF7000
0FFE7000
03F80000
ENDCHAR
STARTCHAR 01CD
ENCODING 461
SWIDTH 738 0
DWIDTH 31 0
BBX 29 38 1 0
BITMAP
00F07800
0078F000
003DE000
000F8000
00070000
00000000
00000000
00070000
000F8000
000F8000
001FC000
001DC000
003DE000
0038E000
0038E000
00707000
00707000
00F07800
00E03800
01E03C00
01C01C00
01C01E00
03C01E00
03800E00
07800F00
07FFFF00
0FFFFF80
0FFFFF80
0E0003C0
1E0003C0
1C0001C0
3C0001E0
380000E0
780000F0
70000070
70000078
E0000038
E0000038
ENDCHAR
STARTCHAR 01CE
ENCODING 462
SWIDTH 690 0
DWIDTH 29 0
BBX 24 32 2 -1
BITMAP
0781E0
03C780
00EF00
007E00
003C00
000000
000000
007E00
03FFC7
0FFFE7
1F81F7
3E007F
3C003F
78001F
70000F
F0000F
E00007
E00007
E00007
E00007
E00007
E00007
E00007
F0000F
70000F
78001F
3C003F
3E007F
1F81F7
0FFFE7
03FFC7
00FF00
ENDCHAR
STARTCHAR 01CF
ENCODING 463
SWIDTH 214 0
DWIDTH 9 0
BBX 14 38 -2 0
BITMAP
F07C
78F0
1DE0
0FC0
0780
0000
0000
0700
0700
0700
0700
0700
0700
0700
0700
0700
0700
0700
0700
0700
0700
0700
0700
0700
0700
0700
0700
0700
0700
0700
0700
0700
0700
0700
0700
0700
0700
0700
ENDCHAR
STARTCHAR 01D0
ENCODING 464
SWIDTH 190 0
DWIDTH 8 0
BBX 14 31 -3 0
BITMAP
F03C
7878
3CF0
0FE0
07C0
0000
0000
0000
0380
0380
0380
0380
0380
0380
0380
0380
0380
0380
0380
0380
0380
0380
0380
0380
0380
0380
0380
0380
0380
0380
0380
ENDCHAR
STARTCHAR 01D1
ENCODING 465
SWIDTH 880 0
DWIDTH 37 0
BBX 33 40 2 -1
BITMAP
00781E0000
003C3C0000
001E780000
0007F00000
0003E00000
0000000000
0000000000
000FF00000
003FFE0000
00FFFF8000
03F00FC000
07C003F000
0F8000F800
1E00007800
1C00003C00
3C00001E00
7800000E00
7000000F00
7000000700
F000000700
E000000700
E000000780
E000000780
E000000780
E000000780
E000000780
E000000700
F000000700
7000000700
7000000F00
7800000E00
3C00001E00
1C00003C00
1E00007800
0F8000F000
07C001E000
03F00FC000
00FFFF8000
007FFE0000
000FF00000
ENDCHAR
STARTCHAR 01D2
ENCODING 466
SWIDTH 666 0
DWIDTH 28 0
BBX 24 32 2 -1
BITMAP
0781E0
03C780
00EF00
007E00
003C00
000000
000000
00FF00
03FFC0
0FFFE0
1F01F0
3E0078
3C003C
78001C
70001E
F0000E
E0000E
E0000F
E00007
E00007
E00007
E0000F
E0000E
F0000E
70000E
78001C
3C003C
3E0078
1F81F0
0FFFE0
03FFC0
00FE00
ENDCHAR
STARTCHAR 01D3
ENCODING 467
SWIDTH 666 0
DWIDTH 28 0
BBX 21 39 3 -1
BITMAP
0F07C0
078F00
01DE00
00FC00
007800
000000
000000
E00038
E00038
E00038
E00038
E00038
E00038
E00038
E00038
E00038
E00038
E00038
E00038
E00038
E00038
E00038
E00038
E00038
E00038
E00038
E00038
E00038
E00038
F00038
700038
700038
700070
780070
3C00F0
1E03E0
0FFFC0
07FF80
01FC00
ENDCHAR
STARTCHAR 01D4
ENCODING 468
SWIDTH 619 0
DWIDTH 26 0
BBX 20 32 3 -1
BITMAP
1C0780
0F0F00
079E00
03F800
01F000
000000
000000
000000
E00070
E00070
E00070
E00070
E00070
E00070
E00070
E00070
E00070
E00070
E00070
E00070
E00070
E00070
E00070
E000F0
E000F0
F000F0
7001F0
7803F0
3C0770
3FFF70
0FFE70
03F800
ENDCHAR
STARTCHAR 01D7
ENCODING 471
SWIDTH 666 0
DWIDTH 28 0
BBX 21 48 3 -1
BITMAP
000100
000780
001F80
003E00
00FC00
00F000
004000
000000
000000
038E00
038E00
038E00
038E00
038E00
000000
000000
E00038
E00038
E00038
E00038
E00038
E00038
E00038
E00038
E00038
E00038
E00038
E00038
E00038
E00038
E00038
E00038
E00038
E00038
E00038
E00038
E00038
E00038
F00038
700038
700038
700070
780070
3C00F0
1E03E0
0FFFC0
07FF80
01FC00
ENDCHAR
STARTCHAR 01D8
ENCODING 472
SWIDTH 619 0
DWIDTH 26 0
BBX 20 41 3 -1
BITMAP
000600
001F00
003E00
00FC00
01F000
01C000
000000
000000
000000
071C00
071C00
071C00
071C00
071C00
000000
000000
000000
E00070
E00070
E00070
E00070
E00070
E00070
E00070
E00070
E00070
E00070
E00070
E00070
E00070
E00070
E00070
E000F0
E000F0
F000F0
7001F0
7803F0
3C0770
3FFF70
0FFE70
03F800
ENDCHAR
STARTCHAR 01D9
ENCODING 473
SWIDTH 666 0
DWIDTH 28 0
BBX 21 47 3 -1
BITMAP
0E03C0
070780
03CF00
01FE00
00F800
007000
000000
000000
038E00
038E00
038E00
038E00
038E00
000000
000000
E00038
E00038
E00038
E00038
E00038
E00038
E00038
E00038
E00038
E00038
E00038
E00038
E00038
E00038
E00038
E00038
E00038
E00038
E00038
E00038
E00038
E00038
F00038
700038
700038
700070
780070
3C00F0
1E03E0
0FFFC0
07FF80
01FC00
ENDCHAR
STARTCHAR 01DA
ENCODING 474
SWIDTH 619 0
DWIDTH 26 0
BBX 20 40 3 -1
BITMAP
1E0780
0F0E00
07BC00
03F800
01F000
000000
000000
000000
071C00
071C00
071C00
071C00
071C00
000000
000000
000000
E00070
E00070
E00070
E00070
E00070
E00070
E00070
E00070
E00070
E00070
E00070
E00070
E00070
E00070
E00070
E000F0
E000F0
F000F0
7001F0
7803F0
3C0770
3FFF70
0FFE70
03F800
ENDCHAR
STARTCHAR 01DB
ENCODING 475
SWIDTH 666 0
DWIDTH 28 0
BBX 21 48 3 -1
BITMAP
060000
070000
07C000
03F000
00F800
003C00
001800
000000
000000
038E00
038E00
038E00
038E00
038E00
000000
000000
E00038
E00038
E00038
E00038
E00038
E00038
E00038
E00038
E00038
E00038
E00038
E00038
E00038
E00038
E00038
E00038
E00038
E00038
E00038
E00038
E00038
E00038
F00038
700038
700038
700070
780070
3C00F0
1E03E0
0FFFC0
07FF80
01FC00
ENDCHAR
STARTCHAR 01DC
ENCODING 476
SWIDTH 619 0
DWIDTH 26 0
BBX 20 41 3 -1
BITMAP
0C0000
0F0000
0FC000
03E000
00F800
007000
001000
000000
000000
071C00
071C00
071C00
071C00
071C00
000000
000000
000000
E00070
E00070
E00070
E00070
E00070
E00070
E00070
E00070
E00070
E00070
E00070
E00070
E00070
E00070
E00070
E000F0
E000F0
F000F0
7001F0
7803F0
3C0770
3FFF70
0FFE70
03F800
ENDCHAR
STARTCHAR 01DD
ENCODING 477
SWIDTH 642 0
DWIDTH 27 0
BBX 24 25 2 -1
BITMAP
00FE00
03FFC0
0FFFE0
1F01F0
3E0078
38003C
78001C
70001E
00000E
00000E
00000F
FFFFFF
FFFFFF
FFFFFF
E0000E
E0000E
70000E
70001E
78001C
3C003C
3E0078
1F81F0
0FFFE0
03FF80
00FE00
ENDCHAR
STARTCHAR 01E6
ENCODING 486
SWIDTH 880 0
DWIDTH 37 0
BBX 33 40 2 -1
BITMAP
00780E0000
003C3C0000
000E780000
0007F00000
0003E00000
0000000000
0000000000
000FF80000
007FFF0000
00FFFFC000
03F007E000
07C001F000
0F0000F800
1E00003C00
1C00003C00
3C00001E00
7800000000
7000000000
7000000000
F000000000
E000000000
E000000000
E000000000
E000000000
E000000000
E00FFFFF80
E00FFFFF80
F00FFFFF80
7000000700
7000000700
7800000F00
3C00000E00
3C00001C00
1E00003C00
0F80007800
07C001F000
03F007E000
00FFFF8000
007FFF0000
000FF80000
ENDCHAR
STARTCHAR 01E7
ENCODING 487
SWIDTH 666 0
DWIDTH 28 0
BBX 24 41 2 -10
BITMAP
0783C0
03C780
01EF00
00FE00
007800
000000
000000
00FE00
03FF87
0FFFC7
1F01E7
3E0077
38003F
78001F
70001F
F0000F
E0000F
E0000F
E0000F
E00007
E0000F
E0000F
E0000F
F0000F
70001F
78001F
3C003F
3E0077
1F81E7
0FFFEF
03FF8F
00FE0E
70000E
70000E
78001E
3C003C
1E007C
1F81F8
07FFF0
03FFC0
007E00
ENDCHAR
STARTCHAR 01EA
ENCODING 490
SWIDTH 880 0
DWIDTH 37 0
BBX 33 43 2 -11
BITMAP
000FF00000
003FFE0000
00FFFF8000
03F00FC000
07C003F000
0F8000F800
1E00007800
1C00003C00
3C00001E00
7800000E00
7000000F00
7000000700
F000000700
E000000700
E000000780
E000000780
E000000780
E000000780
E000000780
E000000700
F000000700
7000000700
7000000F00
7800000E00
3C00001E00
1C00003C00
1E00007800
0F8000F000
07C001F000
03F00FC000
00FFFF8000
007FFE0000
000FF80000
0000F00000
0001C00000
0001C00000
0003800000
0003800000
0003800000
0003C00000
0001F80000
0000F80000
0000780000
ENDCHAR
STARTCHAR 01EB
ENCODING 491
SWIDTH 666 0
DWIDTH 28 0
BBX 24 35 2 -11
BITMAP
00FF00
03FFC0
0FFFE0
1F01F0
3E0078
3C003C
78001C
70001E
F0000E
E0000E
E0000F
E00007
E00007
E00007
E0000F
E0000E
F0000E
70000E
78001C
3C003C
3E0078
1F81F0
0FFFE0
03FFC0
00FF00
000E00
001C00
001C00
003800
003800
003800
003C00
001F80
001F80
000780
ENDCHAR
STARTCHAR 01F0
ENCODING 496
SWIDTH 214 0
DWIDTH 9 0
BBX 14 39 -3 -8
BITMAP
F01C
7878
3CF0
0FE0
07C0
0000
0000
0000
0380
0380
0380
0380
0380
0380
0380
0380
0380
0380
0380
0380
0380
0380
0380
0380
0380
0380
0380
0380
0380
0380
0380
0380
0380
0700
0700
1F00
7E00
7C00
7000
ENDCHAR
STARTCHAR 01F4
ENCODING 500
SWIDTH 880 0
DWIDTH 37 0
BBX 33 41 2 -1
BITMAP
00000C0000
00003C0000
00007C0000
0001F00000
0007E00000
0003800000
0002000000
0000000000
000FF80000
007FFF0000
00FFFFC000
03F007E000
07C001F000
0F0000F800
1E00003C00
1C00003C00
3C00001E00
7800000000
7000000000
7000000000
F000000000
E000000000
E000000000
E000000000
E000000000
E000000000
E00FFFFF80
E00FFFFF80
F00FFFFF80
7000000700
7000000700
7800000F00
3C00000E00
3C00001C00
1E00003C00
0F80007800
07C001F000
03F007E000
00FFFF8000
007FFF0000
000FF80000
ENDCHAR
STARTCHAR 01F5
ENCODING 501
SWIDTH 666 0
DWIDTH 28 0
BBX 24 43 2 -10
BITMAP
000080
000180
0007C0
001F80
003E00
00F800
007000
000000
000000
00FE00
03FF87
0FFFC7
1F01E7
3E0077
38003F
78001F
70001F
F0000F
E0000F
E0000F
E0000F
E00007
E0000F
E0000F
E0000F
F0000F
70001F
78001F
3C003F
3E0077
1F81E7
0FFFEF
03FF8F
00FE0E
70000E
70000E
78001E
3C003C
1E007C
1F81F8
07FFF0
03FFC0
007E00
ENDCHAR
STARTCHAR 01FA
ENCODING 506
SWIDTH 738 0
DWIDTH 31 0
BBX 29 50 1 0
BITMAP
00001000
00007000
0001F800
0003E000
000F8000
000F0000
000C0000
00000000
00070000
001FC000
0018C000
00306000
00306000
00306000
0018C000
001FC000
00070000
00000000
00000000
00070000
000F8000
000F8000
001FC000
001DC000
003DE000
0038E000
0038E000
00707000
00707000
00F07800
00E03800
01E03C00
01C01C00
01C01E00
03C01E00
03800E00
07800F00
07FFFF00
0FFFFF80
0FFFFF80
0E0003C0
1E0003C0
1C0001C0
3C0001E0
380000E0
780000F0
70000070
70000078
E0000038
E0000038
ENDCHAR
STARTCHAR 01FB
ENCODING 507
SWIDTH 690 0
DWIDTH 29 0
BBX 24 43 2 -1
BITMAP
000080
0003C0
0007C0
001F00
007E00
007800
002000
000000
003C00
007E00
00C700
00C300
00C300
00C300
007E00
003C00
000000
000000
007E00
03FFC7
0FFFE7
1F81F7
3E007F
3C003F
78001F
70000F
F0000F
E00007
E00007
E00007
E00007
E00007
E00007
E00007
F0000F
70000F
78001F
3C003F
3E007F
1F81F7
0FFFE7
03FFC7
00FF00
ENDCHAR
STARTCHAR 01FC
ENCODING 508
SWIDTH 1000 0
DWIDTH 42 0
BBX 38 39 1 1
BITMAP
0000003800
000000FC00
000001F000
000007E000
00000F8000
0000060000
0000000000
0000000000
000007FFFC
00000FFFFC
00001FFFFC
00001F8000
00003B8000
00007B8000
0000F38000
0000E38000
0001E38000
0003C38000
0003838000
0007838000
000F038000
000E038000
001E03FFFC
003C03FFFC
007803FFFC
0078038000
00FFFF8000
01FFFF8000
01FFFF8000
03C0038000
0780038000
0780038000
0F00038000
1E00038000
1C00038000
3C00038000
780003FFFC
F00003FFFC
F00003FFFC
ENDCHAR
STARTCHAR 01FD
ENCODING 509
SWIDTH 1166 0
DWIDTH 49 0
BBX 45 33 2 0
BITMAP
000000700000
000000F00000
000003E00000
00000FC00000
00001F000000
00000C000000
000008000000
000000000000
00FF0003F800
03FFC71FFE00
07FFE73FFF80
1F81F77C0FC0
1E007FF003C0
3C003FE001E0
78001FC000F0
70000F800070
F0000F800070
E00007800038
E00007000038
E00007FFFFF8
E00007FFFFF8
E00007FFFFF8
E00007000000
E00007000000
F0000F800000
70000F800070
78001FC000F0
3C003FE000E0
3E007FF003C0
1F81F77C07C0
0FFFE73FFF00
03FFC70FFE00
00FE0003F800
ENDCHAR
STARTCHAR 01FE
ENCODING 510
SWIDTH 857 0
DWIDTH 36 0
BBX 33 44 2 -4
BITMAP
00000C0000
00003C0000
00007C0000
0001F00000
0007E00000
0003800800
0002000C00
0000001C00
000FF03C00
007FFE7800
01FFFFF000
03F00FE000
07C001F000
0F0003F800
1E0003F800
3C0007BC00
38000F1E00
78000E0E00
70001C0F00
70003C0700
F000780700
E000700700
E000F00780
E001E00780
E003C00780
E003800780
E007800780
E00F000700
F00E000700
701C000700
703C000F00
7878000E00
3870001E00
3CF0003C00
1FE0007800
0FC000F800
07C001F000
07F00FC000
0FFFFF8000
0E7FFE0000
1C0FF00000
3C00000000
3800000000
1000000000
ENDCHAR
STARTCHAR 01FF
ENCODING 511
SWIDTH 642 0
DWIDTH 27 0
BBX 24 35 2 -2
BITMAP
000080
000180
0007C0
001F80
003E00
007800
007000
000000
000008
007E1C
03FFFC
07FFF8
1F81F0
1E00F8
3C01FC
7803DC
70038E
F0070E
E00F0E
E01E0F
E01C0F
E03807
E0780F
E0F00F
E0E00E
F1E00E
73C01E
7B801C
3F003C
3F0078
1F01F0
1FFFE0
3BFFC0
78FE00
300000
ENDCHAR
STARTCHAR 0200
ENCODING 512
SWIDTH 738 0
DWIDTH 31 0
BBX 29 40 1 0
BITMAP
08000000
0C0E0000
1F0F0000
07878000
03E3E000
00F0F000
00606000
00000000
00000000
00070000
000F8000
000F8000
001FC000
001DC000
003DE000
0038E000
0038E000
00707000
00707000
00F07800
00E03800
01E03C00
01C01C00
01C01E00
03C01E00
03800E00
07800F00
07FFFF00
0FFFFF80
0FFFFF80
0E0003C0
1E0003C0
1C0001C0
3C0001E0
380000E0
780000F0
70000070
70000078
E0000038
E0000038
ENDCHAR
STARTCHAR 0201
ENCODING 513
SWIDTH 690 0
DWIDTH 29 0
BBX 24 33 2 -1
BITMAP
602000
707800
7C3C00
1E1E00
0F8F80
038380
010100
000000
007E00
03FFC7
0FFFE7
1F81F7
3E007F
3C003F
78001F
70000F
F0000F
E00007
E00007
E00007
E00007
E00007
E00007
E00007
F0000F
70000F
78001F
3C003F
3E007F
1F81F7
0FFFE7
03FFC7
00FF00
ENDCHAR
STARTCHAR 0204
ENCODING 516
SWIDTH 547 0
DWIDTH 23 0
BBX 20 39 0 1
BITMAP
707000
F87800
3C3E00
1F0F00
078780
030300
000000
000000
1FFFF0
1FFFF0
1FFFF0
1C0000
1C0000
1C0000
1C0000
1C0000
1C0000
1C0000
1C0000
1C0000
1C0000
1C0000
1FFFF0
1FFFF0
1FFFF0
1C0000
1C0000
1C0000
1C0000
1C0000
1C0000
1C0000
1C0000
1C0000
1C0000
1C0000
1FFFF0
1FFFF0
1FFFF0
ENDCHAR
STARTCHAR 0205
ENCODING 517
SWIDTH 642 0
DWIDTH 27 0
BBX 24 33 2 -1
BITMAP
602000
F07000
7C7C00
1E1E00
0F0F80
078380
010100
000000
00FE00
03FFC0
07FFE0
1F01F0
1E0078
3C003C
78001C
70001E
F0000E
E0000E
E0000E
FFFFFF
FFFFFF
FFFFFF
E00000
E00000
F00000
70000E
78001C
38003C
3E0078
1F01F0
0FFFE0
03FF80
00FE00
ENDCHAR
STARTCHAR 0208
ENCODING 520
SWIDTH 214 0
DWIDTH 9 0
BBX 16 39 -6 1
BITMAP
E0E0
F0F0
787C
3E1E
0F0F
0606
0000
0000
0070
0070
0070
0070
0070
0070
0070
0070
0070
0070
0070
0070
0070
0070
0070
0070
0070
0070
0070
0070
0070
0070
0070
0070
0070
0070
0070
0070
0070
0070
0070
ENDCHAR
STARTCHAR 0209
ENCODING 521
SWIDTH 190 0
DWIDTH 8 0
BBX 17 32 -7 0
BITMAP
404000
E06000
F0F800
7C3C00
1E1E00
0F0780
030300
000000
000000
003800
003800
003800
003800
003800
003800
003800
003800
003800
003800
003800
003800
003800
003800
003800
003800
003800
003800
003800
003800
003800
003800
003800
ENDCHAR
STARTCHAR 020C
ENCODING 524
SWIDTH 880 0
DWIDTH 37 0
BBX 33 41 2 -1
BITMAP
0203000000
0787800000
03C3C00000
01F1F00000
0078780000
0038380000
0010080000
0000000000
000FF00000
003FFE0000
00FFFF8000
03F00FC000
07C003F000
0F8000F800
1E00007800
1C00003C00
3C00001E00
7800000E00
7000000F00
7000000700
F000000700
E000000700
E000000780
E000000780
E000000780
E000000780
E000000780
E000000700
F000000700
7000000700
7000000F00
7800000E00
3C00001E00
1C00003C00
1E00007800
0F8000F000
07C001E000
03F00FC000
00FFFF8000
007FFE0000
000FF00000
ENDCHAR
STARTCHAR 020D
ENCODING 525
SWIDTH 666 0
DWIDTH 28 0
BBX 24 33 2 -1
BITMAP
602000
707800
7C7C00
1E1E00
0F0F80
038380
010100
000000
00FF00
03FFC0
0FFFE0
1F01F0
3E0078
3C003C
78001C
70001E
F0000E
E0000E
E0000F
E00007
E00007
E00007
E0000F
E0000E
F0000E
70000E
78001C
3C003C
3E0078
1F81F0
0FFFE0
03FFC0
00FE00
ENDCHAR
STARTCHAR 0210
ENCODING 528
SWIDTH 619 0
DWIDTH 26 0
BBX 22 39 2 1
BITMAP
E0E000
F0F000
787C00
3E1E00
0F0F00
060300
000000
000000
7FFC00
7FFFC0
7FFFE0
7003F0
700078
700038
70003C
70001C
70001C
70001C
70001C
70001C
70001C
70003C
700038
700078
7003F0
70FFE0
707F80
707800
703C00
701E00
700E00
700F00
700780
7003C0
7001C0
7001E0
7000F0
700078
700038
ENDCHAR
STARTCHAR 0211
ENCODING 529
SWIDTH 309 0
DWIDTH 13 0
BBX 18 31 -6 1
BITMAP
707000
F87800
3C3E00
1F0F00
078780
030380
000000
0000C0
0073C0
0077C0
007F00
007C00
007800
007800
007000
007000
007000
007000
007000
007000
007000
007000
007000
007000
007000
007000
007000
007000
007000
007000
007000
ENDCHAR
STARTCHAR 0214
ENCODING 532
SWIDTH 666 0
DWIDTH 28 0
BBX 21 40 3 0
BITMAP
E0E000
F0F000
787C00
3E1E00
0F0F00
060300
000000
000000
E00038
E00038
E00038
E00038
E00038
E00038
E00038
E00038
E00038
E00038
E00038
E00038
E00038
E00038
E00038
E00038
E00038
E00038
E00038
E00038
E00038
E00038
F00038
700038
700038
700070
780070
3C00F0
1E03E0
0FFFC0
07FF80
01FC00
ENDCHAR
STARTCHAR 0215
ENCODING 533
SWIDTH 619 0
DWIDTH 26 0
BBX 21 32 2 0
BITMAP
E0E000
F0F000
787C00
3E1E00
0F0F00
060300
000000
000000
700038
700038
700038
700038
700038
700038
700038
700038
700038
700038
700038
700038
700038
700038
700038
700078
700078
780078
3800F8
3C01F8
1E03B8
1FFFB8
07FF38
01FC00
ENDCHAR
STARTCHAR 0218
ENCODING 536
SWIDTH 500 0
DWIDTH 21 0
BBX 19 42 1 -10
BITMAP
01F800
07FE00
1FFF00
1E0F80
3C0780
3803C0
7001C0
7001C0
7001C0
700000
700000
780000
3C0000
3E0000
1FC000
0FF800
03FE00
003F80
000F80
0003C0
0001C0
0001E0
0000E0
0000E0
E000E0
F000E0
F001E0
7801C0
7803C0
3E0780
1FFF00
0FFE00
03F800
000000
000000
00E000
00E000
00E000
01C000
01C000
01C000
01C000
ENDCHAR
STARTCHAR 0219
ENCODING 537
SWIDTH 380 0
DWIDTH 16 0
BBX 14 34 1 -10
BITMAP
07C0
1FE0
3FF0
7878
7038
703C
7000
7000
7800
7C00
3F00
1FC0
07F0
01F8
007C
003C
001C
E01C
E01C
E01C
F03C
7878
7FF8
3FF0
0FC0
0000
0000
0380
0780
0700
0700
0700
0E00
0E00
ENDCHAR
STARTCHAR 021A
ENCODING 538
SWIDTH 428 0
DWIDTH 18 0
BBX 18 40 0 -9
BITMAP
FFFFC0
FFFFC0
FFFFC0
01E000
01E000
01E000
01E000
01E000
01E000
01E000
01E000
01E000
01E000
01E000
01E000
01E000
01E000
01E000
01E000
01E000
01E000
01E000
01E000
01E000
01E000
01E000
01E000
01E000
01E000
01E000
01E000
000000
000000
00E000
01E000
01C000
01C000
01C000
038000
038000
ENDCHAR
STARTCHAR 021B
ENCODING 539
SWIDTH 333 0
DWIDTH 14 0
BBX 13 40 1 -9
BITMAP
0F00
0F00
0F00
0F00
0F00
0F00
0F00
0F00
FFF8
FFF8
FFF8
0F00
0F00
0F00
0F00
0F00
0F00
0F00
0F00
0F00
0F00
0F00
0F00
0F00
0F00
0F00
0F00
0F00
0F00
0F00
0F00
0000
0000
0700
0700
0E00
0E00
0E00
1E00
1C00
ENDCHAR
STARTCHAR 0237
ENCODING 567
SWIDTH 214 0
DWIDTH 9 0
BBX 8 31 -2 -8
BITMAP
07
07
07
07
07
07
07
07
07
07
07
07
07
07
07
07
07
07
07
07
07
07
07
07
07
0E
0E
3E
FC
F8
E0
ENDCHAR
STARTCHAR 0258
ENCODING 600
SWIDTH 642 0
DWIDTH 27 0
BBX 24 25 2 -1
BITMAP
00FE00
03FFC0
0FFFE0
1F01F0
1E0078
3C003C
78001C
70001E
70000E
E0000E
E0000F
FFFFFF
FFFFFF
FFFFFF
000007
00000E
00000E
70000E
78001C
38003C
3E0078
1F01F0
0FFFE0
03FF80
00FE00
ENDCHAR
STARTCHAR 0259
ENCODING 601
SWIDTH 642 0
DWIDTH 27 0
BBX 24 25 2 -1
BITMAP
00FE00
03FFC0
0FFFE0
1F01F0
3E0078
38003C
78001C
70001E
00000E
00000E
00000F
FFFFFF
FFFFFF
FFFFFF
E0000E
E0000E
70000E
70001E
78001C
3C003C
3E0078
1F81F0
0FFFE0
03FF80
00FE00
ENDCHAR
STARTCHAR 02BE
ENCODING 702
SWIDTH 523 0
DWIDTH 22 0
BBX 16 17 3 13
BITMAP
07C0
1FF8
3FFC
701E
E00E
C007
0007
0007
0007
0007
0007
E00F
F00E
783C
3FF8
1FF0
0180
ENDCHAR
STARTCHAR 02BF
ENCODING 703
SWIDTH 523 0
DWIDTH 22 0
BBX 16 17 3 13
BITMAP
07E0
1FF8
3FFC
781E
700F
E007
E000
C000
C000
E000
E000
E007
700F
7C1E
3FFC
0FF8
0180
ENDCHAR
STARTCHAR 02C6
ENCODING 710
SWIDTH 500 0
DWIDTH 21 0
BBX 13 5 4 26
BITMAP
0780
1FC0
3DE0
78F0
F078
ENDCHAR
STARTCHAR 02C7
ENCODING 711
SWIDTH 500 0
DWIDTH 21 0
BBX 13 5 4 26
BITMAP
E038
78F0
3DE0
1FC0
0F80
ENDCHAR
STARTCHAR 02D8
ENCODING 728
SWIDTH 452 0
DWIDTH 19 0
BBX 13 5 3 26
BITMAP
E038
E038
7070
7FF0
1FC0
ENDCHAR
STARTCHAR 02D9
ENCODING 729
SWIDTH 214 0
DWIDTH 9 0
BBX 3 5 3 26
BITMAP
E0
E0
E0
E0
E0
ENDCHAR
STARTCHAR 02DA
ENCODING 730
SWIDTH 333 0
DWIDTH 14 0
BBX 8 9 3 24
BITMAP
3C
7E
E7
C3
C3
C3
E7
7E
3C
ENDCHAR
STARTCHAR 02DB
ENCODING 731
SWIDTH 309 0
DWIDTH 13 0
BBX 7 10 3 -10
BITMAP
38
70
E0
E0
E0
E0
E0
FE
7E
3E
ENDCHAR
STARTCHAR 02DC
ENCODING 732
SWIDTH 428 0
DWIDTH 18 0
BBX 12 4 3 27
BITMAP
7E30
FFF0
67F0
41E0
ENDCHAR
STARTCHAR 02DD
ENCODING 733
SWIDTH 547 0
DWIDTH 23 0
BBX 17 7 6 25
BITMAP
010100
070780
0F0F00
3E1E00
787C00
F07000
406000
ENDCHAR
STARTCHAR 0300
ENCODING 768
SWIDTH 0 0
DWIDTH 0 0
BBX 9 7 -20 25
BITMAP
C000
F000
F800
7E00
1F80
0700
0100
ENDCHAR
STARTCHAR 0301
ENCODING 769
SWIDTH 0 0
DWIDTH 0 0
BBX 9 7 -17 25
BITMAP
0300
0780
1F80
7E00
F800
E000
4000
ENDCHAR
STARTCHAR 0302
ENCODING 770
SWIDTH 0 0
DWIDTH 0 0
BBX 14 5 -21 26
BITMAP
0780
0FC0
3DE0
78F0
F07C
ENDCHAR
STARTCHAR 0303
ENCODING 771
SWIDTH 0 0
DWIDTH 0 0
BBX 12 5 -20 26
BITMAP
2000
7C20
FFF0
C7E0
03C0
ENDCHAR
STARTCHAR 0304
ENCODING 772
SWIDTH 0 0
DWIDTH 0 0
BBX 14 3 -21 27
BITMAP
FFFC
FFFC
FFFC
ENDCHAR
STARTCHAR 0305
ENCODING 773
SWIDTH 0 0
DWIDTH 0 0
BBX 12 3 -15 28
BITMAP
FFF0
FFF0
FFF0
ENDCHAR
STARTCHAR 0306
ENCODING 774
SWIDTH 0 0
DWIDTH 0 0
BBX 13 5 -21 26
BITMAP
E038
6038
7070
3FF0
1FE0
ENDCHAR
STARTCHAR 0307
ENCODING 775
SWIDTH 0 0
DWIDTH 0 0
BBX 3 5 -16 26
BITMAP
E0
E0
E0
E0
E0
ENDCHAR
STARTCHAR 0308
ENCODING 776
SWIDTH 0 0
DWIDTH 0 0
BBX 9 5 -19 26
BITMAP
E380
E380
E380
E380
E380
ENDCHAR
STARTCHAR 0309
ENCODING 777
SWIDTH 0 0
DWIDTH 0 0
BBX 8 8 -18 25
BITMAP
7C
FE
C7
C3
07
0E
1C
18
ENDCHAR
STARTCHAR 030A
ENCODING 778
SWIDTH 0 0
DWIDTH 0 0
BBX 9 9 -19 24
BITMAP
1C00
3F00
6300
6180
C180
6180
6300
3F00
1C00
ENDCHAR
STARTCHAR 030B
ENCODING 779
SWIDTH 0 0
DWIDTH 0 0
BBX 17 7 -20 25
BITMAP
010100
070780
0F0F80
3E1E00
787C00
F07000
606000
ENDCHAR
STARTCHAR 030C
ENCODING 780
SWIDTH 0 0
DWIDTH 0 0
BBX 14 5 -21 26
BITMAP
F03C
78F0
3DE0
1FC0
0F80
ENDCHAR
STARTCHAR 030F
ENCODING 783
SWIDTH 0 0
DWIDTH 0 0
BBX 16 7 -25 25
BITMAP
C040
E0E0
F0F8
7C7C
1E1E
0F0F
0202
ENDCHAR
STARTCHAR 0311
ENCODING 785
SWIDTH 0 0
DWIDTH 0 0
BBX 13 5 -21 25
BITMAP
1FE0
3FF0
7070
6038
E038
ENDCHAR
STARTCHAR 0323
ENCODING 803
SWIDTH 0 0
DWIDTH 0 0
BBX 3 5 -16 -8
BITMAP
E0
E0
E0
E0
E0
ENDCHAR
STARTCHAR 0326
ENCODING 806
SWIDTH 0 0
DWIDTH 0 0
BBX 5 7 -17 -9
BITMAP
78
70
70
70
E0
E0
E0
ENDCHAR
STARTCHAR 0327
ENCODING 807
SWIDTH 0 0
DWIDTH 0 0
BBX 9 10 -18 -10
BITMAP
1800
3000
3E00
7F00
2380
0380
0380
E380
7F00
3E00
ENDCHAR
STARTCHAR 0328
ENCODING 808
SWIDTH 0 0
DWIDTH 0 0
BBX 7 10 -18 -10
BITMAP
1C
38
70
E0
E0
E0
F0
7E
7E
1E
ENDCHAR
STARTCHAR 032C
ENCODING 812
SWIDTH 0 0
DWIDTH 0 0
BBX 14 5 -21 -8
BITMAP
F07C
78F0
3DE0
0FC0
0780
ENDCHAR
STARTCHAR 032D
ENCODING 813
SWIDTH 0 0
DWIDTH 0 0
BBX 14 5 -21 -8
BITMAP
0F80
1FC0
3DE0
7870
F03C
ENDCHAR
STARTCHAR 032E
ENCODING 814
SWIDTH 0 0
DWIDTH 0 0
BBX 13 5 -21 -7
BITMAP
E038
6038
7070
3FF0
1FE0
ENDCHAR
STARTCHAR 032F
ENCODING 815
SWIDTH 0 0
DWIDTH 0 0
BBX 13 5 -21 -8
BITMAP
1FE0
3FF0
7070
6038
E038
ENDCHAR
STARTCHAR 0330
ENCODING 816
SWIDTH 0 0
DWIDTH 0 0
BBX 12 5 -20 -8
BITMAP
7820
FE60
FFF0
C7E0
0080
ENDCHAR
STARTCHAR 0331
ENCODING 817
SWIDTH 0 0
DWIDTH 0 0
BBX 14 3 -21 -7
BITMAP
FFFC
FFFC
FFFC
ENDCHAR
STARTCHAR 0332
ENCODING 818
SWIDTH 0 0
DWIDTH 0 0
BBX 12 3 -15 -6
BITMAP
FFF0
FFF0
FFF0
ENDCHAR
STARTCHAR 0333
ENCODING 819
SWIDTH 0 0
DWIDTH 0 0
BBX 12 10 -15 -13
BITMAP
FFF0
FFF0
FFF0
0000
0000
0000
0000
FFF0
FFF0
FFF0
ENDCHAR
STARTCHAR 0338
ENCODING 824
SWIDTH 0 0
DWIDTH 0 0
BBX 14 33 -16 -6
BITMAP
001C
001C
003C
0038
0038
0070
0070
00F0
00E0
00E0
01E0
01C0
01C0
03C0
0380
0380
0780
0700
0700
0F00
0E00
0E00
1E00
1C00
1C00
3C00
3800
3800
7800
7000
7000
F000
E000
ENDCHAR
STARTCHAR 033F
ENCODING 831
SWIDTH 0 0
DWIDTH 0 0
BBX 12 9 -15 28
BITMAP
FFF0
FFF0
FFF0
0000
0000
0000
FFF0
FFF0
FFF0
ENDCHAR
STARTCHAR 034D
ENCODING 845
SWIDTH 0 0
DWIDTH 0 0
BBX 25 13 -21 -16
BITMAP
00C30000
01C38000
07C3E000
1F81F800
7E007E00
FFFFFF00
FFFFFF80
FFFFFF80
7C003E00
1F00F800
0FC3F000
03C3C000
00C30000
ENDCHAR
STARTCHAR 0361
ENCODING 865
SWIDTH 285 0
DWIDTH 12 0
BBX 14 5 4 27
BITMAP
0FC0
3FF0
7FF8
703C
E01C
ENDCHAR
STARTCHAR 0391
ENCODING 913
SWIDTH 738 0
DWIDTH 31 0
BBX 29 31 1 0
BITMAP
00070000
000F8000
000F8000
001FC000
001DC000
003DE000
0038E000
0038E000
00707000
00707000
00F07800
00E03800
01E03C00
01C01C00
01C01E00
03C01E00
03800E00
07800F00
07FFFF00
0FFFFF80
0FFFFF80
0E0003C0
1E0003C0
1C0001C0
3C0001E0
380000E0
780000F0
70000070
70000078
E0000038
E0000038
ENDCHAR
STARTCHAR 0392
ENCODING 914
SWIDTH 571 0
DWIDTH 24 0
BBX 20 31 3 0
BITMAP
FFF000
FFFE00
FFFF00
E00F80
E003C0
E003C0
E001C0
E001C0
E001C0
E001C0
E001C0
E00380
E00F80
FFFF00
FFFE00
FFFF80
E007C0
E001E0
E000E0
E000F0
E00070
E00070
E00070
E00070
E000F0
E000E0
E001E0
E007C0
FFFF80
FFFF00
FFF800
ENDCHAR
STARTCHAR 0393
ENCODING 915
SWIDTH 476 0
DWIDTH 20 0
BBX 16 31 3 0
BITMAP
FFFF
FFFF
FFFF
E000
E000
E000
E000
E000
E000
E000
E000
E000
E000
E000
E000
E000
E000
E000
E000
E000
E000
E000
E000
E000
E000
E000
E000
E000
E000
E000
E000
ENDCHAR
STARTCHAR 0394
ENCODING 916
SWIDTH 642 0
DWIDTH 27 0
BBX 27 29 0 0
BITMAP
000E0000
000F0000
001F0000
001F0000
003F8000
003B8000
007BC000
0071C000
0071E000
00F1E000
00E0E000
01E0F000
01C07000
03C07800
03C07800
03803800
07803C00
07001C00
0F001E00
0F001E00
0E000F00
1E000F00
1C000700
3C000780
3C000380
780003C0
7FFFFFC0
7FFFFFE0
FFFFFFE0
ENDCHAR
STARTCHAR 0395
ENCODING 917
SWIDTH 547 0
DWIDTH 23 0
BBX 17 31 3 0
BITMAP
FFFF80
FFFF80
FFFF80
E00000
E00000
E00000
E00000
E00000
E00000
E00000
E00000
E00000
E00000
E00000
FFFF80
FFFF80
FFFF80
E00000
E00000
E00000
E00000
E00000
E00000
E00000
E00000
E00000
E00000
E00000
FFFF80
FFFF80
FFFF80
ENDCHAR
STARTCHAR 0396
ENCODING 918
SWIDTH 476 0
DWIDTH 20 0
BBX 19 31 1 0
BITMAP
FFFFC0
FFFFC0
FFFFC0
0001C0
000380
000780
000700
000F00
000E00
001C00
003C00
003800
007800
007000
00E000
01E000
01C000
03C000
038000
070000
0F0000
0E0000
1E0000
1C0000
380000
780000
700000
F00000
FFFFE0
FFFFE0
FFFFE0
ENDCHAR
STARTCHAR 0397
ENCODING 919
SWIDTH 690 0
DWIDTH 29 0
BBX 22 31 3 0
BITMAP
E0001C
E0001C
E0001C
E0001C
E0001C
E0001C
E0001C
E0001C
E0001C
E0001C
E0001C
E0001C
E0001C
E0001C
FFFFFC
FFFFFC
FFFFFC
E0001C
E0001C
E0001C
E0001C
E0001C
E0001C
E0001C
E0001C
E0001C
E0001C
E0001C
E0001C
E0001C
E0001C
ENDCHAR
STARTCHAR 0398
ENCODING 920
SWIDTH 880 0
DWIDTH 37 0
BBX 33 33 2 -1
BITMAP
000FF00000
003FFE0000
00FFFF8000
03F00FC000
07C003F000
0F8000F800
1E00007800
1C00003C00
3C00001E00
7800000E00
7000000F00
7000000700
F000000700
E000000700
E000000780
E03FFC0780
E03FFC0780
E03FFC0780
E000000780
E000000700
F000000700
7000000700
7000000F00
7800000E00
3C00001E00
1C00003C00
1E00007800
0F8000F000
07C001E000
03F00FC000
00FFFF8000
007FFE0000
000FF00000
ENDCHAR
STARTCHAR 0399
ENCODING 921
SWIDTH 214 0
DWIDTH 9 0
BBX 3 31 3 0
BITMAP
E0
E0
E0
E0
E0
E0
E0
E0
E0
E0
E0
E0
E0
E0
E0
E0
E0
E0
E0
E0
E0
E0
E0
E0
E0
E0
E0
E0
E0
E0
E0
ENDCHAR
STARTCHAR 039A
ENCODING 922
SWIDTH 595 0
DWIDTH 25 0
BBX 21 31 3 0
BITMAP
E00078
E000F0
E000F0
E001E0
E003C0
E00780
E00F00
E00E00
E01E00
E03C00
E07800
E0F000
E0E000
E1E000
E3C000
E7C000
EFC000
EFE000
FEF000
FC7800
F83800
F03C00
E01E00
E00F00
E00780
E00780
E003C0
E001E0
E000F0
E000F0
E00078
ENDCHAR
STARTCHAR 039B
ENCODING 923
SWIDTH 738 0
DWIDTH 31 0
BBX 29 31 1 0
BITMAP
00070000
000F8000
000F8000
001FC000
001DC000
003DE000
0038E000
0038E000
00707000
00707000
00F07800
00E03800
01E03C00
01C01C00
01C01E00
03800E00
03800E00
07800F00
07000700
0F000780
0E000380
0E0003C0
1C0001C0
1C0001C0
3C0001E0
380000E0
780000F0
70000070
70000078
E0000038
E0000038
ENDCHAR
STARTCHAR 039C
ENCODING 924
SWIDTH 928 0
DWIDTH 39 0
BBX 32 31 3 0
BITMAP
F800001F
FC00001F
FC00001F
FE00003F
EE00003F
EE000077
E7000077
E70000F7
E78000E7
E38000E7
E3C001C7
E1C001C7
E1C00387
E0E00387
E0E00787
E0F00707
E0700707
E0780E07
E0380E07
E0381C07
E03C1C07
E01C3C07
E01E3807
E00E3807
E00F7007
E0077007
E007F007
E007E007
E003E007
E003C007
E001C007
ENDCHAR
STARTCHAR 039D
ENCODING 925
SWIDTH 738 0
DWIDTH 31 0
BBX 25 31 3 0
BITMAP
F8000380
F8000380
FC000380
FE000380
EE000380
EF000380
E7800380
E3800380
E1C00380
E1E00380
E0F00380
E0700380
E0780380
E03C0380
E01C0380
E01E0380
E00F0380
E0070380
E0078380
E003C380
E001C380
E001E380
E000F380
E0007380
E0007B80
E0003F80
E0001F80
E0001F80
E0000F80
E0000780
E0000780
ENDCHAR
STARTCHAR 039E
ENCODING 926
SWIDTH 690 0
DWIDTH 29 0
BBX 25 31 2 0
BITMAP
FFFFFF80
FFFFFF80
FFFFFF80
00000000
00000000
00000000
00000000
00000000
00000000
00000000
00000000
00000000
00000000
00000000
1FFFFC00
1FFFFC00
1FFFFC00
00000000
00000000
00000000
00000000
00000000
00000000
00000000
00000000
00000000
00000000
00000000
FFFFFF80
FFFFFF80
FFFFFF80
ENDCHAR
STARTCHAR 039F
ENCODING 927
SWIDTH 880 0
DWIDTH 37 0
BBX 33 33 2 -1
BITMAP
000FF00000
003FFE0000
00FFFF8000
03F00FC000
07C003F000
0F8000F800
1E00007800
1C00003C00
3C00001E00
7800000E00
7000000F00
7000000700
F000000700
E000000700
E000000780
E000000780
E000000780
E000000780
E000000780
E000000700
F000000700
7000000700
7000000F00
7800000E00
3C00001E00
1C00003C00
1E00007800
0F8000F000
07C001E000
03F00FC000
00FFFF8000
007FFE0000
000FF00000
ENDCHAR
STARTCHAR 03A0
ENCODING 928
SWIDTH 642 0
DWIDTH 27 0
BBX 23 29 3 0
BITMAP
FFFFFE
FFFFFE
FFFFFE
E0001E
E0001E
E0001E
E0001E
E0001E
E0001E
E0001E
E0001E
E0001E
E0001E
E0001E
E0001E
E0001E
E0001E
E0001E
E0001E
E0001E
E0001E
E0001E
E0001E
E0001E
E0001E
E0001E
E0001E
E0001E
E0001E
ENDCHAR
STARTCHAR 03A1
ENCODING 929
SWIDTH 595 0
DWIDTH 25 0
BBX 21 31 3 0
BITMAP
FFFC00
FFFF80
FFFFC0
E003E0
E000F0
E00070
E00070
E00078
E00038
E00038
E00038
E00078
E00070
E00070
E000F0
E003E0
FFFFC0
FFFF80
FFF800
E00000
E00000
E00000
E00000
E00000
E00000
E00000
E00000
E00000
E00000
E00000
E00000
ENDCHAR
STARTCHAR 03A3
ENCODING 931
SWIDTH 452 0
DWIDTH 19 0
BBX 19 29 0 0
BITMAP
7FFFC0
7FFFC0
7FFFC0
780000
3C0000
3C0000
1E0000
1E0000
0F0000
078000
078000
03C000
03C000
01E000
01E000
01E000
03C000
038000
078000
0F0000
0F0000
1E0000
1C0000
3C0000
780000
780000
FFFFE0
FFFFE0
FFFFE0
ENDCHAR
STARTCHAR 03A4
ENCODING 932
SWIDTH 428 0
DWIDTH 18 0
BBX 18 31 0 0
BITMAP
FFFFC0
FFFFC0
FFFFC0
01E000
01E000
01E000
01E000
01E000
01E000
01E000
01E000
01E000
01E000
01E000
01E000
01E000
01E000
01E000
01E000
01E000
01E000
01E000
01E000
01E000
01E000
01E000
01E000
01E000
01E000
01E000
01E000
ENDCHAR
STARTCHAR 03A5
ENCODING 933
SWIDTH 595 0
DWIDTH 25 0
BBX 25 31 0 0
BITMAP
F0000780
70000700
78000E00
38000E00
3C001C00
1C001C00
1E003800
0E007800
0F007000
0700F000
0380E000
0381E000
01C1C000
01C3C000
00E38000
00E78000
00770000
007F0000
003E0000
003E0000
001C0000
001C0000
001C0000
001C0000
001C0000
001C0000
001C0000
001C0000
001C0000
001C0000
001C0000
ENDCHAR
STARTCHAR 03A6
ENCODING 934
SWIDTH 809 0
DWIDTH 34 0
BBX 28 31 3 0
BITMAP
000F0000
000F0000
000F0000
000F0000
000F0000
000F0000
007FE000
03FFFC00
0FFFFF00
3F8F3FC0
3C0F03E0
780F01E0
F00F00F0
E00F0070
E00F0070
E00F0070
E00F0070
E00F0070
F00F00F0
780F01E0
7C0F03E0
3F8F1FC0
0FFFFF00
03FFFC00
007FE000
000F0000
000F0000
000F0000
000F0000
000F0000
000F0000
ENDCHAR
STARTCHAR 03A7
ENCODING 935
SWIDTH 619 0
DWIDTH 26 0
BBX 24 31 1 0
BITMAP
F0000E
78001E
38003C
3C0038
1E0078
0E00F0
0F00E0
0781E0
0783C0
03C380
01E780
01EF00
00FE00
007E00
007C00
003C00
007E00
00FE00
00EF00
01E780
03C380
0383C0
0781E0
0F00E0
0E00F0
1E0078
3C0038
38003C
78001E
F0000E
E0000F
ENDCHAR
STARTCHAR 03A8
ENCODING 936
SWIDTH 785 0
DWIDTH 33 0
BBX 28 31 3 0
BITMAP
E00E0070
E00E0070
E00E0070
E00E0070
E00E0070
E00E0070
E00E0070
E00E0070
E00E0070
E00E0070
E00E00F0
E00E00E0
F00E00E0
780E01C0
780E03C0
3E0E0780
1F0E1F00
0FEE7E00
07FFFC00
01FFF000
007FC000
000E0000
000E0000
000E0000
000E0000
000E0000
000E0000
000E0000
000E0000
000E0000
000E0000
ENDCHAR
STARTCHAR 03A9
ENCODING 937
SWIDTH 785 0
DWIDTH 33 0
BBX 31 29 1 0
BITMAP
000FF000
007FFC00
01FFFF00
03F83FC0
07E007E0
0F8001F0
1F0000F0
1E000078
3C00003C
3800003C
7800001E
7000001E
7000001E
F000000E
F000000E
F000000E
7000000E
7000001E
7800001E
7800001C
3C00003C
3C000078
1E000078
1F0000F0
0FC003E0
03F00FC0
1FF01FF8
1FF01FF8
1FF01FF8
ENDCHAR
STARTCHAR 03B1
ENCODING 945
SWIDTH 714 0
DWIDTH 30 0
BBX 24 25 3 -1
BITMAP
00FC00
03FE07
0FFF0F
1F078E
3E03DE
3C01DC
7800FC
7000FC
F000FC
E00078
E00078
E00078
E00078
E00070
E00070
E00070
E000F8
F000F8
7801F8
7801F8
3E03DC
1F879E
0FFF0F
07FE0F
00F803
ENDCHAR
STARTCHAR 03B2
ENCODING 946
SWIDTH 476 0
DWIDTH 20 0
BBX 16 40 2 -9
BITMAP
03E0
0FF8
1FF8
3C3C
381E
700E
700E
700E
700E
700E
701E
703C
7078
77F0
77E0
77F0
70F8
703C
701E
700E
700E
700F
7007
7007
700F
700E
700E
701E
7C3C
7FF8
7FF0
77E0
7000
7000
7000
F000
E000
E000
E000
E000
ENDCHAR
STARTCHAR 03B3
ENCODING 947
SWIDTH 476 0
DWIDTH 20 0
BBX 22 30 0 -7
BITMAP
F0001C
78001C
3C003C
3E0038
1F0078
0F0070
078070
0780E0
03C0E0
03C1E0
01E1C0
01E3C0
00E380
00F380
00F780
007700
007F00
007E00
007E00
007C00
003C00
003C00
003800
003800
003800
003800
003800
003800
003800
003800
ENDCHAR
STARTCHAR 03B4
ENCODING 948
SWIDTH 690 0
DWIDTH 29 0
BBX 24 32 3 -1
BITMAP
1FFFF0
1FFFF0
1FFFF0
0F8000
07E000
01F000
00FC00
003E00
01FF80
07FFC0
0FFFF0
1F00F8
3C0078
78003C
70001E
F0001E
E0000E
E0000E
E0000F
E0000F
E0000F
E0000F
E0000E
E0000E
70000E
78001C
78003C
3E0078
1F01F0
0FFFE0
03FFC0
00FE00
ENDCHAR
STARTCHAR 03B5
ENCODING 949
SWIDTH 476 0
DWIDTH 20 0
BBX 16 25 3 -1
BITMAP
0FF0
1FFC
3FFF
781E
7002
F000
E000
E000
7000
7C00
3FE0
1FE0
3FE0
7800
F000
E000
E000
E000
E000
F000
7800
7C0F
3FFF
1FFE
07F0
ENDCHAR
STARTCHAR 03B6
ENCODING 950
SWIDTH 428 0
DWIDTH 18 0
BBX 12 38 3 -7
BITMAP
FFF0
FFF0
FFF0
03C0
0780
0F00
0E00
1E00
1C00
3800
3800
7000
7000
7000
E000
E000
E000
E000
E000
E000
E000
E000
E000
E000
E000
E000
7000
7800
3FC0
1FE0
0FE0
00F0
0070
0070
0070
0070
0070
0070
ENDCHAR
STARTCHAR 03B7
ENCODING 951
SWIDTH 619 0
DWIDTH 26 0
BBX 20 32 3 -8
BITMAP
01FC00
E7FF00
EFFF80
FC07C0
F801E0
F001E0
F000E0
E000F0
E00070
E00070
E00070
E00070
E00070
E00070
E00070
E00070
E00070
E00070
E00070
E00070
E00070
E00070
E00070
E00070
000070
000070
000070
000070
000070
000070
000070
000070
ENDCHAR
STARTCHAR 03B8
ENCODING 952
SWIDTH 547 0
DWIDTH 23 0
BBX 17 33 3 -1
BITMAP
03E000
0FF800
1FFC00
3E3E00
380E00
700F00
700700
700700
E00300
E00380
E00380
E00380
E00380
E00380
E00380
FFFF80
FFFF80
FFFF80
E00380
E00380
E00380
E00380
E00380
E00380
E00700
700700
700700
780E00
380E00
3E3C00
1FFC00
0FF800
03E000
ENDCHAR
STARTCHAR 03B9
ENCODING 953
SWIDTH 333 0
DWIDTH 14 0
BBX 6 24 5 -1
BITMAP
E0
E0
E0
E0
E0
E0
E0
E0
E0
E0
E0
E0
E0
E0
E0
E0
E0
70
70
70
78
3C
1C
0C
ENDCHAR
STARTCHAR 03BA
ENCODING 954
SWIDTH 500 0
DWIDTH 21 0
BBX 17 23 3 0
BITMAP
E00780
E00F00
E00E00
E01E00
E03C00
E07800
E0F000
E0E000
E1E000
E3C000
E78000
E70000
EF8000
FFC000
FDE000
F8F000
F07000
E07800
E03C00
E01E00
E00F00
E00780
E00380
ENDCHAR
STARTCHAR 03BB
ENCODING 955
SWIDTH 619 0
DWIDTH 26 0
BBX 20 32 3 0
BITMAP
0C0000
0F0000
0F8000
07C000
01E000
00E000
00F000
007000
007800
003800
003800
003800
007C00
007C00
00FC00
00FE00
01EE00
01CE00
03CF00
038700
078700
070780
0F0380
0E0380
1E03C0
1C01C0
3C01C0
3801E0
7800E0
7000E0
F000E0
E000F0
ENDCHAR
STARTCHAR 03BC
ENCODING 956
SWIDTH 619 0
DWIDTH 26 0
BBX 20 31 3 -8
BITMAP
E00070
E00070
E00070
E00070
E00070
E00070
E00070
E00070
E00070
E00070
E00070
E00070
E00070
E00070
E00070
E000F0
E000F0
F000F0
F001F0
F803F0
FE0770
EFFF70
E7FE70
E1F800
E00000
E00000
E00000
E00000
E00000
E00000
E00000
ENDCHAR
STARTCHAR 03BD
ENCODING 957
SWIDTH 500 0
DWIDTH 21 0
BBX 17 23 1 0
BITMAP
F00780
700380
700380
700380
780380
380380
380380
3C0380
1C0380
1C0380
1C0380
1E0380
0E0700
0E0700
0F0700
070E00
071E00
071C00
07BC00
03F800
03F000
03E000
01C000
ENDCHAR
STARTCHAR 03BE
ENCODING 958
SWIDTH 404 0
DWIDTH 17 0
BBX 11 38 3 -7
BITMAP
FFE0
FFE0
FFE0
7800
7000
7000
E000
E000
E000
F000
7800
3C00
3F80
0F80
1F80
3E00
7800
7000
F000
E000
E000
E000
E000
E000
E000
E000
F000
7000
7F80
3FC0
1FC0
00E0
00E0
00E0
00E0
00E0
00E0
00E0
ENDCHAR
STARTCHAR 03BF
ENCODING 959
SWIDTH 666 0
DWIDTH 28 0
BBX 24 25 2 -1
BITMAP
00FF00
03FFC0
0FFFE0
1F01F0
3E0078
3C003C
78001C
70001E
F0000E
E0000E
E0000F
E00007
E00007
E00007
E0000F
E0000E
F0000E
70000E
78001C
3C003C
3E0078
1F81F0
0FFFE0
03FFC0
00FE00
ENDCHAR
STARTCHAR 03C0
ENCODING 960
SWIDTH 642 0
DWIDTH 27 0
BBX 22 24 3 -1
BITMAP
FFFFFC
FFFFFC
FFFFFC
1C00E0
1C00E0
1C00E0
1C00E0
1C00E0
1C00E0
1C00E0
1C00E0
1C00E0
1C00E0
1C00E0
1C00E0
1C00E0
1C00E0
1C00E0
1C00E0
1C00E0
1C00F0
1C0078
1C0078
000018
ENDCHAR
STARTCHAR 03C1
ENCODING 961
SWIDTH 595 0
DWIDTH 25 0
BBX 20 32 3 -8
BITMAP
01F800
07FE00
0FFF00
1F0F80
3C07C0
7803C0
7001E0
7000E0
E000E0
E000F0
E00070
E00070
E00070
E00070
E00070
E000F0
E000E0
E000E0
E001E0
F003C0
F803C0
FE0F80
FFFF00
EFFE00
E1F800
E00000
E00000
E00000
E00000
E00000
E00000
E00000
ENDCHAR
STARTCHAR 03C2
ENCODING 962
SWIDTH 547 0
DWIDTH 23 0
BBX 17 31 3 -7
BITMAP
03F000
0FFC00
1FFE00
3E1F00
3C0700
780780
700380
F00000
E00000
E00000
E00000
E00000
E00000
E00000
E00000
E00000
F00000
700000
780000
3C0000
3E0000
1FF800
0FFE00
03FF00
000700
000380
000380
000380
000380
000380
000380
ENDCHAR
STARTCHAR 03C3
ENCODING 963
SWIDTH 738 0
DWIDTH 31 0
BBX 26 27 3 -1
BITMAP
000001C0
00007FC0
00FFFFC0
03FFFF00
0FFFF000
1F01F800
3E007800
38003C00
78001C00
70001E00
F0000E00
E0000E00
E0000F00
E0000F00
E0000F00
E0000F00
E0000F00
E0000E00
F0000E00
70001E00
78001C00
38003C00
3E007800
1F01F000
0FFFE000
03FFC000
00FE0000
ENDCHAR
STARTCHAR 03C4
ENCODING 964
SWIDTH 476 0
DWIDTH 20 0
BBX 14 24 3 -1
BITMAP
FFFC
FFFC
FFFC
0380
0380
0380
0380
0380
0380
0380
0380
0380
0380
0380
0380
0380
0380
0380
03C0
01E0
00F8
00FC
003C
000C
ENDCHAR
STARTCHAR 03C5
ENCODING 965
SWIDTH 547 0
DWIDTH 23 0
BBX 17 24 3 -1
BITMAP
E00700
E00700
E00700
E00780
E00780
E00380
E00380
E00380
E00380
E00380
E00380
E00380
E00380
E00380
E00380
E00380
E00780
E00700
F00F00
701E00
7C3E00
3FFC00
1FF000
07E000
ENDCHAR
STARTCHAR 03C6
ENCODING 966
SWIDTH 714 0
DWIDTH 30 0
BBX 24 32 3 -8
BITMAP
0001E0
0407F8
0E07FC
1E0F1C
3C0E0E
381C0E
701C0E
701C07
E01C07
E03807
E03807
E03807
E03807
E03807
E03807
E0380F
F0380E
70380E
78381E
3C383C
3E3878
1FB9F0
0FFFE0
03FFC0
00FF00
003800
003800
003800
003800
003800
003800
003800
ENDCHAR
STARTCHAR 03C7
ENCODING 967
SWIDTH 571 0
DWIDTH 24 0
BBX 18 30 3 -7
BITMAP
E003C0
F00380
700780
780700
380F00
3C0E00
1C1E00
1E1C00
0E3C00
0F3800
077800
07F000
03F000
03E000
01E000
01E000
03E000
03F000
07F000
077800
0F3800
0E3C00
1E1C00
1C1E00
3C0E00
380F00
780700
700780
F00380
E003C0
ENDCHAR
STARTCHAR 03C8
ENCODING 968
SWIDTH 714 0
DWIDTH 30 0
BBX 24 39 3 -8
BITMAP
003800
003800
003800
003800
003800
003800
003800
003800
E03807
E03807
E03807
E03807
E03807
E03807
E03807
E03807
E03807
E03807
E03807
E03807
E03807
E03807
E03807
E03807
E03807
E0380F
F0380E
78381E
3F38FC
1FFFF8
0FFFE0
01FF00
003800
003800
003800
003800
003800
003800
003800
ENDCHAR
STARTCHAR 03C9
ENCODING 969
SWIDTH 714 0
DWIDTH 30 0
BBX 25 24 3 -1
BITMAP
70000700
60000700
E0000700
E0000700
E0000700
E0000700
E0000700
E0000700
E01C0780
E01C0780
E01C0780
E01C0780
E01C0780
E01C0700
E01C0700
E01C0700
E03C0700
E03C0700
703E0700
707E0E00
78FF1E00
3FE7FC00
1FC3F800
0F81F000
ENDCHAR
STARTCHAR 03D1
ENCODING 977
SWIDTH 571 0
DWIDTH 24 0
BBX 19 33 3 -1
BITMAP
03E000
0FF800
1FFC00
3C1E00
700F00
700700
600780
E00380
E00380
700380
700380
7C0380
3F8380
1FFFE0
03FFE0
001FE0
000380
E00380
E00380
E00380
E00380
E00380
E00380
E00380
E00380
E00380
E00780
F00700
780F00
3E3E00
3FFC00
0FF800
03E000
ENDCHAR
STARTCHAR 03D5
ENCODING 981
SWIDTH 666 0
DWIDTH 28 0
BBX 24 39 2 -8
BITMAP
003800
003800
003800
003800
003800
003800
003800
00FF00
03FFC0
0FFFE0
1F39F0
3E3878
38383C
78381E
70381E
F0380E
E0380E
E0380F
E03807
E03807
E03807
E0380F
E0380E
F0380E
70380E
78381E
3C383C
3E3878
1F38F8
0FFFF0
03FFC0
00FF00
003800
003800
003800
003800
003800
003800
003800
ENDCHAR
STARTCHAR 03D6
ENCODING 982
SWIDTH 714 0
DWIDTH 30 0
BBX 25 31 3 -1
BITMAP
00FF0000
0FFFC000
0FFFF000
0E00F000
00003800
00001C00
00001C00
70000E00
60000E00
E0000E00
E0000700
E0000700
E0000700
E0000700
E0000700
E01C0700
E01C0780
E01C0780
E01C0780
E01C0780
E01C0700
E01C0700
E01C0700
E03C0700
E03C0700
703E0700
707E0E00
78FF1E00
3FE7FC00
1FC3F800
0F81F000
ENDCHAR
STARTCHAR 03F0
ENCODING 1008
SWIDTH 619 0
DWIDTH 26 0
BBX 21 25 2 -1
BITMAP
600030
700038
780078
3C00F8
1C00F8
1E00F0
0E01F0
0E01E0
0E03E0
0E07C0
0E1FC0
0E7F80
0EFF80
0FF380
0FC380
0F8380
1E03C0
3E03C0
3C01C0
7C01C0
7C01E0
7800F0
F800F8
F00078
300018
ENDCHAR
STARTCHAR 03F1
ENCODING 1009
SWIDTH 690 0
DWIDTH 29 0
BBX 24 35 3 -11
BITMAP
00FE00
03FFC0
0FFFE0
1F01F0
3E0078
38003C
78001C
70001E
F0000E
E0000E
E0000F
E0000F
E0000F
E0000F
E0000F
E0000E
F0000E
F0001E
F8001C
F8003C
7E0078
7F01F0
7FFFE0
3BFFC0
3CFE00
1E0000
0F0000
07C000
03F800
01FFC0
007FF8
0003FC
00001E
00000E
000006
ENDCHAR
STARTCHAR 03F4
ENCODING 1012
SWIDTH 785 0
DWIDTH 33 0
BBX 33 33 2 -1
BITMAP
000FF00000
003FFE0000
00FFFF8000
03F00FC000
07C003F000
0F8000F800
1E00007800
1C00003C00
3C00001E00
7800000E00
7000000F00
7000000700
F000000700
E000000700
E000000780
FFFFFFFF80
FFFFFFFF80
FFFFFFFF80
E000000780
E000000700
F000000700
7000000700
7000000F00
7800000E00
3C00001E00
1C00003C00
1E00007800
0F8000F000
07C001E000
03F00FC000
00FFFF8000
007FFE0000
000FF00000
ENDCHAR
STARTCHAR 03F5
ENCODING 1013
SWIDTH 642 0
DWIDTH 27 0
BBX 23 25 2 -1
BITMAP
007F00
03FFC0
07FFF0
1F81F8
1E007C
3C003C
78001E
700000
F00000
E00000
E00000
FFFF00
FFFF00
FFFF00
E00000
E00000
F00000
700000
780000
3C003C
3E007C
1F80F8
07FFF0
03FFC0
007F00
ENDCHAR
STARTCHAR 0E3F
ENCODING 3647
SWIDTH 571 0
DWIDTH 24 0
BBX 20 37 3 -3
BITMAP
00C000
00C000
00C000
FFF000
FFFE00
FFFF00
E00F80
E003C0
E003C0
E001C0
E001C0
E001C0
E001C0
E001C0
E00380
E00F80
FFFF00
FFFE00
FFFF80
E007C0
E001E0
E000E0
E000F0
E00070
E00070
E00070
E00070
E000F0
E000E0
E001E0
E007C0
FFFF80
FFFF00
FFF800
00C000
00C000
00C000
ENDCHAR
STARTCHAR 1E0C
ENCODING 7692
SWIDTH 738 0
DWIDTH 31 0
BBX 26 39 3 -8
BITMAP
FFFC0000
FFFFC000
FFFFE000
E003F800
E0007C00
E0001E00
E0000F00
E0000700
E0000780
E0000380
E00003C0
E00001C0
E00001C0
E00001C0
E00001C0
E00001C0
E00001C0
E00001C0
E00001C0
E00001C0
E00003C0
E0000380
E0000780
E0000780
E0000F00
E0001E00
E0007C00
E001F800
FFFFE000
FFFF8000
FFFC0000
00000000
00000000
00000000
00E00000
00E00000
00E00000
00E00000
00E00000
ENDCHAR
STARTCHAR 1E0D
ENCODING 7693
SWIDTH 690 0
DWIDTH 29 0
BBX 24 39 2 -8
BITMAP
000007
000007
000007
000007
000007
000007
000007
007F07
03FFC7
07FFE7
1F81F7
3E007F
3C003F
78001F
70000F
F0000F
E00007
E00007
E00007
E00007
E00007
E00007
E00007
F0000F
70000F
78001F
3C003F
3E007F
1F81F7
07FFE7
03FFC7
007F00
000000
000000
001C00
001C00
001C00
001C00
001C00
ENDCHAR
STARTCHAR 1E0E
ENCODING 7694
SWIDTH 738 0
DWIDTH 31 0
BBX 26 38 3 -7
BITMAP
FFFC0000
FFFFC000
FFFFE000
E003F800
E0007C00
E0001E00
E0000F00
E0000700
E0000780
E0000380
E00003C0
E00001C0
E00001C0
E00001C0
E00001C0
E00001C0
E00001C0
E00001C0
E00001C0
E00001C0
E00003C0
E0000380
E0000780
E0000780
E0000F00
E0001E00
E0007C00
E001F800
FFFFE000
FFFF8000
FFFC0000
00000000
00000000
00000000
00000000
3FFF8000
3FFF8000
3FFF8000
ENDCHAR
STARTCHAR 1E0F
ENCODING 7695
SWIDTH 690 0
DWIDTH 29 0
BBX 24 38 2 -7
BITMAP
000007
000007
000007
000007
000007
000007
000007
007F07
03FFC7
07FFE7
1F81F7
3E007F
3C003F
78001F
70000F
F0000F
E00007
E00007
E00007
E00007
E00007
E00007
E00007
F0000F
70000F
78001F
3C003F
3E007F
1F81F7
07FFE7
03FFC7
007F00
000000
000000
000000
07FFE0
07FFE0
07FFE0
ENDCHAR
STARTCHAR 1E24
ENCODING 7716
SWIDTH 690 0
DWIDTH 29 0
BBX 22 39 3 -8
BITMAP
E0001C
E0001C
E0001C
E0001C
E0001C
E0001C
E0001C
E0001C
E0001C
E0001C
E0001C
E0001C
E0001C
E0001C
FFFFFC
FFFFFC
FFFFFC
E0001C
E0001C
E0001C
E0001C
E0001C
E0001C
E0001C
E0001C
E0001C
E0001C
E0001C
E0001C
E0001C
E0001C
000000
000000
000000
003800
003800
003800
003800
003800
ENDCHAR
STARTCHAR 1E25
ENCODING 7717
SWIDTH 619 0
DWIDTH 26 0
BBX 20 39 3 -8
BITMAP
E00000
E00000
E00000
E00000
E00000
E00000
E00000
E1FC00
E7FF00
EFFF80
FE07C0
F803E0
F001E0
F000E0
E000F0
E00070
E00070
E00070
E00070
E00070
E00070
E00070
E00070
E00070
E00070
E00070
E00070
E00070
E00070
E00070
E00070
000000
000000
000000
00E000
00E000
00E000
00E000
00E000
ENDCHAR
STARTCHAR 1E26
ENCODING 7718
SWIDTH 690 0
DWIDTH 29 0
BBX 22 38 3 0
BITMAP
01C700
01C700
01C700
01C700
01C700
000000
000000
E0001C
E0001C
E0001C
E0001C
E0001C
E0001C
E0001C
E0001C
E0001C
E0001C
E0001C
E0001C
E0001C
E0001C
FFFFFC
FFFFFC
FFFFFC
E0001C
E0001C
E0001C
E0001C
E0001C
E0001C
E0001C
E0001C
E0001C
E0001C
E0001C
E0001C
E0001C
E0001C
ENDCHAR
STARTCHAR 1E27
ENCODING 7719
SWIDTH 619 0
DWIDTH 26 0
BBX 20 38 3 0
BITMAP
071C00
071C00
071C00
071C00
071C00
000000
000000
E00000
E00000
E00000
E00000
E00000
E00000
E00000
E1FC00
E7FF00
EFFF80
FE07C0
F803E0
F001E0
F000E0
E000F0
E00070
E00070
E00070
E00070
E00070
E00070
E00070
E00070
E00070
E00070
E00070
E00070
E00070
E00070
E00070
E00070
ENDCHAR
STARTCHAR 1E2A
ENCODING 7722
SWIDTH 690 0
DWIDTH 29 0
BBX 22 38 3 -7
BITMAP
E0001C
E0001C
E0001C
E0001C
E0001C
E0001C
E0001C
E0001C
E0001C
E0001C
E0001C
E0001C
E0001C
E0001C
FFFFFC
FFFFFC
FFFFFC
E0001C
E0001C
E0001C
E0001C
E0001C
E0001C
E0001C
E0001C
E0001C
E0001C
E0001C
E0001C
E0001C
E0001C
000000
000000
000000
0701C0
038380
03FF00
01FE00
ENDCHAR
STARTCHAR 1E2B
ENCODING 7723
SWIDTH 619 0
DWIDTH 26 0
BBX 20 38 3 -7
BITMAP
E00000
E00000
E00000
E00000
E00000
E00000
E00000
E1FC00
E7FF00
EFFF80
FE07C0
F803E0
F001E0
F000E0
E000F0
E00070
E00070
E00070
E00070
E00070
E00070
E00070
E00070
E00070
E00070
E00070
E00070
E00070
E00070
E00070
E00070
000000
000000
000000
0E0700
0E0F00
07FE00
03FC00
ENDCHAR
STARTCHAR 1E2E
ENCODING 7726
SWIDTH 214 0
DWIDTH 9 0
BBX 11 47 0 0
BITMAP
0040
01E0
07E0
0F80
3E00
3C00
1000
0000
0000
E380
E380
E380
E380
E380
0000
0000
1C00
1C00
1C00
1C00
1C00
1C00
1C00
1C00
1C00
1C00
1C00
1C00
1C00
1C00
1C00
1C00
1C00
1C00
1C00
1C00
1C00
1C00
1C00
1C00
1C00
1C00
1C00
1C00
1C00
1C00
1C00
ENDCHAR
STARTCHAR 1E2F
ENCODING 7727
SWIDTH 190 0
DWIDTH 8 0
BBX 10 40 0 0
BITMAP
00C0
03C0
0FC0
1F00
7C00
3800
2000
0000
0000
E380
E380
E380
E380
E380
0000
0000
0000
1C00
1C00
1C00
1C00
1C00
1C00
1C00
1C00
1C00
1C00
1C00
1C00
1C00
1C00
1C00
1C00
1C00
1C00
1C00
1C00
1C00
1C00
1C00
ENDCHAR
STARTCHAR 1E36
ENCODING 7734
SWIDTH 452 0
DWIDTH 19 0
BBX 16 39 3 -8
BITMAP
E000
E000
E000
E000
E000
E000
E000
E000
E000
E000
E000
E000
E000
E000
E000
E000
E000
E000
E000
E000
E000
E000
E000
E000
E000
E000
E000
E000
FFFF
FFFF
FFFF
0000
0000
0000
01C0
01C0
01C0
01C0
01C0
ENDCHAR
STARTCHAR 1E37
ENCODING 7735
SWIDTH 190 0
DWIDTH 8 0
BBX 3 39 3 -8
BITMAP
E0
E0
E0
E0
E0
E0
E0
E0
E0
E0
E0
E0
E0
E0
E0
E0
E0
E0
E0
E0
E0
E0
E0
E0
E0
E0
E0
E0
E0
E0
E0
00
00
00
E0
E0
E0
E0
E0
ENDCHAR
STARTCHAR 1E38
ENCODING 7736
SWIDTH 452 0
DWIDTH 19 0
BBX 21 45 -2 -8
BITMAP
FFFC00
FFFC00
FFFC00
000000
000000
000000
070000
070000
070000
070000
070000
070000
070000
070000
070000
070000
070000
070000
070000
070000
070000
070000
070000
070000
070000
070000
070000
070000
070000
070000
070000
070000
070000
070000
07FFF8
07FFF8
07FFF8
000000
000000
000000
000E00
000E00
000E00
000E00
000E00
ENDCHAR
STARTCHAR 1E39
ENCODING 7737
SWIDTH 190 0
DWIDTH 8 0
BBX 14 45 -3 -8
BITMAP
FFFC
FFFC
FFFC
0000
0000
0000
0380
0380
0380
0380
0380
0380
0380
0380
0380
0380
0380
0380
0380
0380
0380
0380
0380
0380
0380
0380
0380
0380
0380
0380
0380
0380
0380
0380
0380
0380
0380
0000
0000
0000
0380
0380
0380
0380
0380
ENDCHAR
STARTCHAR 1E42
ENCODING 7746
SWIDTH 928 0
DWIDTH 39 0
BBX 32 39 3 -8
BITMAP
F800001F
FC00001F
FC00001F
FE00003F
EE00003F
EE000077
E7000077
E70000F7
E78000E7
E38000E7
E3C001C7
E1C001C7
E1C00387
E0E00387
E0E00787
E0F00707
E0700707
E0780E07
E0380E07
E0381C07
E03C1C07
E01C3C07
E01E3807
E00E3807
E00F7007
E0077007
E007F007
E007E007
E003E007
E003C007
E001C007
00000000
00000000
00000000
0001C000
0001C000
0001C000
0001C000
0001C000
ENDCHAR
STARTCHAR 1E43
ENCODING 7747
SWIDTH 928 0
DWIDTH 39 0
BBX 34 32 3 -8
BITMAP
03F007F000
EFFC1FFC00
FFFE3FFE00
FC0F780F00
F807F00780
F003E00380
E001E00380
E001E003C0
E001C001C0
E001C001C0
E001C001C0
E001C001C0
E001C001C0
E001C001C0
E001C001C0
E001C001C0
E001C001C0
E001C001C0
E001C001C0
E001C001C0
E001C001C0
E001C001C0
E001C001C0
E001C001C0
0000000000
0000000000
0000000000
0001C00000
0001C00000
0001C00000
0001C00000
0001C00000
ENDCHAR
STARTCHAR 1E44
ENCODING 7748
SWIDTH 738 0
DWIDTH 31 0
BBX 25 38 3 0
BITMAP
001C0000
001C0000
001C0000
001C0000
001C0000
00000000
00000000
F8000380
F8000380
FC000380
FE000380
EE000380
EF000380
E7800380
E3800380
E1C00380
E1E00380
E0F00380
E0700380
E0780380
E03C0380
E01C0380
E01E0380
E00F0380
E0070380
E0078380
E003C380
E001C380
E001E380
E000F380
E0007380
E0007B80
E0003F80
E0001F80
E0001F80
E0000F80
E0000780
E0000780
ENDCHAR
STARTCHAR 1E45
ENCODING 7749
SWIDTH 619 0
DWIDTH 26 0
BBX 20 31 3 0
BITMAP
00E000
00E000
00E000
00E000
00E000
000000
000000
01FC00
E7FF00
EFFF80
FC07C0
F801E0
F001E0
F000E0
E000F0
E00070
E00070
E00070
E00070
E00070
E00070
E00070
E00070
E00070
E00070
E00070
E00070
E00070
E00070
E00070
E00070
ENDCHAR
STARTCHAR 1E46
ENCODING 7750
SWIDTH 738 0
DWIDTH 31 0
BBX 25 39 3 -8
BITMAP
F8000380
F8000380
FC000380
FE000380
EE000380
EF000380
E7800380
E3800380
E1C00380
E1E00380
E0F00380
E0700380
E0780380
E03C0380
E01C0380
E01E0380
E00F0380
E0070380
E0078380
E003C380
E001C380
E001E380
E000F380
E0007380
E0007B80
E0003F80
E0001F80
E0001F80
E0000F80
E0000780
E0000780
00000000
00000000
00000000
001C0000
001C0000
001C0000
001C0000
001C0000
ENDCHAR
STARTCHAR 1E47
ENCODING 7751
SWIDTH 619 0
DWIDTH 26 0
BBX 20 32 3 -8
BITMAP
01FC00
E7FF00
EFFF80
FC07C0
F801E0
F001E0
F000E0
E000F0
E00070
E00070
E00070
E00070
E00070
E00070
E00070
E00070
E00070
E00070
E00070
E00070
E00070
E00070
E00070
E00070
000000
000000
000000
00E000
00E000
00E000
00E000
00E000
ENDCHAR
STARTCHAR 1E58
ENCODING 7768
SWIDTH 619 0
DWIDTH 26 0
BBX 21 38 3 0
BITMAP
00E000
00E000
00E000
00E000
00E000
000000
000000
FFF800
FFFF80
FFFFC0
E007E0
E000F0
E00070
E00078
E00038
E00038
E00038
E00038
E00038
E00038
E00078
E00070
E000F0
E007E0
E1FFC0
E0FF00
E0F000
E07800
E03C00
E01C00
E01E00
E00F00
E00780
E00380
E003C0
E001E0
E000F0
E00070
ENDCHAR
STARTCHAR 1E59
ENCODING 7769
SWIDTH 309 0
DWIDTH 13 0
BBX 9 31 3 0
BITMAP
7000
7000
7000
7000
7000
0000
0000
0180
E780
EF80
FE00
F800
F000
F000
E000
E000
E000
E000
E000
E000
E000
E000
E000
E000
E000
E000
E000
E000
E000
E000
E000
ENDCHAR
STARTCHAR 1E5A
ENCODING 7770
SWIDTH 619 0
DWIDTH 26 0
BBX 21 39 3 -8
BITMAP
FFF800
FFFF80
FFFFC0
E007E0
E000F0
E00070
E00078
E00038
E00038
E00038
E00038
E00038
E00038
E00078
E00070
E000F0
E007E0
E1FFC0
E0FF00
E0F000
E07800
E03C00
E01C00
E01E00
E00F00
E00780
E00380
E003C0
E001E0
E000F0
E00070
000000
000000
000000
00E000
00E000
00E000
00E000
00E000
ENDCHAR
STARTCHAR 1E5B
ENCODING 7771
SWIDTH 309 0
DWIDTH 13 0
BBX 9 32 3 -8
BITMAP
0180
E780
EF80
FE00
F800
F000
F000
E000
E000
E000
E000
E000
E000
E000
E000
E000
E000
E000
E000
E000
E000
E000
E000
E000
0000
0000
0000
E000
E000
E000
E000
E000
ENDCHAR
STARTCHAR 1E5C
ENCODING 7772
SWIDTH 619 0
DWIDTH 26 0
BBX 21 45 3 -8
BITMAP
1FFF80
1FFF80
1FFF80
000000
000000
000000
FFF800
FFFF80
FFFFC0
E007E0
E000F0
E00070
E00078
E00038
E00038
E00038
E00038
E00038
E00038
E00078
E00070
E000F0
E007E0
E1FFC0
E0FF00
E0F000
E07800
E03C00
E01C00
E01E00
E00F00
E00780
E00380
E003C0
E001E0
E000F0
E00070
000000
000000
000000
00E000
00E000
00E000
00E000
00E000
ENDCHAR
STARTCHAR 1E5D
ENCODING 7773
SWIDTH 309 0
DWIDTH 13 0
BBX 14 39 -1 -8
BITMAP
FFFC
FFFC
FFFC
0000
0000
0000
0000
0018
0E78
0EF8
0FE0
0F80
0F00
0F00
0E00
0E00
0E00
0E00
0E00
0E00
0E00
0E00
0E00
0E00
0E00
0E00
0E00
0E00
0E00
0E00
0E00
0000
0000
0000
0E00
0E00
0E00
0E00
0E00
ENDCHAR
STARTCHAR 1E62
ENCODING 7778
SWIDTH 500 0
DWIDTH 21 0
BBX 19 40 1 -8
BITMAP
01F800
07FE00
1FFF00
1E0F80
3C0780
3803C0
7001C0
7001C0
7001C0
700000
700000
780000
3C0000
3E0000
1FC000
0FF800
03FE00
003F80
000F80
0003C0
0001C0
0001E0
0000E0
0000E0
E000E0
F000E0
F001E0
7801C0
7803C0
3E0780
1FFF00
0FFE00
03F800
000000
000000
00E000
00E000
00E000
00E000
00E000
ENDCHAR
STARTCHAR 1E63
ENCODING 7779
SWIDTH 380 0
DWIDTH 16 0
BBX 14 32 1 -8
BITMAP
07C0
1FE0
3FF0
7878
7038
703C
7000
7000
7800
7C00
3F00
1FC0
07F0
01F8
007C
003C
001C
E01C
E01C
E01C
F03C
7878
7FF8
3FF0
0FC0
0000
0000
0380
0380
0380
0380
0380
ENDCHAR
STARTCHAR 1E6C
ENCODING 7788
SWIDTH 428 0
DWIDTH 18 0
BBX 18 39 0 -8
BITMAP
FFFFC0
FFFFC0
FFFFC0
01E000
01E000
01E000
01E000
01E000
01E000
01E000
01E000
01E000
01E000
01E000
01E000
01E000
01E000
01E000
01E000
01E000
01E000
01E000
01E000
01E000
01E000
01E000
01E000
01E000
01E000
01E000
01E000
000000
000000
000000
01E000
01E000
01E000
01E000
01E000
ENDCHAR
STARTCHAR 1E6D
ENCODING 7789
SWIDTH 333 0
DWIDTH 14 0
BBX 13 39 1 -8
BITMAP
0F00
0F00
0F00
0F00
0F00
0F00
0F00
0F00
FFF8
FFF8
FFF8
0F00
0F00
0F00
0F00
0F00
0F00
0F00
0F00
0F00
0F00
0F00
0F00
0F00
0F00
0F00
0F00
0F00
0F00
0F00
0F00
0000
0000
0000
0F00
0F00
0F00
0F00
0F00
ENDCHAR
STARTCHAR 1E6E
ENCODING 7790
SWIDTH 428 0
DWIDTH 18 0
BBX 18 38 0 -7
BITMAP
FFFFC0
FFFFC0
FFFFC0
01E000
01E000
01E000
01E000
01E000
01E000
01E000
01E000
01E000
01E000
01E000
01E000
01E000
01E000
01E000
01E000
01E000
01E000
01E000
01E000
01E000
01E000
01E000
01E000
01E000
01E000
01E000
01E000
000000
000000
000000
000000
3FFF00
3FFF00
3FFF00
ENDCHAR
STARTCHAR 1E6F
ENCODING 7791
SWIDTH 333 0
DWIDTH 14 0
BBX 14 38 0 -7
BITMAP
0780
0780
0780
0780
0780
0780
0780
0780
FFFC
FFFC
FFFC
0780
0780
0780
0780
0780
0780
0780
0780
0780
0780
0780
0780
0780
0780
0780
0780
0780
0780
0780
0780
0000
0000
0000
0000
FFFC
FFFC
FFFC
ENDCHAR
STARTCHAR 1E80
ENCODING 7808
SWIDTH 952 0
DWIDTH 40 0
BBX 39 40 1 0
BITMAP
0002000000
0007000000
0007C00000
0003F00000
0000F80000
00003C0000
0000180000
0000000000
0000000000
E00038000E
E00078001C
E00078001C
F0007C001C
7000FC003C
7000FC0038
7000FC0038
3800EE0038
3801CE0070
3801CE0070
3C01CF0070
1C01C700F0
1C038700E0
1C038700E0
0E038380E0
0E070381C0
0E070381C0
0F070381C0
070701C3C0
070E01C380
070E01C380
038E01E380
039E00E700
039C00E700
03DC00E700
01DC00FF00
01FC007E00
01F8007E00
00F8007E00
00F8003C00
00F0003C00
ENDCHAR
STARTCHAR 1E81
ENCODING 7809
SWIDTH 833 0
DWIDTH 35 0
BBX 34 32 0 0
BITMAP
000C000000
001E000000
001F800000
0007E00000
0001F00000
0000700000
0000200000
0000000000
0000000000
F0000001C0
70000001C0
70000001C0
3800E00380
3800E00380
3801F00700
1C01F00700
1C01F00700
0E03B80E00
0E03B80E00
0E03380E00
07071C1C00
07071C1C00
07871C3800
038E0E3800
038E0E3800
01CE0E7000
01DC077000
01DC07E000
00FC07E000
00F803E000
00F803C000
007803C000
ENDCHAR
STARTCHAR 1E82
ENCODING 7810
SWIDTH 952 0
DWIDTH 40 0
BBX 39 39 1 1
BITMAP
0000038000
00000F8000
00001F0000
00007C0000
0000F80000
0000600000
0000000000
0000000000
E00038000E
E00078001C
E00078001C
F0007C001C
7000FC003C
7000FC0038
7000FC0038
3800EE0038
3801CE0070
3801CE0070
3C01CF0070
1C01C700F0
1C038700E0
1C038700E0
0E038380E0
0E070381C0
0E070381C0
0F070381C0
070701C3C0
070E01C380
070E01C380
038E01E380
039E00E700
039C00E700
03DC00E700
01DC00FF00
01FC007E00
01F8007E00
00F8007E00
00F8003C00
00F0003C00
ENDCHAR
STARTCHAR 1E83
ENCODING 7811
SWIDTH 833 0
DWIDTH 35 0
BBX 34 32 0 0
BITMAP
0000060000
00000E0000
00003E0000
0000FC0000
0001F00000
0001C00000
0001800000
0000000000
0000000000
F0000001C0
70000001C0
70000001C0
3800E00380
3800E00380
3801F00700
1C01F00700
1C01F00700
0E03B80E00
0E03B80E00
0E03380E00
07071C1C00
07071C1C00
07871C3800
038E0E3800
038E0E3800
01CE0E7000
01DC077000
01DC07E000
00FC07E000
00F803E000
00F803C000
007803C000
ENDCHAR
STARTCHAR 1E84
ENCODING 7812
SWIDTH 952 0
DWIDTH 40 0
BBX 39 38 1 0
BITMAP
0003C70000
0003C70000
0003C70000
0003C70000
0003C70000
0000000000
0000000000
E00038000E
E00078001C
E00078001C
F0007C001C
7000FC003C
7000FC0038
7000FC0038
3800EE0038
3801CE0070
3801CE0070
3C01CF0070
1C01C700F0
1C038700E0
1C038700E0
0E038380E0
0E070381C0
0E070381C0
0F070381C0
070701C3C0
070E01C380
070E01C380
038E01E380
039E00E700
039C00E700
03DC00E700
01DC00FF00
01FC007E00
01F8007E00
00F8007E00
00F8003C00
00F0003C00
ENDCHAR
STARTCHAR 1E85
ENCODING 7813
SWIDTH 833 0
DWIDTH 35 0
BBX 34 31 0 0
BITMAP
00071C0000
00071C0000
00071C0000
00071C0000
00071C0000
0000000000
0000000000
0000000000
F0000001C0
70000001C0
70000001C0
3800E00380
3800E00380
3801F00700
1C01F00700
1C01F00700
0E03B80E00
0E03B80E00
0E03380E00
07071C1C00
07071C1C00
07871C3800
038E0E3800
038E0E3800
01CE0E7000
01DC077000
01DC07E000
00FC07E000
00F803E000
00F803C000
007803C000
ENDCHAR
STARTCHAR 1E92
ENCODING 7826
SWIDTH 476 0
DWIDTH 20 0
BBX 19 39 1 -8
BITMAP
FFFFC0
FFFFC0
FFFFC0
0001C0
000380
000780
000700
000F00
000E00
001C00
003C00
003800
007800
007000
00E000
01E000
01C000
03C000
038000
070000
0F0000
0E0000
1E0000
1C0000
380000
780000
700000
F00000
FFFFE0
FFFFE0
FFFFE0
000000
000000
000000
00E000
00E000
00E000
00E000
00E000
ENDCHAR
STARTCHAR 1E93
ENCODING 7827
SWIDTH 428 0
DWIDTH 18 0
BBX 17 31 0 -8
BITMAP
7FFF80
7FFF80
7FFF80
000700
000E00
001E00
003C00
003800
007000
00F000
01E000
01C000
03C000
078000
070000
0E0000
1E0000
3C0000
380000
780000
FFFF80
FFFF80
FFFF80
000000
000000
000000
01C000
01C000
01C000
01C000
01C000
ENDCHAR
STARTCHAR 1E97
ENCODING 7831
SWIDTH 333 0
DWIDTH 14 0
BBX 13 38 1 0
BITMAP
70E0
70E0
70E0
70E0
70E0
0000
0000
0F00
0F00
0F00
0F00
0F00
0F00
0F00
0F00
FFF8
FFF8
FFF8
0F00
0F00
0F00
0F00
0F00
0F00
0F00
0F00
0F00
0F00
0F00
0F00
0F00
0F00
0F00
0F00
0F00
0F00
0F00
0F00
ENDCHAR
STARTCHAR 1EA0
ENCODING 7840
SWIDTH 738 0
DWIDTH 31 0
BBX 29 39 1 -8
BITMAP
00070000
000F8000
000F8000
001FC000
001DC000
003DE000
0038E000
0038E000
00707000
00707000
00F07800
00E03800
01E03C00
01C01C00
01C01E00
03C01E00
03800E00
07800F00
07FFFF00
0FFFFF80
0FFFFF80
0E0003C0
1E0003C0
1C0001C0
3C0001E0
380000E0
780000F0
70000070
70000078
E0000038
E0000038
00000000
00000000
00000000
00070000
00070000
00070000
00070000
00070000
ENDCHAR
STARTCHAR 1EA1
ENCODING 7841
SWIDTH 690 0
DWIDTH 29 0
BBX 24 32 2 -8
BITMAP
007E00
03FFC7
0FFFE7
1F81F7
3E007F
3C003F
78001F
70000F
F0000F
E00007
E00007
E00007
E00007
E00007
E00007
E00007
F0000F
70000F
78001F
3C003F
3E007F
1F81F7
0FFFE7
03FFC7
00FF00
000000
000000
003800
003800
003800
003800
003800
ENDCHAR
STARTCHAR 1EA2
ENCODING 7842
SWIDTH 738 0
DWIDTH 31 0
BBX 29 41 1 0
BITMAP
000F8000
001FC000
0018E000
0038E000
0001E000
0003C000
00030000
00030000
00000000
00000000
00070000
000F8000
000F8000
001FC000
001DC000
003DE000
0038E000
0038E000
00707000
00707000
00F07800
00E03800
01E03C00
01C01C00
01C01E00
03C01E00
03800E00
07800F00
07FFFF00
0FFFFF80
0FFFFF80
0E0003C0
1E0003C0
1C0001C0
3C0001E0
380000E0
780000F0
70000070
70000078
E0000038
E0000038
ENDCHAR
STARTCHAR 1EA3
ENCODING 7843
SWIDTH 690 0
DWIDTH 29 0
BBX 24 35 2 -1
BITMAP
003C00
00FF00
00E700
00C300
000700
000E00
001C00
001800
001800
000000
007E00
03FFC7
0FFFE7
1F81F7
3E007F
3C003F
78001F
70000F
F0000F
E00007
E00007
E00007
E00007
E00007
E00007
E00007
F0000F
70000F
78001F
3C003F
3E007F
1F81F7
0FFFE7
03FFC7
00FF00
ENDCHAR
STARTCHAR 1EA4
ENCODING 7844
SWIDTH 738 0
DWIDTH 31 0
BBX 29 46 1 0
BITMAP
00003000
0000F800
0001F000
0007C000
001F8000
000E0000
00000000
00000000
000F8000
001FC000
003DE000
00787000
00E03C00
00000000
00000000
00070000
000F8000
000F8000
001FC000
001DC000
003DE000
0038E000
0038E000
00707000
00707000
00F07800
00E03800
01E03C00
01C01C00
01C01E00
03C01E00
03800E00
07800F00
07FFFF00
0FFFFF80
0FFFFF80
0E0003C0
1E0003C0
1C0001C0
3C0001E0
380000E0
780000F0
70000070
70000078
E0000038
E0000038
ENDCHAR
STARTCHAR 1EA5
ENCODING 7845
SWIDTH 690 0
DWIDTH 29 0
BBX 24 40 2 -1
BITMAP
000080
0003C0
000FC0
001F00
007C00
007800
002000
000000
003C00
007E00
00FF00
01C780
0781C0
000020
000000
007E00
03FFC7
0FFFE7
1F81F7
3E007F
3C003F
78001F
70000F
F0000F
E00007
E00007
E00007
E00007
E00007
E00007
E00007
F0000F
70000F
78001F
3C003F
3E007F
1F81F7
0FFFE7
03FFC7
00FF00
ENDCHAR
STARTCHAR 1EA6
ENCODING 7846
SWIDTH 738 0
DWIDTH 31 0
BBX 29 46 1 0
BITMAP
00600000
00F80000
007E0000
001F0000
000FC000
00038000
00000000
00000000
000F8000
001FC000
003DE000
00787000
00E03C00
00000000
00000000
00070000
000F8000
000F8000
001FC000
001DC000
003DE000
0038E000
0038E000
00707000
00707000
00F07800
00E03800
01E03C00
01C01C00
01C01E00
03C01E00
03800E00
07800F00
07FFFF00
0FFFFF80
0FFFFF80
0E0003C0
1E0003C0
1C0001C0
3C0001E0
380000E0
780000F0
70000070
70000078
E0000038
E0000038
ENDCHAR
STARTCHAR 1EA7
ENCODING 7847
SWIDTH 690 0
DWIDTH 29 0
BBX 24 40 2 -1
BITMAP
030000
03C000
03E000
00F800
007E00
001C00
000400
000000
003C00
007E00
00FF00
01C780
0781C0
000020
000000
007E00
03FFC7
0FFFE7
1F81F7
3E007F
3C003F
78001F
70000F
F0000F
E00007
E00007
E00007
E00007
E00007
E00007
E00007
F0000F
70000F
78001F
3C003F
3E007F
1F81F7
0FFFE7
03FFC7
00FF00
ENDCHAR
STARTCHAR 1EA8
ENCODING 7848
SWIDTH 738 0
DWIDTH 31 0
BBX 29 48 1 0
BITMAP
0001F000
0003F800
00031C00
00030C00
00001C00
00003800
00007000
00006000
00000000
00000000
000F8000
001FC000
003DE000
00787000
00E03C00
00000000
00000000
00070000
000F8000
000F8000
001FC000
001DC000
003DE000
0038E000
0038E000
00707000
00707000
00F07800
00E03800
01E03C00
01C01C00
01C01E00
03C01E00
03800E00
07800F00
07FFFF00
0FFFFF80
0FFFFF80
0E0003C0
1E0003C0
1C0001C0
3C0001E0
380000E0
780000F0
70000070
70000078
E0000038
E0000038
ENDCHAR
STARTCHAR 1EA9
ENCODING 7849
SWIDTH 690 0
DWIDTH 29 0
BBX 24 42 2 -1
BITMAP
000780
000FE0
001CE0
001860
0000E0
0001C0
000380
000300
000300
000000
003C00
007E00
00FF00
01C780
0783C0
000020
000000
007E00
03FFC7
0FFFE7
1F81F7
3E007F
3C003F
78001F
70000F
F0000F
E00007
E00007
E00007
E00007
E00007
E00007
E00007
F0000F
70000F
78001F
3C003F
3E007F
1F81F7
0FFFE7
03FFC7
00FF00
ENDCHAR
STARTCHAR 1EAA
ENCODING 7850
SWIDTH 738 0
DWIDTH 31 0
BBX 29 45 1 0
BITMAP
00100000
007C1000
007F3000
0067F800
0041F000
00004000
00000000
000F8000
001FC000
003DE000
00787000
00E03C00
00000000
00000000
00070000
000F8000
000F8000
001FC000
001DC000
003DE000
0038E000
0038E000
00707000
00707000
00F07800
00E03800
01E03C00
01C01C00
01C01E00
03C01E00
03800E00
07800F00
07FFFF00
0FFFFF80
0FFFFF80
0E0003C0
1E0003C0
1C0001C0
3C0001E0
380000E0
780000F0
70000070
70000078
E0000038
E0000038
ENDCHAR
STARTCHAR 1EAB
ENCODING 7851
SWIDTH 690 0
DWIDTH 29 0
BBX 24 38 2 -1
BITMAP
008000
01F080
03FFC0
031F80
000700
000000
003C00
007E00
00FF00
01E780
0383C0
040020
000000
007E00
03FFC7
0FFFE7
1F81F7
3E007F
3C003F
78001F
70000F
F0000F
E00007
E00007
E00007
E00007
E00007
E00007
E00007
F0000F
70000F
78001F
3C003F
3E007F
1F81F7
0FFFE7
03FFC7
00FF00
ENDCHAR
STARTCHAR 1EAC
ENCODING 7852
SWIDTH 738 0
DWIDTH 31 0
BBX 29 46 1 -8
BITMAP
000F8000
001FC000
003DE000
00787000
00E03C00
00000000
00000000
00070000
000F8000
000F8000
001FC000
001DC000
003DE000
0038E000
0038E000
00707000
00707000
00F07800
00E03800
01E03C00
01C01C00
01C01E00
03C01E00
03800E00
07800F00
07FFFF00
0FFFFF80
0FFFFF80
0E0003C0
1E0003C0
1C0001C0
3C0001E0
380000E0
780000F0
70000070
70000078
E0000038
E0000038
00000000
00000000
00000000
00070000
00070000
00070000
00070000
00070000
ENDCHAR
STARTCHAR 1EAD
ENCODING 7853
SWIDTH 690 0
DWIDTH 29 0
BBX 24 39 2 -8
BITMAP
003C00
00FE00
01E700
03C3C0
0781E0
000000
000000
007E00
03FFC7
0FFFE7
1F81F7
3E007F
3C003F
78001F
70000F
F0000F
E00007
E00007
E00007
E00007
E00007
E00007
E00007
F0000F
70000F
78001F
3C003F
3E007F
1F81F7
0FFFE7
03FFC7
00FF00
000000
000000
003800
003800
003800
003800
003800
ENDCHAR
STARTCHAR 1EAE
ENCODING 7854
SWIDTH 738 0
DWIDTH 31 0
BBX 29 46 1 1
BITMAP
00003800
00007800
0001F800
0007E000
000F8000
00060000
00040000
00000000
00E03800
00703800
007DF000
003FE000
001FC000
00000000
00000000
00070000
000F8000
000F8000
001FC000
001DC000
003DE000
0038E000
0038E000
00707000
00707000
00F07800
00E03800
01E03C00
01C01C00
01C01E00
03C01E00
03800E00
07800F00
07FFFF00
0FFFFF80
0FFFFF80
0E0003C0
1E0003C0
1C0001C0
3C0001E0
380000E0
780000F0
70000070
70000078
E0000038
E0000038
ENDCHAR
STARTCHAR 1EAF
ENCODING 7855
SWIDTH 690 0
DWIDTH 29 0
BBX 24 40 2 -1
BITMAP
0000C0
0001E0
0007E0
001F80
003E00
003800
001000
000000
0700C0
0381C0
03C3C0
01FF80
00FF00
000000
000000
007E00
03FFC7
0FFFE7
1F81F7
3E007F
3C003F
78001F
70000F
F0000F
E00007
E00007
E00007
E00007
E00007
E00007
E00007
F0000F
70000F
78001F
3C003F
3E007F
1F81F7
0FFFE7
03FFC7
00FF00
ENDCHAR
STARTCHAR 1EB0
ENCODING 7856
SWIDTH 738 0
DWIDTH 31 0
BBX 29 46 1 1
BITMAP
00E00000
01F00000
00FC0000
003F0000
000F8000
00030000
00010000
00000000
00E03800
00703800
007DF000
003FE000
001FC000
00000000
00000000
00070000
000F8000
000F8000
001FC000
001DC000
003DE000
0038E000
0038E000
00707000
00707000
00F07800
00E03800
01E03C00
01C01C00
01C01E00
03C01E00
03800E00
07800F00
07FFFF00
0FFFFF80
0FFFFF80
0E0003C0
1E0003C0
1C0001C0
3C0001E0
380000E0
780000F0
70000070
70000078
E0000038
E0000038
ENDCHAR
STARTCHAR 1EB1
ENCODING 7857
SWIDTH 690 0
DWIDTH 29 0
BBX 24 40 2 -1
BITMAP
020000
078000
07E000
01F000
00FC00
003C00
000800
000000
0700C0
0381C0
03C3C0
01FF80
00FF00
000000
000000
007E00
03FFC7
0FFFE7
1F81F7
3E007F
3C003F
78001F
70000F
F0000F
E00007
E00007
E00007
E00007
E00007
E00007
E00007
F0000F
70000F
78001F
3C003F
3E007F
1F81F7
0FFFE7
03FFC7
00FF00
ENDCHAR
STARTCHAR 1EB2
ENCODING 7858
SWIDTH 738 0
DWIDTH 31 0
BBX 29 46 1 0
BITMAP
000F8000
001FC000
0018E000
0038E000
0000E000
0003C000
00038000
00030000
00E03800
00703800
007DF000
003FE000
001FC000
00000000
00000000
00070000
000F8000
000F8000
001FC000
001DC000
003DE000
0038E000
0038E000
00707000
00707000
00F07800
00E03800
01E03C00
01C01C00
01C01E00
03C01E00
03800E00
07800F00
07FFFF00
0FFFFF80
0FFFFF80
0E0003C0
1E0003C0
1C0001C0
3C0001E0
380000E0
780000F0
70000070
70000078
E0000038
E0000038
ENDCHAR
STARTCHAR 1EB3
ENCODING 7859
SWIDTH 690 0
DWIDTH 29 0
BBX 24 40 2 -1
BITMAP
003C00
00FE00
00E700
00C300
000700
000E00
001C00
001800
0318C0
0381C0
03C3C0
01FF80
00FF00
000000
000000
007E00
03FFC7
0FFFE7
1F81F7
3E007F
3C003F
78001F
70000F
F0000F
E00007
E00007
E00007
E00007
E00007
E00007
E00007
F0000F
70000F
78001F
3C003F
3E007F
1F81F7
0FFFE7
03FFC7
00FF00
ENDCHAR
STARTCHAR 1EB4
ENCODING 7860
SWIDTH 738 0
DWIDTH 31 0
BBX 29 45 1 0
BITMAP
00100000
007E1000
00FFF000
0067F000
0041E000
00000000
00000000
00E03800
00703800
007DF000
003FE000
001FC000
00000000
00000000
00070000
000F8000
000F8000
001FC000
001DC000
003DE000
0038E000
0038E000
00707000
00707000
00F07800
00E03800
01E03C00
01C01C00
01C01E00
03C01E00
03800E00
07800F00
07FFFF00
0FFFFF80
0FFFFF80
0E0003C0
1E0003C0
1C0001C0
3C0001E0
380000E0
780000F0
70000070
70000078
E0000038
E0000038
ENDCHAR
STARTCHAR 1EB5
ENCODING 7861
SWIDTH 690 0
DWIDTH 29 0
BBX 24 38 2 -1
BITMAP
01E080
03F980
03FFC0
011F80
000200
000000
0700C0
0381C0
03C3C0
01FF80
00FF00
000000
000000
007E00
03FFC7
0FFFE7
1F81F7
3E007F
3C003F
78001F
70000F
F0000F
E00007
E00007
E00007
E00007
E00007
E00007
E00007
F0000F
70000F
78001F
3C003F
3E007F
1F81F7
0FFFE7
03FFC7
00FF00
ENDCHAR
STARTCHAR 1EB6
ENCODING 7862
SWIDTH 738 0
DWIDTH 31 0
BBX 29 46 1 -8
BITMAP
00E03800
00703800
007DF000
003FE000
001FC000
00000000
00000000
00070000
000F8000
000F8000
001FC000
001DC000
003DE000
0038E000
0038E000
00707000
00707000
00F07800
00E03800
01E03C00
01C01C00
01C01E00
03C01E00
03800E00
07800F00
07FFFF00
0FFFFF80
0FFFFF80
0E0003C0
1E0003C0
1C0001C0
3C0001E0
380000E0
780000F0
70000070
70000078
E0000038
E0000038
00000000
00000000
00000000
00070000
00070000
00070000
00070000
00070000
ENDCHAR
STARTCHAR 1EB7
ENCODING 7863
SWIDTH 690 0
DWIDTH 29 0
BBX 24 39 2 -8
BITMAP
0301C0
0381C0
03E780
01FF80
007E00
000000
000000
007E00
03FFC7
0FFFE7
1F81F7
3E007F
3C003F
78001F
70000F
F0000F
E00007
E00007
E00007
E00007
E00007
E00007
E00007
F0000F
70000F
78001F
3C003F
3E007F
1F81F7
0FFFE7
03FFC7
00FF00
000000
000000
003800
003800
003800
003800
003800
ENDCHAR
STARTCHAR 1EB8
ENCODING 7864
SWIDTH 547 0
DWIDTH 23 0
BBX 17 39 3 -8
BITMAP
FFFF80
FFFF80
FFFF80
E00000
E00000
E00000
E00000
E00000
E00000
E00000
E00000
E00000
E00000
E00000
FFFF80
FFFF80
FFFF80
E00000
E00000
E00000
E00000
E00000
E00000
E00000
E00000
E00000
E00000
E00000
FFFF80
FFFF80
FFFF80
000000
000000
000000
01C000
01C000
01C000
01C000
01C000
ENDCHAR
STARTCHAR 1EB9
ENCODING 7865
SWIDTH 642 0
DWIDTH 27 0
BBX 24 32 2 -8
BITMAP
00FE00
03FFC0
07FFE0
1F01F0
1E0078
3C003C
78001C
70001E
F0000E
E0000E
E0000E
FFFFFF
FFFFFF
FFFFFF
E00000
E00000
F00000
70000E
78001C
38003C
3E0078
1F01F0
0FFFE0
03FF80
00FE00
000000
000000
003800
003800
003800
003800
003800
ENDCHAR
STARTCHAR 1EBA
ENCODING 7866
SWIDTH 547 0
DWIDTH 23 0
BBX 17 41 3 0
BITMAP
03E000
07F000
063800
061800
003800
007000
00E000
00C000
000000
000000
FFFF80
FFFF80
FFFF80
E00000
E00000
E00000
E00000
E00000
E00000
E00000
E00000
E00000
E00000
E00000
FFFF80
FFFF80
FFFF80
E00000
E00000
E00000
E00000
E00000
E00000
E00000
E00000
E00000
E00000
E00000
FFFF80
FFFF80
FFFF80
ENDCHAR
STARTCHAR 1EBB
ENCODING 7867
SWIDTH 642 0
DWIDTH 27 0
BBX 24 35 2 -1
BITMAP
003C00
00FE00
00C700
00C300
000700
000E00
001C00
001800
001800
000000
00FE00
03FFC0
07FFE0
1F01F0
1E0078
3C003C
78001C
70001E
F0000E
E0000E
E0000E
FFFFFF
FFFFFF
FFFFFF
E00000
E00000
F00000
70000E
78001C
38003C
3E0078
1F01F0
0FFFE0
03FF80
00FE00
ENDCHAR
STARTCHAR 1EBC
ENCODING 7868
SWIDTH 547 0
DWIDTH 23 0
BBX 17 38 3 0
BITMAP
0F0400
1FCC00
1FFE00
18FC00
001000
000000
000000
FFFF80
FFFF80
FFFF80
E00000
E00000
E00000
E00000
E00000
E00000
E00000
E00000
E00000
E00000
E00000
FFFF80
FFFF80
FFFF80
E00000
E00000
E00000
E00000
E00000
E00000
E00000
E00000
E00000
E00000
E00000
FFFF80
FFFF80
FFFF80
ENDCHAR
STARTCHAR 1EBD
ENCODING 7869
SWIDTH 642 0
DWIDTH 27 0
BBX 24 32 2 -1
BITMAP
01E080
03F980
03FFC0
031F80
000200
000000
000000
00FE00
03FFC0
07FFE0
1F01F0
1E0078
3C003C
78001C
70001E
F0000E
E0000E
E0000E
FFFFFF
FFFFFF
FFFFFF
E00000
E00000
F00000
70000E
78001C
38003C
3E0078
1F01F0
0FFFE0
03FF80
00FE00
ENDCHAR
STARTCHAR 1EBE
ENCODING 7870
SWIDTH 547 0
DWIDTH 23 0
BBX 17 46 3 0
BITMAP
000C00
003E00
007C00
01F000
03E000
038000
000000
000000
03E000
07F000
0F3800
1E1E00
3C0F00
000000
000000
FFFF80
FFFF80
FFFF80
E00000
E00000
E00000
E00000
E00000
E00000
E00000
E00000
E00000
E00000
E00000
FFFF80
FFFF80
FFFF80
E00000
E00000
E00000
E00000
E00000
E00000
E00000
E00000
E00000
E00000
E00000
FFFF80
FFFF80
FFFF80
ENDCHAR
STARTCHAR 1EBF
ENCODING 7871
SWIDTH 642 0
DWIDTH 27 0
BBX 24 40 2 -1
BITMAP
000180
0003C0
000FC0
003F00
007C00
007000
002000
000000
003C00
007E00
01EF00
03C780
0783C0
000020
000000
00FE00
03FFC0
07FFE0
1F01F0
1E0078
3C003C
78001C
70001E
F0000E
E0000E
E0000E
FFFFFF
FFFFFF
FFFFFF
E00000
E00000
F00000
70000E
78001C
38003C
3E0078
1F01F0
0FFFE0
03FF80
00FE00
ENDCHAR
STARTCHAR 1EC0
ENCODING 7872
SWIDTH 547 0
DWIDTH 23 0
BBX 17 46 3 0
BITMAP
180000
1E0000
1F8000
07C000
01F000
00E000
002000
000000
03E000
07F000
0F3800
1E1E00
3C0F00
000000
000000
FFFF80
FFFF80
FFFF80
E00000
E00000
E00000
E00000
E00000
E00000
E00000
E00000
E00000
E00000
E00000
FFFF80
FFFF80
FFFF80
E00000
E00000
E00000
E00000
E00000
E00000
E00000
E00000
E00000
E00000
E00000
FFFF80
FFFF80
FFFF80
ENDCHAR
STARTCHAR 1EC1
ENCODING 7873
SWIDTH 642 0
DWIDTH 27 0
BBX 24 40 2 -1
BITMAP
030000
03C000
03E000
01F800
007E00
001C00
000400
000000
003C00
007E00
01EF00
03C780
0783C0
000020
000000
00FE00
03FFC0
07FFE0
1F01F0
1E0078
3C003C
78001C
70001E
F0000E
E0000E
E0000E
FFFFFF
FFFFFF
FFFFFF
E00000
E00000
F00000
70000E
78001C
38003C
3E0078
1F01F0
0FFFE0
03FF80
00FE00
ENDCHAR
STARTCHAR 1EC2
ENCODING 7874
SWIDTH 547 0
DWIDTH 23 0
BBX 17 48 3 0
BITMAP
007C00
00FF00
00C700
00C300
000700
000E00
001C00
001800
000000
000000
03E000
07F000
0F3800
1E1E00
3C0F00
000000
000000
FFFF80
FFFF80
FFFF80
E00000
E00000
E00000
E00000
E00000
E00000
E00000
E00000
E00000
E00000
E00000
FFFF80
FFFF80
FFFF80
E00000
E00000
E00000
E00000
E00000
E00000
E00000
E00000
E00000
E00000
E00000
FFFF80
FFFF80
FFFF80
ENDCHAR
STARTCHAR 1EC3
ENCODING 7875
SWIDTH 642 0
DWIDTH 27 0
BBX 24 42 2 -1
BITMAP
000780
000FE0
001CE0
001860
0000E0
0001C0
000380
000300
000300
000000
003C00
007E00
00EF00
03C780
0783C0
000020
000000
00FE00
03FFC0
07FFE0
1F01F0
1E0078
3C003C
78001C
70001E
F0000E
E0000E
E0000E
FFFFFF
FFFFFF
FFFFFF
E00000
E00000
F00000
70000E
78001C
38003C
3E0078
1F01F0
0FFFE0
03FF80
00FE00
ENDCHAR
STARTCHAR 1EC4
ENCODING 7876
SWIDTH 547 0
DWIDTH 23 0
BBX 17 45 3 0
BITMAP
040000
1F0400
1FCC00
18FE00
107C00
001000
000000
03E000
07F000
0F3800
1E1E00
3C0F00
000000
000000
FFFF80
FFFF80
FFFF80
E00000
E00000
E00000
E00000
E00000
E00000
E00000
E00000
E00000
E00000
E00000
FFFF80
FFFF80
FFFF80
E00000
E00000
E00000
E00000
E00000
E00000
E00000
E00000
E00000
E00000
E00000
FFFF80
FFFF80
FFFF80
ENDCHAR
STARTCHAR 1EC5
ENCODING 7877
SWIDTH 642 0
DWIDTH 27 0
BBX 24 38 2 -1
BITMAP
008000
03F080
03FFC0
031F80
000700
000000
003C00
007E00
00FF00
01C780
0783C0
000020
000000
00FE00
03FFC0
07FFE0
1F01F0
1E0078
3C003C
78001C
70001E
F0000E
E0000E
E0000E
FFFFFF
FFFFFF
FFFFFF
E00000
E00000
F00000
70000E
78001C
38003C
3E0078
1F01F0
0FFFE0
03FF80
00FE00
ENDCHAR
STARTCHAR 1EC6
ENCODING 7878
SWIDTH 547 0
DWIDTH 23 0
BBX 17 46 3 -8
BITMAP
03E000
07F000
0F3800
1E1E00
3C0F00
000000
000000
FFFF80
FFFF80
FFFF80
E00000
E00000
E00000
E00000
E00000
E00000
E00000
E00000
E00000
E00000
E00000
FFFF80
FFFF80
FFFF80
E00000
E00000
E00000
E00000
E00000
E00000
E00000
E00000
E00000
E00000
E00000
FFFF80
FFFF80
FFFF80
000000
000000
000000
01C000
01C000
01C000
01C000
01C000
ENDCHAR
STARTCHAR 1EC7
ENCODING 7879
SWIDTH 642 0
DWIDTH 27 0
BBX 24 39 2 -8
BITMAP
007C00
00FE00
01EF00
03C380
0781E0
000000
000000
00FE00
03FFC0
07FFE0
1F01F0
1E0078
3C003C
78001C
70001E
F0000E
E0000E
E0000E
FFFFFF
FFFFFF
FFFFFF
E00000
E00000
F00000
70000E
78001C
38003C
3E0078
1F01F0
0FFFE0
03FF80
00FE00
000000
000000
003800
003800
003800
003800
003800
ENDCHAR
STARTCHAR 1EC8
ENCODING 7880
SWIDTH 214 0
DWIDTH 9 0
BBX 8 41 1 0
BITMAP
7C
FE
C7
C3
07
0E
1C
18
00
00
38
38
38
38
38
38
38
38
38
38
38
38
38
38
38
38
38
38
38
38
38
38
38
38
38
38
38
38
38
38
38
ENDCHAR
STARTCHAR 1EC9
ENCODING 7881
SWIDTH 190 0
DWIDTH 8 0
BBX 8 33 0 0
BITMAP
3E
7F
E3
C3
07
0E
1C
18
00
00
1C
1C
1C
1C
1C
1C
1C
1C
1C
1C
1C
1C
1C
1C
1C
1C
1C
1C
1C
1C
1C
1C
1C
ENDCHAR
STARTCHAR 1ECA
ENCODING 7882
SWIDTH 214 0
DWIDTH 9 0
BBX 3 39 3 -8
BITMAP
E0
E0
E0
E0
E0
E0
E0
E0
E0
E0
E0
E0
E0
E0
E0
E0
E0
E0
E0
E0
E0
E0
E0
E0
E0
E0
E0
E0
E0
E0
E0
00
00
00
E0
E0
E0
E0
E0
ENDCHAR
STARTCHAR 1ECB
ENCODING 7883
SWIDTH 190 0
DWIDTH 8 0
BBX 3 39 3 -8
BITMAP
E0
E0
E0
E0
E0
00
00
00
E0
E0
E0
E0
E0
E0
E0
E0
E0
E0
E0
E0
E0
E0
E0
E0
E0
E0
E0
E0
E0
E0
E0
00
00
00
E0
E0
E0
E0
E0
ENDCHAR
STARTCHAR 1ECC
ENCODING 7884
SWIDTH 880 0
DWIDTH 37 0
BBX 33 40 2 -8
BITMAP
000FF00000
003FFE0000
00FFFF8000
03F00FC000
07C003F000
0F8000F800
1E00007800
1C00003C00
3C00001E00
7800000E00
7000000F00
7000000700
F000000700
E000000700
E000000780
E000000780
E000000780
E000000780
E000000780
E000000700
F000000700
7000000700
7000000F00
7800000E00
3C00001E00
1C00003C00
1E00007800
0F8000F000
07C001E000
03F00FC000
00FFFF8000
007FFE0000
000FF00000
0000000000
0000000000
0001C00000
0001C00000
0001C00000
0001C00000
0001C00000
ENDCHAR
STARTCHAR 1ECD
ENCODING 7885
SWIDTH 666 0
DWIDTH 28 0
BBX 24 32 2 -8
BITMAP
00FF00
03FFC0
0FFFE0
1F01F0
3E0078
3C003C
78001C
70001E
F0000E
E0000E
E0000F
E00007
E00007
E00007
E0000F
E0000E
F0000E
70000E
78001C
3C003C
3E0078
1F81F0
0FFFE0
03FFC0
00FE00
000000
000000
003800
003800
003800
003800
003800
ENDCHAR
STARTCHAR 1ECE
ENCODING 7886
SWIDTH 880 0
DWIDTH 37 0
BBX 33 43 2 -1
BITMAP
0003E00000
0007F00000
000E300000
000C380000
0000700000
0000F00000
0000E00000
0001C00000
0001800000
0000000000
000FF00000
003FFE0000
00FFFF8000
03F00FC000
07C003F000
0F8000F800
1E00007800
1C00003C00
3C00001E00
7800000E00
7000000F00
7000000700
F000000700
E000000700
E000000780
E000000780
E000000780
E000000780
E000000780
E000000700
F000000700
7000000700
7000000F00
7800000E00
3C00001E00
1C00003C00
1E00007800
0F8000F000
07C001E000
03F00FC000
00FFFF8000
007FFE0000
000FF00000
ENDCHAR
STARTCHAR 1ECF
ENCODING 7887
SWIDTH 666 0
DWIDTH 28 0
BBX 24 35 2 -1
BITMAP
003C00
00FE00
00C700
00C300
000700
000E00
001C00
001800
001800
000000
00FF00
03FFC0
0FFFE0
1F01F0
3E0078
3C003C
78001C
70001E
F0000E
E0000E
E0000F
E00007
E00007
E00007
E0000F
E0000E
F0000E
70000E
78001C
3C003C
3E0078
1F81F0
0FFFE0
03FFC0
00FE00
ENDCHAR
STARTCHAR 1ED0
ENCODING 7888
SWIDTH 880 0
DWIDTH 37 0
BBX 33 47 2 0
BITMAP
00001C0000
00007E0000
0000F80000
0003E00000
0007C00000
0003000000
0000000000
0001C00000
0007E00000
000F700000
001E3C0000
003C1E0000
0040000000
0000000000
000FF00000
003FFE0000
00FFFF8000
03F00FC000
07C003F000
0F8000F800
1E00007800
1C00003C00
3C00001E00
7800000E00
7000000F00
7000000700
F000000700
E000000700
E000000780
E000000780
E000000780
E000000780
E000000780
E000000700
F000000700
7000000700
7000000F00
7800000E00
3C00001E00
1C00003C00
1E00007800
0F8000F000
07C001E000
03F00FC000
00FFFF8000
007FFE0000
000FF00000
ENDCHAR
STARTCHAR 1ED1
ENCODING 7889
SWIDTH 666 0
DWIDTH 28 0
BBX 24 40 2 -1
BITMAP
000080
0003C0
000FC0
001F00
007C00
007800
002000
000000
003C00
007E00
00EF00
03C780
0781C0
000020
000000
00FF00
03FFC0
0FFFE0
1F01F0
3E0078
3C003C
78001C
70001E
F0000E
E0000E
E0000F
E00007
E00007
E00007
E0000F
E0000E
F0000E
70000E
78001C
3C003C
3E0078
1F81F0
0FFFE0
03FFC0
00FE00
ENDCHAR
STARTCHAR 1ED2
ENCODING 7890
SWIDTH 880 0
DWIDTH 37 0
BBX 33 48 2 -1
BITMAP
0010000000
003C000000
003E000000
000F800000
0007E00000
0001E00000
0000400000
0000000000
0001C00000
0007E00000
000F700000
001E3C0000
003C1E0000
0040000000
0000000000
000FF00000
003FFE0000
00FFFF8000
03F00FC000
07C003F000
0F8000F800
1E00007800
1C00003C00
3C00001E00
7800000E00
7000000F00
7000000700
F000000700
E000000700
E000000780
E000000780
E000000780
E000000780
E000000780
E000000700
F000000700
7000000700
7000000F00
7800000E00
3C00001E00
1C00003C00
1E00007800
0F8000F000
07C001E000
03F00FC000
00FFFF8000
007FFE0000
000FF00000
ENDCHAR
STARTCHAR 1ED3
ENCODING 7891
SWIDTH 666 0
DWIDTH 28 0
BBX 24 40 2 -1
BITMAP
030000
03C000
03E000
00F800
007E00
001C00
000400
000000
003C00
007E00
00EF00
03C780
0781C0
000020
000000
00FF00
03FFC0
0FFFE0
1F01F0
3E0078
3C003C
78001C
70001E
F0000E
E0000E
E0000F
E00007
E00007
E00007
E0000F
E0000E
F0000E
70000E
78001C
3C003C
3E0078
1F81F0
0FFFE0
03FFC0
00FE00
ENDCHAR
STARTCHAR 1ED4
ENCODING 7892
SWIDTH 880 0
DWIDTH 37 0
BBX 33 50 2 -1
BITMAP
00007C0000
0000FE0000
0000C70000
0001C70000
0000070000
00001E0000
00001C0000
0000180000
0000380000
0000000000
0003C00000
0007E00000
000F780000
001E3C0000
003C1E0000
0040000000
0000000000
000FF00000
003FFE0000
00FFFF8000
03F00FC000
07C003F000
0F8000F800
1E00007800
1C00003C00
3C00001E00
7800000E00
7000000F00
7000000700
F000000700
E000000700
E000000780
E000000780
E000000780
E000000780
E000000780
E000000700
F000000700
7000000700
7000000F00
7800000E00
3C00001E00
1C00003C00
1E00007800
0F8000F000
07C001E000
03F00FC000
00FFFF8000
007FFE0000
000FF00000
ENDCHAR
STARTCHAR 1ED5
ENCODING 7893
SWIDTH 666 0
DWIDTH 28 0
BBX 24 42 2 -1
BITMAP
000780
000FE0
001CE0
001860
0000E0
0001C0
000380
000300
000300
000000
003C00
007E00
00FF00
01C780
0783C0
000020
000000
00FF00
03FFC0
0FFFE0
1F01F0
3E0078
3C003C
78001C
70001E
F0000E
E0000E
E0000F
E00007
E00007
E00007
E0000F
E0000E
F0000E
70000E
78001C
3C003C
3E0078
1F81F0
0FFFE0
03FFC0
00FE00
ENDCHAR
STARTCHAR 1ED6
ENCODING 7894
SWIDTH 880 0
DWIDTH 37 0
BBX 33 46 2 -1
BITMAP
0004000000
001F8C0000
003FFC0000
0019FC0000
0010780000
0000000000
0001C00000
0007E00000
000F700000
001E3C0000
003C1E0000
0040000000
0000000000
000FF00000
003FFE0000
00FFFF8000
03F00FC000
07C003F000
0F8000F800
1E00007800
1C00003C00
3C00001E00
7800000E00
7000000F00
7000000700
F000000700
E000000700
E000000780
E000000780
E000000780
E000000780
E000000780
E000000700
F000000700
7000000700
7000000F00
7800000E00
3C00001E00
1C00003C00
1E00007800
0F8000F000
07C001E000
03F00FC000
00FFFF8000
007FFE0000
000FF00000
ENDCHAR
STARTCHAR 1ED7
ENCODING 7895
SWIDTH 666 0
DWIDTH 28 0
BBX 24 38 2 -1
BITMAP
008000
01F080
03FFC0
031F80
000700
000000
003C00
007E00
00FF00
01E780
0783C0
000020
000000
00FF00
03FFC0
0FFFE0
1F01F0
3E0078
3C003C
78001C
70001E
F0000E
E0000E
E0000F
E00007
E00007
E00007
E0000F
E0000E
F0000E
70000E
78001C
3C003C
3E0078
1F81F0
0FFFE0
03FFC0
00FE00
ENDCHAR
STARTCHAR 1ED8
ENCODING 7896
SWIDTH 880 0
DWIDTH 37 0
BBX 33 47 2 -8
BITMAP
0001C00000
0007E00000
000F700000
001E3C0000
003C1E0000
0040000000
0000000000
000FF00000
003FFE0000
00FFFF8000
03F00FC000
07C003F000
0F8000F800
1E00007800
1C00003C00
3C00001E00
7800000E00
7000000F00
7000000700
F000000700
E000000700
E000000780
E000000780
E000000780
E000000780
E000000780
E000000700
F000000700
7000000700
7000000F00
7800000E00
3C00001E00
1C00003C00
1E00007800
0F8000F000
07C001E000
03F00FC000
00FFFF8000
007FFE0000
000FF00000
0000000000
0000000000
0001C00000
0001C00000
0001C00000
0001C00000
0001C00000
ENDCHAR
STARTCHAR 1ED9
ENCODING 7897
SWIDTH 666 0
DWIDTH 28 0
BBX 24 39 2 -8
BITMAP
003C00
00FE00
01E700
03C3C0
0781E0
000000
000000
00FF00
03FFC0
0FFFE0
1F01F0
3E0078
3C003C
78001C
70001E
F0000E
E0000E
E0000F
E00007
E00007
E00007
E0000F
E0000E
F0000E
70000E
78001C
3C003C
3E0078
1F81F0
0FFFE0
03FFC0
00FE00
000000
000000
003800
003800
003800
003800
003800
ENDCHAR
STARTCHAR 1EDA
ENCODING 7898
SWIDTH 880 0
DWIDTH 37 0
BBX 33 41 2 -1
BITMAP
00000C0000
00003C0000
00007C0000
0001F00000
0007E00000
0003800000
0002000000
0000000000
000FF00000
003FFE0380
00FFFF8300
03F00FC700
07C003E700
0F8000FE00
1E00007E00
1C00003C00
3C00001C00
7800000E00
7000000E00
7000000700
F000000700
E000000700
E000000780
E000000780
E000000780
E000000780
E000000780
E000000700
F000000700
7000000700
7000000F00
7800000E00
3C00001E00
3C00003C00
1E00007800
0F8000F000
07C001F000
03F00FC000
01FFFF8000
007FFE0000
000FF00000
ENDCHAR
STARTCHAR 1EDB
ENCODING 7899
SWIDTH 666 0
DWIDTH 28 0
BBX 25 34 2 -1
BITMAP
00008000
00018000
0007C000
000F8000
003E0000
007C0000
00700000
00000000
00000000
00FE0000
03FFC180
0FFFE180
1F01F380
3E007B80
3C003F00
78001F00
70001E00
F0000E00
E0000E00
E0000F00
E0000700
E0000700
E0000700
E0000F00
E0000F00
F0000E00
70000E00
78001E00
3C003C00
3E007800
1F81F000
0FFFE000
03FFC000
00FE0000
ENDCHAR
STARTCHAR 1EDC
ENCODING 7900
SWIDTH 880 0
DWIDTH 37 0
BBX 33 41 2 -1
BITMAP
0018000000
003C000000
003F000000
000FC00000
0003E00000
0001E00000
0000400000
0000000000
000FF00000
003FFE0380
00FFFF8300
03F00FC700
07C003E700
0F8000FE00
1E00007E00
1C00003C00
3C00001C00
7800000E00
7000000E00
7000000700
F000000700
E000000700
E000000780
E000000780
E000000780
E000000780
E000000780
E000000700
F000000700
7000000700
7000000F00
7800000E00
3C00001E00
3C00003C00
1E00007800
0F8000F000
07C001F000
03F00FC000
01FFFF8000
007FFE0000
000FF00000
ENDCHAR
STARTCHAR 1EDD
ENCODING 7901
SWIDTH 666 0
DWIDTH 28 0
BBX 25 33 2 0
BITMAP
03800000
03C00000
01F00000
00FC0000
003E0000
000C0000
00040000
00000000
00FE0000
03FFC180
0FFFE180
1F01F380
3E007B80
3C003F00
78001F00
70001E00
F0000E00
E0000E00
E0000F00
E0000700
E0000700
E0000700
E0000F00
E0000F00
F0000E00
70000E00
78001E00
3C003C00
3E007800
1F81F000
0FFFE000
03FFC000
00FE0000
ENDCHAR
STARTCHAR 1EDE
ENCODING 7902
SWIDTH 880 0
DWIDTH 37 0
BBX 33 43 2 -1
BITMAP
0003E00000
0007F00000
000E300000
000C380000
0000700000
0000F00000
0000E00000
0001C00000
0001800000
0000000000
000FF00000
003FFE0380
00FFFF8300
03F00FC700
07C003E700
0F8000FE00
1E00007E00
1C00003C00
3C00001C00
7800000E00
7000000E00
7000000700
F000000700
E000000700
E000000780
E000000780
E000000780
E000000780
E000000780
E000000700
F000000700
7000000700
7000000F00
7800000E00
3C00001E00
3C00003C00
1E00007800
0F8000F000
07C001F000
03F00FC000
01FFFF8000
007FFE0000
000FF00000
ENDCHAR
STARTCHAR 1EDF
ENCODING 7903
SWIDTH 666 0
DWIDTH 28 0
BBX 25 35 2 -1
BITMAP
003C0000
00FE0000
00C70000
00C30000
00070000
000E0000
001C0000
00180000
00180000
00000000
00FE0000
03FFC180
0FFFE180
1F01F380
3E007B80
3C003F00
78001F00
70001E00
F0000E00
E0000E00
E0000F00
E0000700
E0000700
E0000700
E0000F00
E0000F00
F0000E00
70000E00
78001E00
3C003C00
3E007800
1F81F000
0FFFE000
03FFC000
00FE0000
ENDCHAR
STARTCHAR 1EE0
ENCODING 7904
SWIDTH 880 0
DWIDTH 37 0
BBX 33 40 2 -1
BITMAP
0004000000
001F8C0000
003FFC0000
0019FC0000
0010780000
0000000000
0000000000
000FF00000
003FFE0380
00FFFF8300
03F00FC700
07C003E700
0F8000FE00
1E00007E00
1C00003C00
3C00001C00
7800000E00
7000000E00
7000000700
F000000700
E000000700
E000000780
E000000780
E000000780
E000000780
E000000780
E000000700
F000000700
7000000700
7000000F00
7800000E00
3C00001E00
3C00003C00
1E00007800
0F8000F000
07C001F000
03F00FC000
01FFFF8000
007FFE0000
000FF00000
ENDCHAR
STARTCHAR 1EE1
ENCODING 7905
SWIDTH 666 0
DWIDTH 28 0
BBX 25 32 2 -1
BITMAP
01E08000
03F98000
03FFC000
031F8000
00020000
00000000
00000000
00FE0000
03FFC180
0FFFE180
1F01F380
3E007B80
3C003F00
78001F00
70001E00
F0000E00
E0000E00
E0000F00
E0000700
E0000700
E0000700
E0000F00
E0000F00
F0000E00
70000E00
78001E00
3C003C00
3E007800
1F81F000
0FFFE000
03FFC000
00FE0000
ENDCHAR
STARTCHAR 1EE2
ENCODING 7906
SWIDTH 880 0
DWIDTH 37 0
BBX 33 40 2 -8
BITMAP
000FF00000
003FFE0380
00FFFF8300
03F00FC700
07C003E700
0F8000FE00
1E00007E00
1C00003C00
3C00001C00
7800000E00
7000000E00
7000000700
F000000700
E000000700
E000000780
E000000780
E000000780
E000000780
E000000780
E000000700
F000000700
7000000700
7000000F00
7800000E00
3C00001E00
3C00003C00
1E00007800
0F8000F000
07C001F000
03F00FC000
01FFFF8000
007FFE0000
000FF00000
0000000000
0000000000
0001C00000
0001C00000
0001C00000
0001C00000
0001C00000
ENDCHAR
STARTCHAR 1EE3
ENCODING 7907
SWIDTH 666 0
DWIDTH 28 0
BBX 25 32 2 -8
BITMAP
00FE0000
03FFC180
0FFFE180
1F01F380
3E007B80
3C003F00
78001F00
70001E00
F0000E00
E0000E00
E0000F00
E0000700
E0000700
E0000700
E0000F00
E0000F00
F0000E00
70000E00
78001E00
3C003C00
3E007800
1F81F000
0FFFE000
03FFC000
00FE0000
00000000
00000000
00380000
00380000
00380000
00380000
00380000
ENDCHAR
STARTCHAR 1EE4
ENCODING 7908
SWIDTH 666 0
DWIDTH 28 0
BBX 21 39 3 -8
BITMAP
E00038
E00038
E00038
E00038
E00038
E00038
E00038
E00038
E00038
E00038
E00038
E00038
E00038
E00038
E00038
E00038
E00038
E00038
E00038
E00038
E00038
E00038
F00038
700038
700038
700070
780070
3C00F0
1E03E0
0FFFC0
07FF80
01FC00
000000
000000
007000
007000
007000
007000
007000
ENDCHAR
STARTCHAR 1EE5
ENCODING 7909
SWIDTH 619 0
DWIDTH 26 0
BBX 20 31 3 -8
BITMAP
E00070
E00070
E00070
E00070
E00070
E00070
E00070
E00070
E00070
E00070
E00070
E00070
E00070
E00070
E00070
E000F0
E000F0
F000F0
7001F0
7803F0
3C0770
3FFF70
0FFE70
03F800
000000
000000
00E000
00E000
00E000
00E000
00E000
ENDCHAR
STARTCHAR 1EE6
ENCODING 7910
SWIDTH 666 0
DWIDTH 28 0
BBX 21 42 3 -1
BITMAP
00F800
01FE00
018E00
018600
000E00
001C00
003800
003000
000000
000000
E00038
E00038
E00038
E00038
E00038
E00038
E00038
E00038
E00038
E00038
E00038
E00038
E00038
E00038
E00038
E00038
E00038
E00038
E00038
E00038
E00038
E00038
F00038
700038
700038
700070
780070
3C00F0
1E03E0
0FFFC0
07FF80
01FC00
ENDCHAR
STARTCHAR 1EE7
ENCODING 7911
SWIDTH 619 0
DWIDTH 26 0
BBX 20 34 3 -1
BITMAP
01F000
03FC00
031C00
030C00
001C00
003800
007000
006000
000000
000000
E00070
E00070
E00070
E00070
E00070
E00070
E00070
E00070
E00070
E00070
E00070
E00070
E00070
E00070
E00070
E000F0
E000F0
F000F0
7001F0
7803F0
3C0770
3FFF70
0FFE70
03F800
ENDCHAR
STARTCHAR 1EE8
ENCODING 7912
SWIDTH 714 0
DWIDTH 30 0
BBX 26 41 3 -1
BITMAP
00010000
00030000
000F8000
003F0000
007C0000
00F00000
00E00000
00000000
00000000
E00039C0
E00039C0
E00039C0
E0003B80
E0003F80
E0003F00
E0003E00
E0003C00
E0003800
E0003800
E0003800
E0003800
E0003800
E0003800
E0003800
E0003800
E0003800
E0003800
E0003800
E0003800
E0003800
E0003800
F0003800
F0003800
70003800
70007800
78007000
3C00F000
1F03E000
0FFFC000
07FF0000
01FC0000
ENDCHAR
STARTCHAR 1EE9
ENCODING 7913
SWIDTH 666 0
DWIDTH 28 0
BBX 25 33 3 -1
BITMAP
00020000
000F0000
003F0000
007C0000
01F00000
01E00000
00800000
00000000
00000000
E0007380
E0007380
E0007700
E0007700
E0007F00
E0007E00
E0007C00
E0007000
E0007000
E0007000
E0007000
E0007000
E0007000
E0007000
E0007000
E000F000
E000F000
F000F000
7001F000
7803F000
3E077000
3FFF7000
0FFE7000
03F80000
ENDCHAR
STARTCHAR 1EEA
ENCODING 7914
SWIDTH 714 0
DWIDTH 30 0
BBX 26 40 3 0
BITMAP
07000000
0FC00000
03E00000
01F80000
007C0000
00180000
00000000
00000000
E00039C0
E00039C0
E00039C0
E0003B80
E0003F80
E0003F00
E0003E00
E0003C00
E0003800
E0003800
E0003800
E0003800
E0003800
E0003800
E0003800
E0003800
E0003800
E0003800
E0003800
E0003800
E0003800
E0003800
F0003800
F0003800
70003800
70007800
78007000
3C00F000
1F03E000
0FFFC000
07FF0000
01FC0000
ENDCHAR
STARTCHAR 1EEB
ENCODING 7915
SWIDTH 666 0
DWIDTH 28 0
BBX 25 33 3 -1
BITMAP
0C000000
0F000000
0F800000
07E00000
01F80000
00700000
00100000
00000000
00000000
E0007380
E0007380
E0007700
E0007700
E0007F00
E0007E00
E0007C00
E0007000
E0007000
E0007000
E0007000
E0007000
E0007000
E0007000
E0007000
E000F000
E000F000
F000F000
7001F000
7803F000
3E077000
3FFF7000
0FFE7000
03F80000
ENDCHAR
STARTCHAR 1EEC
ENCODING 7916
SWIDTH 714 0
DWIDTH 30 0
BBX 26 42 3 -1
BITMAP
00F80000
01FE0000
018E0000
01860000
000E0000
001C0000
00380000
00300000
00000000
00000000
E00039C0
E00039C0
E00039C0
E0003B80
E0003F80
E0003F00
E0003E00
E0003C00
E0003800
E0003800
E0003800
E0003800
E0003800
E0003800
E0003800
E0003800
E0003800
E0003800
E0003800
E0003800
E0003800
E0003800
F0003800
F0003800
70003800
70007800
78007000
3C00F000
1F03E000
0FFFC000
07FF0000
01FC0000
ENDCHAR
STARTCHAR 1EED
ENCODING 7917
SWIDTH 666 0
DWIDTH 28 0
BBX 25 34 3 -1
BITMAP
01F00000
03FC0000
031C0000
030C0000
001C0000
00380000
00700000
00600000
00000000
00000000
E0007380
E0007380
E0007700
E0007700
E0007F00
E0007E00
E0007C00
E0007000
E0007000
E0007000
E0007000
E0007000
E0007000
E0007000
E0007000
E000F000
E000F000
F000F000
7001F000
7803F000
3E077000
3FFF7000
0FFE7000
03F80000
ENDCHAR
STARTCHAR 1EEE
ENCODING 7918
SWIDTH 714 0
DWIDTH 30 0
BBX 26 39 3 -1
BITMAP
03C10000
07F30000
07FF8000
063F0000
00040000
00000000
00000000
E00039C0
E00039C0
E00039C0
E0003B80
E0003F80
E0003F00
E0003E00
E0003C00
E0003800
E0003800
E0003800
E0003800
E0003800
E0003800
E0003800
E0003800
E0003800
E0003800
E0003800
E0003800
E0003800
E0003800
F0003800
F0003800
70003800
70007800
78007000
3C00F000
1F03E000
0FFFC000
07FF0000
01FC0000
ENDCHAR
STARTCHAR 1EEF
ENCODING 7919
SWIDTH 666 0
DWIDTH 28 0
BBX 25 32 3 -1
BITMAP
02000000
07C20000
0FFF0000
0C7E0000
081C0000
00000000
00000000
00000000
E0007380
E0007380
E0007700
E0007700
E0007F00
E0007E00
E0007C00
E0007000
E0007000
E0007000
E0007000
E0007000
E0007000
E0007000
E0007000
E000F000
E000F000
F000F000
7001F000
7803F000
3E077000
3FFF7000
0FFE7000
03F80000
ENDCHAR
STARTCHAR 1EF0
ENCODING 7920
SWIDTH 714 0
DWIDTH 30 0
BBX 26 39 3 -8
BITMAP
E00039C0
E00039C0
E00039C0
E0003B80
E0003F80
E0003F00
E0003E00
E0003C00
E0003800
E0003800
E0003800
E0003800
E0003800
E0003800
E0003800
E0003800
E0003800
E0003800
E0003800
E0003800
E0003800
E0003800
F0003800
F0003800
70003800
70007800
78007000
3C00F000
1F03E000
0FFFC000
07FF0000
01FC0000
00000000
00000000
00700000
00700000
00700000
00700000
00700000
ENDCHAR
STARTCHAR 1EF1
ENCODING 7921
SWIDTH 666 0
DWIDTH 28 0
BBX 25 31 3 -8
BITMAP
E0007380
E0007380
E0007700
E0007700
E0007F00
E0007E00
E0007C00
E0007000
E0007000
E0007000
E0007000
E0007000
E0007000
E0007000
E0007000
E000F000
E000F000
F000F000
7001F000
7803F000
3E077000
3FFF7000
0FFE7000
03F80000
00000000
00000000
00E00000
00E00000
00E00000
00E00000
00E00000
ENDCHAR
STARTCHAR 1EF2
ENCODING 7922
SWIDTH 595 0
DWIDTH 25 0
BBX 25 40 0 0
BITMAP
01000000
01C00000
03E00000
01F80000
007E0000
001E0000
000E0000
00000000
00000000
F0000780
70000700
78000E00
38000E00
3C001C00
1C001C00
1E003800
0E007800
0F007000
0700F000
0380E000
0381E000
01C1C000
01C3C000
00E38000
00E78000
00770000
007F0000
003E0000
003E0000
001C0000
001C0000
001C0000
001C0000
001C0000
001C0000
001C0000
001C0000
001C0000
001C0000
001C0000
ENDCHAR
STARTCHAR 1EF3
ENCODING 7923
SWIDTH 547 0
DWIDTH 23 0
BBX 21 40 1 -8
BITMAP
040000
0F0000
0FC000
03E000
00F800
007800
001000
000000
000000
E00038
E00070
F00070
7000F0
7800E0
3801E0
3801C0
3C01C0
1C0380
1E0380
0E0780
0E0700
0F0700
070E00
078E00
039C00
039C00
03FC00
01F800
01F800
00F000
00F000
00F000
00E000
01E000
01C000
03C000
038000
038000
078000
070000
ENDCHAR
STARTCHAR 1EF4
ENCODING 7924
SWIDTH 595 0
DWIDTH 25 0
BBX 25 39 0 -8
BITMAP
F0000780
70000700
78000E00
38000E00
3C001C00
1C001C00
1E003800
0E007800
0F007000
0700F000
0380E000
0381E000
01C1C000
01C3C000
00E38000
00E78000
00770000
007F0000
003E0000
003E0000
001C0000
001C0000
001C0000
001C0000
001C0000
001C0000
001C0000
001C0000
001C0000
001C0000
001C0000
00000000
00000000
00000000
001C0000
001C0000
001C0000
001C0000
001C0000
ENDCHAR
STARTCHAR 1EF5
ENCODING 7925
SWIDTH 547 0
DWIDTH 23 0
BBX 21 31 1 -8
BITMAP
E00038
E00070
F00070
7000F0
7800E0
3800E0
3801C0
3C01C0
1C03C0
1E0380
0E0780
0E0700
0F0700
070E00
078E00
039E00
039C00
03FC00
01F800
01F800
00F000
00F000
00F000
00E000
01E000
01C000
01C380
038380
038380
078380
070380
ENDCHAR
STARTCHAR 1EF6
ENCODING 7926
SWIDTH 595 0
DWIDTH 25 0
BBX 25 41 0 0
BITMAP
003E0000
007F0000
00E38000
00C38000
00070000
000F0000
000C0000
001C0000
00000000
00000000
F0000780
70000700
78000E00
38000E00
3C001C00
1C001C00
1E003800
0E007800
0F007000
0700F000
0380E000
0381E000
01C1C000
01C3C000
00E38000
00E78000
00770000
007F0000
003E0000
003E0000
001C0000
001C0000
001C0000
001C0000
001C0000
001C0000
001C0000
001C0000
001C0000
001C0000
001C0000
ENDCHAR
STARTCHAR 1EF7
ENCODING 7927
SWIDTH 547 0
DWIDTH 23 0
BBX 21 41 1 -8
BITMAP
00F800
01FC00
038C00
030E00
001C00
003800
003000
007000
000000
000000
E00038
E00070
F00070
7000F0
7800E0
3801E0
3801C0
3C01C0
1C0380
1E0380
0E0780
0E0700
0F0700
070E00
078E00
039C00
039C00
03FC00
01F800
01F800
00F000
00F000
00F000
00E000
01E000
01C000
03C000
038000
038000
078000
070000
ENDCHAR
STARTCHAR 1EF8
ENCODING 7928
SWIDTH 595 0
DWIDTH 25 0
BBX 25 38 0 0
BITMAP
00F00000
01FCC000
01FFC000
010FC000
00010000
00000000
00000000
F0000780
70000700
78000E00
38000E00
3C001C00
1C001C00
1E003800
0E007800
0F007000
0700F000
0380E000
0381E000
01C1C000
01C3C000
00E38000
00E78000
00770000
007F0000
003E0000
003E0000
001C0000
001C0000
001C0000
001C0000
001C0000
001C0000
001C0000
001C0000
001C0000
001C0000
001C0000
ENDCHAR
STARTCHAR 1EF9
ENCODING 7929
SWIDTH 547 0
DWIDTH 23 0
BBX 21 39 1 -8
BITMAP
010000
07E300
0FFF00
067F00
041E00
000000
000000
000000
E00038
E00070
F00070
7000F0
7800E0
3801E0
3801C0
3C01C0
1C0380
1E0380
0E0780
0E0700
0F0700
070E00
078E00
039C00
039C00
03FC00
01F800
01F800
00F000
00F000
00F000
00E000
01E000
01C000
03C000
038000
038000
078000
070000
ENDCHAR
STARTCHAR 2000
ENCODING 8192
SWIDTH 500 0
DWIDTH 21 0
BBX 0 0 0 0
BITMAP
ENDCHAR
STARTCHAR 2001
ENCODING 8193
SWIDTH 1000 0
DWIDTH 42 0
BBX 0 0 0 0
BITMAP
ENDCHAR
STARTCHAR 2002
ENCODING 8194
SWIDTH 500 0
DWIDTH 21 0
BBX 0 0 0 0
BITMAP
ENDCHAR
STARTCHAR 2003
ENCODING 8195
SWIDTH 1000 0
DWIDTH 42 0
BBX 0 0 0 0
BITMAP
ENDCHAR
STARTCHAR 2004
ENCODING 8196
SWIDTH 333 0
DWIDTH 14 0
BBX 0 0 0 0
BITMAP
ENDCHAR
STARTCHAR 2005
ENCODING 8197
SWIDTH 261 0
DWIDTH 11 0
BBX 0 0 0 0
BITMAP
ENDCHAR
STARTCHAR 2006
ENCODING 8198
SWIDTH 166 0
DWIDTH 7 0
BBX 0 0 0 0
BITMAP
ENDCHAR
STARTCHAR 2007
ENCODING 8199
SWIDTH 547 0
DWIDTH 23 0
BBX 0 0 0 0
BITMAP
ENDCHAR
STARTCHAR 2008
ENCODING 8200
SWIDTH 261 0
DWIDTH 11 0
BBX 0 0 0 0
BITMAP
ENDCHAR
STARTCHAR 2009
ENCODING 8201
SWIDTH 190 0
DWIDTH 8 0
BBX 0 0 0 0
BITMAP
ENDCHAR
STARTCHAR 200A
ENCODING 8202
SWIDTH 95 0
DWIDTH 4 0
BBX 0 0 0 0
BITMAP
ENDCHAR
STARTCHAR 200B
ENCODING 8203
SWIDTH 0 0
DWIDTH 0 0
BBX 0 0 0 0
BITMAP
ENDCHAR
STARTCHAR 200C
ENCODING 8204
SWIDTH 0 0
DWIDTH 0 0
BBX 0 0 0 0
BITMAP
ENDCHAR
STARTCHAR 200D
ENCODING 8205
SWIDTH 0 0
DWIDTH 0 0
BBX 0 0 0 0
BITMAP
ENDCHAR
STARTCHAR 2010
ENCODING 8208
SWIDTH 333 0
DWIDTH 14 0
BBX 12 3 1 10
BITMAP
FFF0
FFF0
FFF0
ENDCHAR
STARTCHAR 2011
ENCODING 8209
SWIDTH 333 0
DWIDTH 14 0
BBX 12 3 1 10
BITMAP
FFF0
FFF0
FFF0
ENDCHAR
STARTCHAR 2012
ENCODING 8210
SWIDTH 595 0
DWIDTH 25 0
BBX 18 3 3 14
BITMAP
FFFFC0
FFFFC0
FFFFC0
ENDCHAR
STARTCHAR 2013
ENCODING 8211
SWIDTH 500 0
DWIDTH 21 0
BBX 21 3 0 10
BITMAP
FFFFF8
FFFFF8
FFFFF8
ENDCHAR
STARTCHAR 2014
ENCODING 8212
SWIDTH 1000 0
DWIDTH 42 0
BBX 42 3 0 10
BITMAP
FFFFFFFFFFC0
FFFFFFFFFFC0
FFFFFFFFFFC0
ENDCHAR
STARTCHAR 2015
ENCODING 8213
SWIDTH 1166 0
DWIDTH 49 0
BBX 42 3 3 9
BITMAP
FFFFFFFFFFC0
FFFFFFFFFFC0
FFFFFFFFFFC0
ENDCHAR
STARTCHAR 2016
ENCODING 8214
SWIDTH 404 0
DWIDTH 17 0
BBX 11 33 3 -6
BITMAP
E0E0
E0E0
E0E0
E0E0
E0E0
E0E0
E0E0
E0E0
E0E0
E0E0
E0E0
E0E0
E0E0
E0E0
E0E0
E0E0
E0E0
E0E0
E0E0
E0E0
E0E0
E0E0
E0E0
E0E0
E0E0
E0E0
E0E0
E0E0
E0E0
E0E0
E0E0
E0E0
E0E0
ENDCHAR
STARTCHAR 2017
ENCODING 8215
SWIDTH 452 0
DWIDTH 19 0
BBX 12 10 3 -13
BITMAP
FFF0
FFF0
FFF0
0000
0000
0000
0000
FFF0
FFF0
FFF0
ENDCHAR
STARTCHAR 2018
ENCODING 8216
SWIDTH 357 0
DWIDTH 15 0
BBX 7 8 4 23
BITMAP
E0
70
70
38
38
1C
1C
0E
ENDCHAR
STARTCHAR 2019
ENCODING 8217
SWIDTH 357 0
DWIDTH 15 0
BBX 6 8 4 23
BITMAP
1C
1C
38
38
78
70
70
E0
ENDCHAR
STARTCHAR 201A
ENCODING 8218
SWIDTH 357 0
DWIDTH 15 0
BBX 6 8 4 -3
BITMAP
1C
1C
38
38
70
70
F0
E0
ENDCHAR
STARTCHAR 201C
ENCODING 8220
SWIDTH 500 0
DWIDTH 21 0
BBX 13 8 4 23
BITMAP
E3C0
71C0
71E0
38E0
38E0
1C70
1C70
1E38
ENDCHAR
STARTCHAR 201D
ENCODING 8221
SWIDTH 476 0
DWIDTH 20 0
BBX 12 8 4 23
BITMAP
1C70
1C70
38E0
38E0
71C0
71C0
E3C0
E380
ENDCHAR
STARTCHAR 201E
ENCODING 8222
SWIDTH 500 0
DWIDTH 21 0
BBX 12 8 4 -3
BITMAP
1C70
1C70
38F0
38E0
70E0
71C0
F1C0
E380
ENDCHAR
STARTCHAR 2020
ENCODING 8224
SWIDTH 547 0
DWIDTH 23 0
BBX 19 36 2 -5
BITMAP
00E000
00E000
00E000
00E000
00E000
00E000
00E000
00E000
FFFFE0
FFFFE0
FFFFE0
00E000
00E000
00E000
00E000
00E000
00E000
00E000
00E000
00E000
00E000
00E000
00E000
00E000
00E000
00E000
00E000
00E000
00E000
00E000
00E000
00E000
00E000
00E000
00E000
00E000
ENDCHAR
STARTCHAR 2021
ENCODING 8225
SWIDTH 547 0
DWIDTH 23 0
BBX 19 36 2 -5
BITMAP
00E000
00E000
00E000
00E000
00E000
00E000
00E000
FFFFE0
FFFFE0
FFFFE0
00E000
00E000
00E000
00E000
FFFFE0
FFFFE0
FFFFE0
00E000
00E000
00E000
00E000
00E000
00E000
00E000
00E000
00E000
00E000
00E000
00E000
00E000
00E000
00E000
00E000
00E000
00E000
00E000
ENDCHAR
STARTCHAR 2022
ENCODING 8226
SWIDTH 523 0
DWIDTH 22 0
BBX 15 15 3 3
BITMAP
07E0
1FF8
3FFC
3FFC
7FFE
7FFE
FFFE
FFFE
FFFE
7FFE
7FFE
3FFC
3FFC
1FF0
07E0
ENDCHAR
STARTCHAR 2026
ENCODING 8230
SWIDTH 809 0
DWIDTH 34 0
BBX 28 5 3 0
BITMAP
E0070070
E0070070
E0070070
E0070070
E0070070
ENDCHAR
STARTCHAR 202F
ENCODING 8239
SWIDTH 190 0
DWIDTH 8 0
BBX 0 0 0 0
BITMAP
ENDCHAR
STARTCHAR 2030
ENCODING 8240
SWIDTH 1166 0
DWIDTH 49 0
BBX 47 33 1 -1
BITMAP
0FC000000000
1FE00E000000
7FF00E000000
70781E000000
E03C1C000000
E01C1C000000
C01C38000000
C01C38000000
C01C70000000
E01C70000000
E03CE0000000
7878E0000000
7FF1C0000000
3FE1C0000000
0F81C0000000
000380000000
000380000000
000700000000
000707C007E0
000E1FF00FF0
000E3FF81FFC
001C783C3C3C
001CF01C701E
0038E01C700E
0038E00E700E
0038E00E600E
0070E00E700E
0070E01C700E
00E0F01C781E
00E078383C3C
01C03FF83FF8
01C01FF00FF0
000007C007C0
ENDCHAR
STARTCHAR 2031
ENCODING 8241
SWIDTH 1571 0
DWIDTH 66 0
BBX 64 33 1 -1
BITMAP
0FC0000000000000
1FE00E0000000000
7FF00E0000000000
70781E0000000000
E03C1C0000000000
E01C1C0000000000
C01C380000000000
C01C380000000000
C01C700000000000
E01C700000000000
E03CE00000000000
7878E00000000000
7FF1C00000000000
3FE1C00000000000
0F81C00000000000
0003800000000000
0003800000000000
0007000000000000
000707C007E003E0
000E1FF00FF00FF8
000E3FF81FFC1FFC
001C783C3C3C1C1E
001CF01C701E380F
0038E01C700E3807
0038E00E700E7007
0038E00E600E7007
0070E00E700E7007
0070E01C700E3807
00E0F01C781E380F
00E078383C3C3C1E
01C03FF83FF81FFC
01C01FF00FF00FF8
000007C007C003E0
ENDCHAR
STARTCHAR 2032
ENCODING 8242
SWIDTH 261 0
DWIDTH 11 0
BBX 5 9 3 22
BITMAP
38
38
38
70
70
70
60
E0
E0
ENDCHAR
STARTCHAR 2033
ENCODING 8243
SWIDTH 404 0
DWIDTH 17 0
BBX 12 9 3 22
BITMAP
3870
38E0
38E0
70E0
71C0
71C0
61C0
E380
E380
ENDCHAR
STARTCHAR 2034
ENCODING 8244
SWIDTH 547 0
DWIDTH 23 0
BBX 18 9 3 22
BITMAP
3871C0
38E180
38E380
70E380
71C300
71C700
61C700
E38600
E38E00
ENDCHAR
STARTCHAR 2035
ENCODING 8245
SWIDTH 261 0
DWIDTH 11 0
BBX 5 9 3 22
BITMAP
E0
E0
E0
70
70
70
38
38
38
ENDCHAR
STARTCHAR 2036
ENCODING 8246
SWIDTH 404 0
DWIDTH 17 0
BBX 11 9 3 22
BITMAP
E380
E380
E180
71C0
71C0
70C0
38E0
38E0
38E0
ENDCHAR
STARTCHAR 2037
ENCODING 8247
SWIDTH 547 0
DWIDTH 23 0
BBX 18 9 3 22
BITMAP
E38E00
E38E00
E18700
71C700
71C700
70C380
38E380
38E380
38E1C0
ENDCHAR
STARTCHAR 2039
ENCODING 8249
SWIDTH 261 0
DWIDTH 11 0
BBX 7 17 2 4
BITMAP
08
0E
1C
3C
38
78
70
E0
E0
F0
70
78
38
3C
1C
0E
08
ENDCHAR
STARTCHAR 203A
ENCODING 8250
SWIDTH 261 0
DWIDTH 11 0
BBX 7 16 2 4
BITMAP
40
E0
F0
70
78
38
1C
1C
0E
1C
3C
38
78
70
E0
E0
ENDCHAR
STARTCHAR 203B
ENCODING 8251
SWIDTH 595 0
DWIDTH 25 0
BBX 23 23 1 -1
BITMAP
003800
007C00
007C00
047C40
0E3CE0
0F01F0
0783E0
03C7C0
01EF80
78FF1C
FC7E3E
FC7C3E
78FE3E
71FF1C
03E780
03C3C0
0781E0
0F00F0
0E3CE0
047C40
007C00
007C00
003800
ENDCHAR
STARTCHAR 203D
ENCODING 8253
SWIDTH 595 0
DWIDTH 25 0
BBX 19 36 3 0
BITMAP
00E000
00E000
00E000
00E000
03F800
0FFE00
1FFF00
3CE780
78E3C0
70E1C0
F0E1E0
E0E0E0
E0E0E0
E0E0E0
00E0E0
00E1E0
00E1C0
00E3C0
00E780
00EF00
00FE00
00FC00
00F800
00F000
00F000
00E000
00E000
00E000
000000
000000
000000
00E000
00E000
00E000
00E000
00E000
ENDCHAR
STARTCHAR 203F
ENCODING 8255
SWIDTH 500 0
DWIDTH 21 0
BBX 19 5 1 -8
BITMAP
E000E0
7000E0
7FFFC0
3FFF80
07FC00
ENDCHAR
STARTCHAR 2040
ENCODING 8256
SWIDTH 500 0
DWIDTH 21 0
BBX 19 5 1 26
BITMAP
07FE00
3FFF80
7FFFC0
7000E0
E000E0
ENDCHAR
STARTCHAR 2044
ENCODING 8260
SWIDTH 523 0
DWIDTH 22 0
BBX 14 33 4 -6
BITMAP
001C
003C
0038
0038
0078
0070
0070
00F0
00E0
00E0
01C0
01C0
01C0
0380
0380
0780
0700
0700
0F00
0E00
0E00
1E00
1C00
1C00
3C00
3800
3800
7800
7000
7000
F000
E000
E000
ENDCHAR
STARTCHAR 2045
ENCODING 8261
SWIDTH 357 0
DWIDTH 15 0
BBX 10 39 3 -9
BITMAP
FFC0
FFC0
FFC0
F000
F000
F000
F000
F000
F000
F000
F000
F000
F000
F000
F000
F000
F000
F000
FFC0
FFC0
FFC0
F000
F000
F000
F000
F000
F000
F000
F000
F000
F000
F000
F000
F000
F000
F000
FFC0
FFC0
FFC0
ENDCHAR
STARTCHAR 2046
ENCODING 8262
SWIDTH 357 0
DWIDTH 15 0
BBX 9 39 2 -9
BITMAP
FF80
FF80
FF80
0380
0380
0380
0380
0380
0380
0380
0380
0380
0380
0380
0380
0380
0380
0380
FF80
FF80
FF80
0380
0380
0380
0380
0380
0380
0380
0380
0380
0380
0380
0380
0380
0380
0380
FF80
FF80
FF80
ENDCHAR
STARTCHAR 2052
ENCODING 8274
SWIDTH 547 0
DWIDTH 23 0
BBX 21 31 1 0
BITMAP
000078
100070
7C00E0
FC00E0
FE01C0
FC03C0
FC0380
780780
000700
000F00
000E00
001C00
001C00
003800
003800
007000
00F000
00E000
01E000
01C000
03C000
038000
070000
0700F0
0E01F8
1E01F8
1C01F8
3C01F8
3801F0
780060
700000
ENDCHAR
STARTCHAR 2054
ENCODING 8276
SWIDTH 500 0
DWIDTH 21 0
BBX 19 5 1 -8
BITMAP
03FC00
1FFF80
7FFFC0
7001E0
E000E0
ENDCHAR
STARTCHAR 2057
ENCODING 8279
SWIDTH 714 0
DWIDTH 30 0
BBX 24 9 3 22
BITMAP
3871C7
38E187
38E38E
70E38E
71C30E
71C71C
61C71C
E3861C
E38E38
ENDCHAR
STARTCHAR 205F
ENCODING 8287
SWIDTH 214 0
DWIDTH 9 0
BBX 0 0 0 0
BITMAP
ENDCHAR
ENDFONT
